<?xml version="1.0" encoding="utf-8"?>
<!-- Generator: Adobe Illustrator 28.2.0, SVG Export Plug-In . SVG Version: 6.00 Build 0)  -->
<svg version="1.1" id="Layer_1" xmlns="http://www.w3.org/2000/svg" xmlns:xlink="http://www.w3.org/1999/xlink" x="0px" y="0px"
	 viewBox="0 0 100 100" style="enable-background:new 0 0 100 100;" xml:space="preserve">
<style type="text/css">
	.st0{fill:#34D399;}
</style>
<g>
	<path class="st0" d="M50.1,18.78c10.92,0,21.84,0,32.77,0c1.28,0,2.45,0.38,3.47,1.15c1.23,0.92,1.98,2.15,2.26,3.66
		c0.06,0.35,0.08,0.7,0.08,1.05c0,6.28,0,12.56,0,18.85c0,6.89,0,13.77,0,20.66c0,1.55-0.57,2.88-1.65,3.99
		c-0.95,0.97-2.11,1.52-3.45,1.7c-0.33,0.04-0.67,0.05-1,0.05c-9.6,0-19.2,0-28.8,0c-0.14,0-0.32-0.06-0.43,0.04
		c-0.11,0.1-0.01,0.26-0.01,0.4c-0.01,1.71,0,3.41,0,5.12c0,0.37,0,0.37,0.36,0.37c2.46,0,4.92,0.02,7.38-0.01
		c1.26-0.02,2.54,1.07,2.66,2.37c0.05,0.48,0.03,0.95-0.15,1.4c-0.33,0.82-0.92,1.38-1.77,1.64c-0.35,0.11-0.7,0.15-1.06,0.15
		c-7.16,0-14.33-0.01-21.49,0c-1.4,0-2.54-0.91-2.8-2.21c-0.18-0.89,0-1.74,0.65-2.44c0.41-0.44,0.9-0.75,1.5-0.87
		c0.15-0.03,0.29-0.03,0.44-0.03c2.46,0,4.92,0,7.38,0c0.39,0,0.39,0,0.39-0.39c0-1.69,0-3.38,0-5.07c0-0.08,0.01-0.16,0.02-0.24
		c0.02-0.19,0-0.21-0.19-0.22c-0.09,0-0.18,0-0.27,0c-9.6,0-19.2,0-28.8,0c-0.88,0-1.75-0.1-2.56-0.47
		c-0.62-0.28-1.19-0.63-1.69-1.11c-0.52-0.5-0.96-1.05-1.27-1.7c-0.38-0.79-0.58-1.63-0.58-2.51c0-13.21,0-26.42,0-39.63
		c0-1.18,0.38-2.24,1.05-3.21c0.36-0.52,0.79-0.98,1.31-1.35c0.63-0.45,1.31-0.79,2.07-0.97c0.54-0.12,1.08-0.18,1.63-0.18
		C28.39,18.78,39.25,18.78,50.1,18.78z M49.91,64.51c10.33,0,20.65,0,30.98,0c0.13,0,0.26,0,0.39,0c0.66-0.02,1.16-0.45,1.29-1.1
		c0.03-0.15,0.03-0.31,0.03-0.46c0-12.42,0-24.84,0-37.25c0-0.09,0-0.18,0-0.27c-0.02-0.67-0.53-1.2-1.11-1.28
		c-0.16-0.02-0.32-0.03-0.49-0.03c-20.73,0-41.45,0-62.18,0c-0.09,0-0.18,0-0.27,0c-0.75,0.05-1.24,0.49-1.33,1.2
		c-0.01,0.11-0.01,0.23-0.01,0.34c0,12.45,0,24.9,0,37.35c0,0.07,0,0.13,0,0.2c0.02,0.71,0.56,1.26,1.28,1.3
		c0.13,0.01,0.26,0,0.39,0C29.22,64.51,39.56,64.51,49.91,64.51z"/>
</g>
</svg>
