<?xml version="1.0" encoding="utf-8"?>
<!-- Generator: Adobe Illustrator 28.2.0, SVG Export Plug-In . SVG Version: 6.00 Build 0)  -->
<svg version="1.1" id="Layer_1" xmlns="http://www.w3.org/2000/svg" xmlns:xlink="http://www.w3.org/1999/xlink" x="0px" y="0px"
	 viewBox="0 0 64 64" style="enable-background:new 0 0 64 64;" xml:space="preserve">
<style type="text/css">
	.st0{fill:#56BF92;}
</style>
<image style="overflow:visible;" width="3264" height="3264" xlink:href="20260224_050908.png"  transform="matrix(1.531863e-02 0 0 1.531863e-02 1632.4286 1607.4286)">
</image>
<image style="overflow:visible;" width="3264" height="3264" xlink:href="20260224_055528.png"  transform="matrix(9.475440e-05 0 0 8.097953e-05 125.0644 38.9961)">
</image>
<g>
	<path class="st0" d="M62.3,31.9c0,1.9,0,3.4,0,5c0,0.5,0,1-0.1,1.4c-0.1,1-0.2,2.1-0.4,3.1c-0.1,0.5-0.2,1-0.4,1.5
		c-0.1,0.5-0.3,1-0.5,1.5c-0.3,0.8-0.6,1.5-1,2.2c-0.2,0.3-0.4,0.7-0.6,1c-0.4,0.6-0.8,1.2-1.2,1.7c-0.4,0.5-0.8,0.9-1.2,1.4
		c-0.3,0.3-0.5,0.5-0.8,0.8c-0.4,0.4-0.8,0.7-1.2,1.1c-0.3,0.3-0.7,0.5-1,0.8c-0.5,0.4-1,0.7-1.5,1c-0.6,0.4-1.3,0.8-2,1.1
		c-0.6,0.4-1.3,0.7-1.9,1.1c-0.7,0.4-1.3,0.7-2,1.1c-0.6,0.3-1.2,0.7-1.9,1c-0.6,0.3-1.2,0.7-1.8,1c-0.6,0.3-1.3,0.7-2,1
		c-0.6,0.3-1.3,0.5-1.9,0.7c-0.5,0.2-1,0.3-1.5,0.5c-0.7,0.2-1.4,0.3-2.1,0.4c-0.5,0.1-1,0.1-1.5,0.2c-0.7,0.1-1.4,0.1-2.1,0.1
		c-0.5,0-1,0-1.4-0.1c-0.9-0.1-1.7-0.2-2.6-0.4c-0.8-0.2-1.6-0.4-2.4-0.7c-0.5-0.2-1-0.4-1.5-0.6c-0.5-0.2-1.1-0.5-1.6-0.7
		c-1-0.5-2-1.1-3-1.6c-0.6-0.3-1.3-0.7-1.9-1c-0.5-0.3-1-0.5-1.5-0.8c-0.5-0.3-1-0.6-1.5-0.8c-0.4-0.2-0.7-0.4-1.1-0.6
		c-0.5-0.3-1-0.6-1.5-0.8c-0.4-0.2-0.7-0.5-1-0.7c-0.4-0.3-0.8-0.5-1.1-0.8c-0.4-0.3-0.7-0.6-1.1-0.9c-0.3-0.3-0.6-0.5-0.8-0.8
		c-0.6-0.6-1.2-1.3-1.8-2c-0.5-0.6-0.9-1.2-1.2-1.9c-0.3-0.6-0.6-1.2-0.9-1.8C3.5,44.7,3.2,44,3,43.2c-0.3-0.8-0.4-1.7-0.6-2.5
		c-0.1-0.6-0.2-1.2-0.2-1.8c0-0.6-0.1-1.2-0.1-1.7c-0.1-2,0-3.9,0-5.9c0-0.7,0-1.4,0-2.2c0-0.9,0-1.7,0-2.6c0-0.8,0.1-1.7,0.2-2.5
		c0.1-0.8,0.3-1.7,0.6-2.5c0.1-0.5,0.3-1,0.5-1.5c0.1-0.1,0.1-0.3,0.2-0.4c0.2-0.4,0.4-0.9,0.6-1.3c0.2-0.3,0.3-0.6,0.5-1
		c0.2-0.3,0.4-0.7,0.6-1c0.4-0.6,0.8-1.1,1.3-1.7c0.6-0.7,1.3-1.4,2-2c0.3-0.3,0.7-0.6,1-0.8c0.3-0.3,0.7-0.5,1-0.7
		c0.3-0.2,0.7-0.4,1-0.7c0.5-0.3,1-0.6,1.5-0.9c0.5-0.3,1.1-0.6,1.6-0.9c0.6-0.4,1.3-0.7,1.9-1.1c0.9-0.5,1.8-1,2.7-1.5
		c0.7-0.4,1.4-0.8,2.1-1.2c1.2-0.6,2.4-1.1,3.6-1.6c1.4-0.5,2.8-0.8,4.3-1.1c0.5-0.1,1-0.1,1.5-0.1c0.4,0,0.8,0,1.2,0
		c0.5,0,1,0,1.5,0.1c1,0.1,1.9,0.2,2.9,0.4c1.1,0.2,2.1,0.6,3.1,0.9c0.8,0.3,1.6,0.7,2.4,1c0.7,0.3,1.3,0.7,2,1.1
		c0.7,0.4,1.3,0.7,2,1.1c0.9,0.5,1.8,1,2.7,1.5c0.9,0.5,1.8,1,2.7,1.5c0.5,0.3,1,0.6,1.4,0.9c0.7,0.5,1.4,0.9,2,1.5
		c0.4,0.3,0.7,0.6,1.1,0.9c0.3,0.3,0.6,0.6,0.9,0.9c0.3,0.3,0.5,0.5,0.7,0.8c0.4,0.4,0.7,0.9,1.1,1.4c0.2,0.3,0.4,0.6,0.6,0.9
		c0.2,0.4,0.5,0.8,0.7,1.2c0.2,0.5,0.5,1,0.7,1.5c0.2,0.5,0.4,1,0.6,1.6c0.1,0.2,0.1,0.5,0.2,0.7c0.2,0.7,0.4,1.5,0.5,2.2
		c0.1,0.5,0.1,0.9,0.2,1.4c0.1,0.5,0.1,1,0.1,1.5C62.4,28.7,62.3,30.5,62.3,31.9z"/>
</g>
</svg>
