<?xml version="1.0" encoding="utf-8"?>
<!-- Generator: Adobe Illustrator 28.2.0, SVG Export Plug-In . SVG Version: 6.00 Build 0)  -->
<svg version="1.1" id="Layer_1" xmlns="http://www.w3.org/2000/svg" xmlns:xlink="http://www.w3.org/1999/xlink" x="0px" y="0px"
	 viewBox="0 0 64 64" style="enable-background:new 0 0 64 64;" xml:space="preserve">
<style type="text/css">
	.st0{fill:#56BF92;}
</style>
<image style="overflow:visible;" width="3264" height="3264" xlink:href="20260224_050908.png"  transform="matrix(1.531863e-02 0 0 1.531863e-02 1632.4286 1607.4286)">
</image>
<image style="overflow:visible;" width="3264" height="3264" xlink:href="20260224_055528.png"  transform="matrix(9.475440e-05 0 0 8.097953e-05 125.0644 38.9961)">
</image>
<g>
	<path class="st0" d="M46.9,46.3c0,2.3,0,4.5,0,6.8c0,0.6-0.4,1.2-0.9,1.4c-0.3,0.1-0.5,0.1-0.8,0.1c0,0,0,0-0.1,0
		c-0.4,0-0.7,0-1.1-0.1c-0.3-0.1-0.7-0.1-1-0.2c-0.3-0.1-0.6-0.2-0.9-0.4c-0.5-0.3-1-0.5-1.4-0.9c-0.2-0.2-0.4-0.3-0.5-0.5
		c-0.2-0.3-0.5-0.5-0.7-0.8c-0.4-0.5-0.7-1.1-1-1.7c-0.2-0.5-0.3-0.9-0.4-1.4c-0.1-0.5-0.1-0.9-0.1-1.4c0-1.6,0-3.2,0-4.8
		c0-0.3-0.1-0.5-0.3-0.6c-2.6-2.6-5.2-5.2-7.8-7.8c-0.2-0.2-0.4-0.5-0.6-0.8c-0.2-0.4-0.3-0.8-0.2-1.3c0-0.3,0.1-0.5,0.2-0.8
		c0.1-0.3,0.3-0.5,0.6-0.8c2.6-2.6,5.2-5.2,7.8-7.8c0.2-0.2,0.3-0.4,0.3-0.7c0-1.8,0-3.6,0-5.3c0-0.5,0.1-0.9,0.2-1.4
		c0.1-0.4,0.2-0.8,0.4-1.1c0.1-0.3,0.3-0.6,0.4-0.9c0.2-0.4,0.5-0.8,0.8-1.1c0.4-0.5,0.9-0.9,1.4-1.3c0.4-0.3,0.9-0.5,1.4-0.7
		c0.4-0.2,0.8-0.3,1.3-0.4c0.5-0.1,1.1-0.2,1.6-0.1c0.4,0,0.7,0.2,1,0.6c0.2,0.3,0.3,0.6,0.3,0.9c0,4.5,0,8.9,0,13.4
		c0,0.4,0,0.8-0.1,1.2c0,0.2-0.1,0.4-0.2,0.6c-0.1,0.2-0.3,0.4-0.5,0.6c-1.7,1.7-3.5,3.5-5.2,5.2c-0.2,0.2-0.2,0.2,0,0.4
		c1.7,1.7,3.5,3.5,5.2,5.2c0.3,0.3,0.6,0.7,0.7,1.1c0.1,0.3,0.1,0.7,0.1,1C46.9,41.8,46.9,44.1,46.9,46.3z"/>
	<path class="st0" d="M17.3,32c0-6.7,0-13.4,0-20.1c0-0.3,0-0.6,0.1-0.9c0.1-0.2,0.1-0.4,0.3-0.5c0.3-0.4,0.6-0.7,1.1-0.9
		c0.4-0.1,0.7-0.2,1.1-0.2c1.3,0,2.6,0,3.9,0c0.5,0,0.9,0.1,1.2,0.4c0.3,0.2,0.6,0.5,0.8,0.8c0.2,0.3,0.3,0.6,0.3,0.9
		c0,0.3,0,0.5,0,0.8c0,13.2,0,26.5,0,39.7c0,0.2,0,0.5-0.1,0.7c-0.1,0.3-0.2,0.7-0.4,0.9c-0.3,0.5-0.8,0.8-1.3,0.9
		c-0.3,0.1-0.5,0.1-0.8,0.1c-1.2,0-2.4,0-3.6,0c-0.4,0-0.8,0-1.1-0.2c-0.5-0.3-1-0.7-1.2-1.2c-0.2-0.3-0.2-0.6-0.2-1
		C17.3,45.4,17.3,38.7,17.3,32z"/>
</g>
</svg>
