<?xml version="1.0" encoding="utf-8"?>
<!-- Generator: Adobe Illustrator 28.2.0, SVG Export Plug-In . SVG Version: 6.00 Build 0)  -->
<svg version="1.1" id="Layer_1" xmlns="http://www.w3.org/2000/svg" xmlns:xlink="http://www.w3.org/1999/xlink" x="0px" y="0px"
	 viewBox="0 0 100 100" style="enable-background:new 0 0 100 100;" xml:space="preserve">
<style type="text/css">
	.st0{fill:#34D399;}
</style>
<g>
	<path class="st0" d="M76.97,55.23c0,10.89,0,21.79,0,32.68c0,0.85-0.13,1.67-0.49,2.45c-0.21,0.46-0.48,0.87-0.81,1.25
		c-0.51,0.6-1.13,1.06-1.85,1.38c-0.59,0.26-1.21,0.46-1.87,0.44c-1.04-0.02-2.07,0.06-3.11,0.06c-14.09,0-28.18,0-42.26,0
		c-0.33,0-0.65,0.02-0.98-0.05c-0.75-0.14-1.44-0.41-2.07-0.85c-0.81-0.56-1.44-1.28-1.84-2.18c-0.25-0.55-0.41-1.13-0.46-1.74
		c-0.04-0.47-0.04-0.95-0.04-1.42c0-21.61,0-43.22,0-64.83c0-1.05,0.24-2.04,0.81-2.93c0.59-0.93,1.37-1.65,2.4-2.09
		c0.44-0.19,0.89-0.33,1.36-0.4c0.06-0.01,0.11-0.02,0.17-0.02c0.71,0.02,1.42-0.06,2.13-0.06c3.59,0,7.19-0.04,10.78,0.01
		c3.6,0.06,7.2,0.02,10.8,0.03c3.59,0.02,7.19,0.05,10.78-0.01c3.76-0.06,7.53-0.01,11.29-0.04c0.44,0,0.88,0.02,1.31,0.15
		c0.75,0.22,1.44,0.56,2.04,1.07c1.01,0.85,1.61,1.94,1.83,3.23c0.06,0.35,0.07,0.71,0.07,1.07c0,6.25,0,12.5,0,18.74
		C76.97,45.89,76.97,50.56,76.97,55.23C76.97,55.23,76.97,55.23,76.97,55.23z M71.43,55.25c0-10.61,0-21.22,0-31.83
		c0-0.11,0-0.21,0-0.32c0-0.1-0.03-0.19-0.12-0.26c-0.22-0.18-0.44-0.36-0.69-0.5c-0.54-0.3-1.12-0.39-1.72-0.39
		c-1.64-0.01-3.28,0-4.92,0c-11.35,0-22.7,0-34.06,0c-0.16,0-0.33-0.01-0.49,0.02c-1.17,0.21-2.22,1.22-2.47,2.38
		c-0.07,0.33-0.06,0.67-0.06,1c0,17.66,0,35.33,0,52.99c0,2.33,0,4.66,0,6.98c0,0.18,0,0.36,0.03,0.54
		c0.13,0.69,0.46,1.26,0.97,1.75c0.6,0.57,1.31,0.86,2.12,0.87c3.19,0.04,6.38-0.01,9.58,0.04c3.61,0.06,7.22,0.03,10.83,0.01
		c3.62-0.02,7.23,0.04,10.85-0.04c2.7-0.05,5.41-0.01,8.11-0.01c0.15,0,0.29,0,0.44-0.03c0.47-0.09,0.87-0.31,1.25-0.59
		c0.27-0.2,0.37-0.42,0.37-0.76C71.43,76.5,71.43,65.87,71.43,55.25z"/>
	<path class="st0" d="M48.01,71.79c0.38,0,0.75,0,1.13,0c1.01,0.01,1.87,0.4,2.61,1.07c0.69,0.63,1.11,1.43,1.23,2.36
		c0.17,1.3-0.16,2.45-1.1,3.41c-0.6,0.62-1.32,1.01-2.16,1.17c-0.26,0.05-0.52,0.08-0.78,0.08c-0.64,0-1.27,0-1.91,0
		c-0.97,0-1.83-0.31-2.58-0.91c-0.48-0.38-0.85-0.86-1.11-1.41c-0.27-0.58-0.41-1.19-0.38-1.83c0.04-1.03,0.39-1.92,1.1-2.67
		c0.54-0.57,1.18-0.97,1.95-1.16c0.24-0.06,0.48-0.11,0.72-0.1C47.16,71.79,47.59,71.79,48.01,71.79z"/>
</g>
</svg>
