<?xml version="1.0" encoding="utf-8"?>
<!-- Generator: Adobe Illustrator 28.2.0, SVG Export Plug-In . SVG Version: 6.00 Build 0)  -->
<svg version="1.1" id="Layer_1" xmlns="http://www.w3.org/2000/svg" xmlns:xlink="http://www.w3.org/1999/xlink" x="0px" y="0px"
	 viewBox="0 0 64 64" style="enable-background:new 0 0 64 64;" xml:space="preserve">
<style type="text/css">
	.st0{fill:#56BF92;}
</style>
<image style="overflow:visible;" width="3264" height="3264" xlink:href="20260224_050908.png"  transform="matrix(1.531863e-02 0 0 1.531863e-02 1632.4286 1607.4286)">
</image>
<image style="overflow:visible;" width="3264" height="3264" xlink:href="20260224_050814.png"  transform="matrix(2.463614e-03 0 0 2.105468e-03 116.7139 1.375)">
</image>
<image style="overflow:visible;" width="3264" height="3264" xlink:href="20260224_050908.png"  transform="matrix(1.958258e-03 0 0 1.673577e-03 131.3531 1.375)">
</image>
<image style="overflow:visible;" width="3264" height="3264" xlink:href="20260224_050959.png"  transform="matrix(1.958258e-03 0 0 1.673577e-03 141.0438 1.9917)">
</image>
<image style="overflow:visible;" width="3264" height="3264" xlink:href="20260224_051042.png"  transform="matrix(2.463614e-03 0 0 2.105468e-03 149.4974 1.375)">
</image>
<image style="overflow:visible;" width="3264" height="3264" xlink:href="20260224_051146.png"  transform="matrix(2.147766e-03 0 0 1.835536e-03 158.7758 1.9917)">
</image>
<g>
	<path class="st0" d="M57.1,20.7c0,0.3,0,0.6,0,0.9c0,0.1,0,0.1,0,0.2c-0.1,0.2-0.1,0.4-0.1,0.6c0,0.1,0,0.2-0.1,0.3
		c0,0,0,0.1,0,0.1c0,0.2-0.1,0.4-0.2,0.6c-0.1,0.2-0.2,0.5-0.3,0.7c-0.1,0.1-0.1,0.3-0.2,0.4c-0.1,0.2-0.2,0.3-0.3,0.5
		c-0.1,0.2-0.2,0.4-0.4,0.5c-0.1,0.2-0.3,0.4-0.5,0.6c-0.2,0.2-0.4,0.4-0.6,0.6c-0.1,0.1-0.3,0.3-0.5,0.4c-0.3,0.2-0.6,0.4-0.9,0.6
		c-0.1,0.1-0.3,0.2-0.4,0.2c-0.1,0.1-0.2,0.1-0.2,0.3c0.1,0.6,0,1.1,0.1,1.7c0.1,0.5,0,1,0,1.6c0,0.1,0,0.2,0,0.2
		c0,0.4,0,0.9-0.1,1.3c0,0.2,0.1,0.3,0.2,0.3c0.2,0.1,0.5,0.3,0.7,0.4c0.2,0.1,0.5,0.3,0.7,0.5c0.2,0.1,0.4,0.3,0.6,0.5
		c0.1,0.1,0.3,0.3,0.4,0.4c0.3,0.3,0.5,0.7,0.8,1c0.1,0.1,0.2,0.3,0.2,0.4c0.1,0.1,0.1,0.2,0.2,0.3c0.1,0.2,0.2,0.4,0.3,0.6
		c0.1,0.2,0.1,0.4,0.2,0.6c0,0.1,0.1,0.1,0.1,0.2c0,0.2,0.1,0.4,0.1,0.5c0.1,0.1,0,0.3,0.1,0.5c0,0,0,0.1,0,0.1
		c0.1,0.3,0.1,0.7,0.1,1.1c0,0.4,0,0.8,0,1.2c0,0.1,0,0.1,0,0.2c-0.1,0.2-0.1,0.4-0.1,0.6c0,0,0,0,0,0.1c-0.1,0.3-0.1,0.6-0.2,0.8
		c0,0,0,0,0,0.1c0,0.2-0.1,0.4-0.2,0.6c-0.1,0.3-0.2,0.5-0.4,0.8c-0.2,0.3-0.4,0.6-0.6,0.9c-0.1,0.1-0.1,0.2-0.2,0.2
		c-0.4,0.4-0.8,0.8-1.2,1.2c-0.3,0.3-0.7,0.5-1,0.7c-0.3,0.2-0.5,0.3-0.8,0.4c-0.2,0.1-0.4,0.2-0.6,0.2c-0.1,0-0.1,0-0.2,0.1
		c-0.1,0.1-0.3,0.1-0.4,0.1c-0.1,0-0.1,0-0.2,0.1c-0.2,0.1-0.3,0.1-0.5,0.1c-0.2,0-0.4,0-0.6,0.1c-0.4,0.1-0.9,0.1-1.3,0
		c-0.2,0-0.4,0-0.6-0.1c0,0-0.1,0-0.1,0c-0.3-0.1-0.6-0.1-0.9-0.2c-0.1,0-0.1,0-0.2-0.1c-0.1,0-0.2-0.1-0.3-0.1c0,0-0.1,0-0.1,0
		c-0.1,0-0.2-0.1-0.3-0.1c-0.1-0.1-0.3-0.1-0.5-0.2c-0.3-0.1-0.5-0.3-0.8-0.4c-0.2-0.1-0.3-0.1-0.4,0c-0.4,0.3-0.7,0.5-1.1,0.8
		c-0.2,0.1-0.4,0.3-0.6,0.4c-0.1,0.1-0.2,0.1-0.3,0.2c-0.3,0.2-0.6,0.3-0.9,0.5c-0.2,0.1-0.3,0.2-0.5,0.2c-0.1,0.1-0.3,0.1-0.4,0.2
		c-0.1,0-0.2,0.1-0.2,0.1c-0.1,0-0.2,0.1-0.2,0.2c0,0.1,0,0.3,0,0.4c0,0.3,0,0.6,0,1c0,0.1,0,0.1,0,0.2c0,0.2-0.1,0.3-0.1,0.5
		c0,0.2,0,0.4-0.1,0.6c0,0.1,0,0.1,0,0.2c0,0,0,0.1,0,0.1c-0.1,0.2-0.1,0.4-0.3,0.6c0,0,0,0.1,0,0.1c-0.1,0.3-0.3,0.6-0.4,0.9
		c-0.1,0.1-0.2,0.3-0.2,0.4c-0.1,0.2-0.3,0.4-0.4,0.5c-0.3,0.4-0.6,0.7-1,1.1c-0.1,0.1-0.2,0.2-0.3,0.3c-0.2,0.2-0.4,0.4-0.7,0.5
		c-0.2,0.1-0.3,0.2-0.5,0.3c-0.1,0-0.2,0.1-0.3,0.2C35.1,58,35,58,34.8,58.1c0,0-0.1,0-0.2,0.1c-0.2,0.1-0.5,0.2-0.7,0.2
		c-0.1,0-0.3,0.1-0.4,0.1c-0.1,0-0.2,0-0.3,0.1c-0.2,0.1-0.3,0.1-0.5,0.1c-0.4,0-0.8,0-1.3,0c-0.3,0-0.6,0-1,0c-0.1,0-0.1,0-0.2,0
		c-0.2-0.1-0.4-0.1-0.6-0.1c-0.1,0-0.2,0-0.2-0.1c0,0-0.1,0-0.1,0c-0.3,0-0.5-0.1-0.7-0.2c-0.2-0.1-0.3-0.1-0.5-0.2
		c-0.2-0.1-0.3-0.2-0.5-0.3c-0.1,0-0.2-0.1-0.3-0.2c-0.5-0.3-1-0.7-1.4-1.1c-0.3-0.3-0.6-0.7-0.9-1.1c-0.2-0.3-0.4-0.6-0.6-0.9
		c-0.1-0.2-0.1-0.3-0.3-0.5c0,0,0,0,0,0c0-0.2-0.2-0.4-0.2-0.6c0,0,0-0.1-0.1-0.1c0,0,0-0.1,0-0.1c0-0.4-0.2-0.7-0.2-1.1
		c0,0,0-0.1,0-0.1c-0.2-0.5-0.1-1.1-0.1-1.6c0,0,0-0.1,0-0.1c0-0.3,0-0.2-0.2-0.3c-0.2-0.1-0.4-0.2-0.6-0.3
		c-0.2-0.1-0.3-0.2-0.5-0.2c-0.1,0-0.2-0.1-0.4-0.2c-0.2-0.1-0.5-0.3-0.7-0.4c-0.2-0.1-0.4-0.2-0.6-0.4c-0.4-0.3-0.9-0.6-1.3-0.9
		c-0.1-0.1-0.3-0.1-0.4,0c-0.2,0.1-0.3,0.2-0.5,0.3c-0.1,0-0.2,0.1-0.3,0.2C18,48,17.8,48,17.6,48.1c0,0-0.1,0-0.1,0.1
		c0,0-0.1,0-0.1,0c-0.2,0.1-0.5,0.2-0.7,0.2c-0.3,0.1-0.6,0.2-0.9,0.2c-0.3,0-0.6,0.1-0.9,0.1c-0.4,0-0.7,0-1.1,0
		c-0.2,0-0.4-0.1-0.7-0.1c-0.1,0-0.3,0-0.4-0.1c0,0,0,0,0,0c-0.3,0-0.6-0.2-0.9-0.2c-0.1,0-0.1,0-0.2-0.1c-0.1,0-0.1-0.1-0.2-0.1
		c-0.2,0-0.4-0.2-0.5-0.2c-0.3-0.1-0.6-0.3-0.8-0.5c-0.3-0.2-0.5-0.3-0.8-0.5c-0.2-0.1-0.3-0.3-0.5-0.4c-0.3-0.3-0.6-0.6-0.9-1
		c-0.2-0.2-0.3-0.4-0.4-0.6c-0.1-0.2-0.3-0.5-0.4-0.7c-0.1-0.2-0.1-0.3-0.2-0.4c-0.1-0.1-0.1-0.2-0.1-0.3c0,0,0-0.1,0-0.1
		c-0.1-0.1-0.1-0.2-0.1-0.4c0-0.1,0-0.1,0-0.2c-0.1-0.1-0.1-0.3-0.1-0.5c0-0.2-0.1-0.4-0.1-0.7c0-0.2,0-0.5,0-0.7c0-0.4,0-0.8,0-1.1
		c0-0.1,0-0.1,0-0.2c0.1-0.2,0.1-0.4,0.1-0.7c0-0.1,0-0.2,0.1-0.3c0-0.1,0.1-0.1,0.1-0.2c0-0.1,0-0.3,0.1-0.4c0,0,0-0.1,0-0.1
		c0-0.1,0-0.2,0.1-0.3c0,0,0,0,0-0.1c0.1-0.3,0.2-0.5,0.3-0.7c0.1-0.2,0.2-0.4,0.3-0.6c0.1-0.2,0.3-0.4,0.4-0.6
		c0.2-0.3,0.5-0.6,0.7-0.8c0.3-0.3,0.6-0.5,0.9-0.8c0.2-0.2,0.5-0.3,0.7-0.4c0.1-0.1,0.3-0.2,0.4-0.2c0.1-0.1,0.2-0.2,0.2-0.3
		c0-0.3-0.1-0.6-0.1-0.9c0-0.4,0-0.8-0.1-1.2c0-0.3,0-0.5,0-0.8c0-0.3,0.1-0.6,0.1-0.9c0-0.4,0-0.7,0.1-1.1c0-0.1,0-0.3-0.2-0.3
		c-0.2-0.1-0.3-0.2-0.4-0.2C10,27.5,9.7,27.2,9.3,27c-0.5-0.4-0.9-0.8-1.3-1.3c-0.2-0.3-0.5-0.6-0.6-1c-0.1-0.3-0.3-0.5-0.4-0.8
		c-0.1-0.2-0.1-0.5-0.3-0.7c0,0,0,0,0,0c0-0.3-0.2-0.6-0.2-1c0-0.1,0-0.2,0-0.3c-0.1-0.2-0.1-0.4-0.1-0.6c0-0.3,0-0.7,0-1
		c0-0.3,0-0.6,0.1-0.8c0-0.1,0-0.3,0.1-0.4c0-0.1,0-0.2,0.1-0.3c0-0.1,0.1-0.2,0.1-0.3c0,0,0-0.1,0-0.1c0.1-0.2,0.1-0.4,0.3-0.6
		C7,17.5,7,17.4,7.1,17.3c0.1-0.3,0.3-0.5,0.4-0.8c0.2-0.3,0.4-0.5,0.6-0.8c0.3-0.4,0.7-0.8,1.1-1.2c0.2-0.2,0.5-0.4,0.7-0.5
		c0.2-0.1,0.4-0.3,0.6-0.4c0.1-0.1,0.2-0.1,0.4-0.2c0.1-0.1,0.3-0.1,0.4-0.2c0.2-0.1,0.4-0.2,0.7-0.2c0.3-0.2,0.6-0.1,0.9-0.3
		c0.1,0,0.2-0.1,0.3,0c0.3,0,0.6-0.1,0.9-0.1c0.3,0,0.5,0,0.8,0c0.2,0,0.5,0.1,0.7,0.1c0.2,0,0.4,0,0.5,0.1c0,0,0.1,0,0.1,0
		c0.2,0,0.4,0,0.5,0.1c0,0,0,0,0.1,0c0.2,0,0.3,0.1,0.4,0.1c0.1,0.1,0.3,0.1,0.4,0.2c0.3,0.1,0.6,0.3,0.9,0.5
		c0.1,0.1,0.2,0.1,0.3,0.2c0.1,0.1,0.2,0.1,0.3,0c0.1-0.1,0.3-0.2,0.4-0.3c0.2-0.2,0.5-0.3,0.7-0.5c0.2-0.2,0.5-0.3,0.7-0.4
		c0.2-0.1,0.4-0.3,0.7-0.4c0.2-0.1,0.4-0.2,0.5-0.3c0.2-0.1,0.3-0.2,0.5-0.2c0.2-0.1,0.3-0.1,0.5-0.2c0.1,0,0.1-0.1,0.2-0.1
		c0.2,0,0.2-0.1,0.2-0.2c0-0.3,0-0.5,0-0.8c0-0.3,0-0.6,0.1-0.9c0-0.2,0-0.4,0.1-0.5c0-0.1,0-0.2,0.1-0.2c0.1-0.1,0.1-0.2,0.1-0.3
		c0,0,0-0.1,0-0.1c0.1-0.2,0.1-0.5,0.2-0.7c0.1-0.1,0.1-0.3,0.2-0.5c0.1-0.3,0.3-0.6,0.5-0.9c0.2-0.3,0.5-0.7,0.7-1
		c0.2-0.3,0.5-0.5,0.7-0.7c0.3-0.2,0.5-0.4,0.8-0.6c0.2-0.1,0.4-0.3,0.6-0.4c0.2-0.1,0.3-0.2,0.5-0.2c0.2-0.1,0.4-0.2,0.6-0.2
		c0.2-0.1,0.5-0.1,0.8-0.3c0,0,0,0,0.1,0c0.5,0,0.9-0.3,1.4-0.2c0.2,0,0.3,0,0.5,0c0.5,0,1,0,1.5,0.1c0.2,0,0.5,0.1,0.7,0.2
		C34,3,34.2,3,34.5,3.1c0.2,0.1,0.4,0.2,0.6,0.2c0.2,0.1,0.5,0.2,0.7,0.4C36,3.9,36.2,4,36.4,4.1c0.4,0.3,0.8,0.6,1.1,0.9
		c0.1,0.1,0.3,0.3,0.4,0.4c0.2,0.3,0.5,0.6,0.7,0.9C38.7,6.7,38.9,7,39,7.3c0.1,0.3,0.2,0.6,0.3,0.8c0.1,0.3,0.1,0.6,0.3,0.8
		c0,0,0,0.1,0,0.1c0,0.2,0.1,0.5,0.1,0.7c0.1,0.2,0.1,0.5,0.1,0.7c0,0.3,0,0.5,0,0.8c0,0.2,0,0.2,0.2,0.3c0.2,0.1,0.4,0.2,0.5,0.3
		c0,0,0.1,0,0.1,0c0.3,0.1,0.6,0.3,1,0.5c0.2,0.1,0.4,0.2,0.6,0.3c0.3,0.2,0.5,0.3,0.8,0.5c0.2,0.1,0.4,0.3,0.6,0.4
		c0.2,0.1,0.3,0.2,0.5,0.4c0.2,0.1,0.3,0.1,0.5,0c0.1-0.1,0.2-0.1,0.3-0.2c0.3-0.1,0.5-0.3,0.8-0.4c0.2-0.1,0.4-0.2,0.6-0.2
		c0.2-0.1,0.5-0.2,0.7-0.2c0.1,0,0.3,0,0.4-0.1c0.1-0.1,0.3-0.1,0.4-0.1c0.4,0,0.7-0.1,1-0.1c0.2,0,0.3,0,0.5,0
		c0.3,0.1,0.6,0.1,0.9,0.1c0.2,0,0.3,0,0.5,0.1c0.1,0.1,0.2,0.1,0.4,0.1c0.1,0,0.2,0,0.3,0.1c0.1,0,0.1,0.1,0.2,0.1
		c0.1,0,0.2,0,0.3,0.1c0,0,0,0,0.1,0c0.2,0,0.4,0.1,0.6,0.2c0.3,0.1,0.5,0.2,0.8,0.4c0.2,0.1,0.4,0.2,0.5,0.3
		c0.4,0.3,0.7,0.6,1.1,0.9c0.4,0.4,0.7,0.8,1,1.2c0.2,0.2,0.3,0.5,0.4,0.7c0.1,0.2,0.2,0.4,0.2,0.5c0.1,0.2,0.1,0.4,0.2,0.6
		c0,0,0,0,0,0.1c0.1,0.3,0.2,0.7,0.2,1c0,0.1,0,0.1,0,0.2c0.1,0.3,0.1,0.5,0.1,0.8C57.1,20.4,57.1,20.5,57.1,20.7z M35.7,49.6
		C35.7,49.6,35.7,49.6,35.7,49.6c0-0.4,0-0.7,0-1.1c0-0.2,0-0.4,0.1-0.5c0.1-0.2,0.2-0.4,0.3-0.6c0.3-0.3,0.6-0.6,1-0.7
		c0,0,0.1,0,0.1,0c0.1-0.1,0.2-0.1,0.3-0.1c0.1,0,0.1,0,0.2-0.1c0.1,0,0.1-0.1,0.2-0.1c0.2,0,0.4-0.2,0.6-0.2
		c0.2-0.1,0.4-0.2,0.6-0.3c0.2-0.1,0.3-0.1,0.5-0.2c0.3-0.2,0.7-0.4,1-0.6c0.3-0.2,0.7-0.4,1-0.7c0.3-0.2,0.6-0.5,0.9-0.7
		c0.2-0.2,0.4-0.3,0.6-0.5c0.1-0.1,0.3-0.1,0.4-0.2c0.1-0.1,0.3-0.1,0.5-0.1c0.1,0,0.2,0,0.4,0c0.3,0,0.6,0.1,0.9,0.2
		c0.3,0.2,0.6,0.4,0.9,0.5c0.1,0.1,0.2,0.1,0.4,0.2c0.2,0.1,0.3,0.2,0.4,0.2c0.2,0.1,0.4,0.2,0.6,0.3c0.2,0.1,0.3,0.1,0.5,0.2
		c0,0,0.1,0,0.1,0.1c0,0,0.1,0,0.1,0c0.5,0.1,1.1,0.1,1.6,0c0.1,0,0.3,0,0.4-0.1c0,0,0.1,0,0.1,0c0.2,0,0.4-0.1,0.6-0.2
		c0.4-0.2,0.8-0.5,1.1-0.9c0.2-0.2,0.4-0.5,0.5-0.7c0.1-0.2,0.2-0.3,0.2-0.5c0,0,0-0.1,0.1-0.1c0-0.1,0.1-0.1,0.1-0.2
		c0-0.2,0.1-0.4,0.1-0.5c0-0.1,0-0.1,0-0.2c0-0.4,0.1-0.8-0.1-1.2c0,0,0,0,0,0c0-0.2-0.1-0.4-0.2-0.6c-0.1-0.2-0.2-0.4-0.3-0.5
		c-0.2-0.3-0.3-0.5-0.6-0.8c-0.2-0.2-0.3-0.3-0.5-0.4c-0.2-0.1-0.4-0.3-0.6-0.4c-0.3-0.2-0.6-0.4-0.9-0.6c-0.3-0.2-0.6-0.3-0.9-0.5
		c-0.2-0.2-0.4-0.4-0.6-0.6c-0.1-0.1-0.1-0.3-0.2-0.4c-0.1-0.1-0.1-0.2-0.1-0.4c0-0.2,0-0.3,0-0.5c0-0.1,0-0.3,0.1-0.4
		c0.1-0.1,0.1-0.2,0.1-0.4c0-0.2,0-0.5,0.1-0.7c0.1-0.3,0.1-0.5,0.1-0.8c0-0.8,0-1.6,0-2.4c0-0.2,0-0.4,0-0.5
		c-0.1-0.3-0.1-0.7-0.1-1.1c0-0.1,0-0.2-0.1-0.2c-0.1-0.4-0.1-0.7,0-1.1c0,0,0,0,0,0c0.1-0.2,0.1-0.4,0.3-0.6
		c0.2-0.2,0.3-0.4,0.6-0.6c0.2-0.1,0.4-0.2,0.6-0.4c0.3-0.2,0.7-0.4,1-0.6c0.3-0.2,0.6-0.4,0.9-0.6c0.1-0.1,0.2-0.1,0.3-0.2
		c0.2-0.2,0.4-0.4,0.6-0.6c0.2-0.3,0.4-0.5,0.5-0.8c0,0,0,0,0-0.1c0.1-0.1,0.1-0.3,0.1-0.4c0-0.1,0-0.2,0.1-0.2
		C53,21.3,53,21.1,53,21c0-0.2,0-0.4,0-0.6c0-0.1,0-0.2,0-0.2c-0.1-0.3-0.1-0.6-0.3-0.9c-0.1-0.3-0.3-0.5-0.4-0.8
		c-0.2-0.3-0.4-0.5-0.6-0.7c-0.2-0.2-0.5-0.4-0.7-0.6c-0.1-0.1-0.3-0.1-0.4-0.2c-0.2-0.1-0.5-0.1-0.7-0.3c0,0,0,0,0,0
		c-0.2,0-0.5,0-0.7,0c-0.3,0-0.6,0-0.9,0c-0.2,0-0.3,0-0.5,0.1c0,0-0.1,0-0.2,0c-0.2,0.1-0.4,0.1-0.5,0.2c-0.1,0.1-0.3,0.2-0.4,0.2
		c-0.3,0.2-0.7,0.4-1,0.6c-0.3,0.2-0.6,0.4-0.9,0.5c-0.2,0.1-0.3,0.1-0.5,0.1c-0.1,0-0.2,0-0.3,0c-0.2,0-0.4,0-0.6-0.1
		c0,0-0.1,0-0.1,0c-0.1,0-0.1,0-0.2-0.1c-0.2-0.2-0.5-0.4-0.7-0.5c-0.2-0.2-0.4-0.4-0.6-0.5c-0.3-0.2-0.6-0.4-0.9-0.6
		c-0.2-0.1-0.5-0.3-0.7-0.4c-0.1-0.1-0.3-0.1-0.4-0.2c-0.1-0.1-0.3-0.2-0.5-0.2c-0.1-0.1-0.3-0.2-0.5-0.2c-0.2-0.1-0.5-0.2-0.7-0.3
		c-0.2-0.1-0.4-0.1-0.5-0.2c-0.2-0.1-0.4-0.2-0.6-0.2c-0.2-0.1-0.3-0.2-0.5-0.3c-0.3-0.2-0.5-0.4-0.6-0.7c-0.1-0.2-0.2-0.3-0.2-0.5
		c0-0.3,0-0.5,0-0.8c0-0.4,0-0.8,0-1.2c0-0.4,0-0.8-0.1-1.2c0-0.1,0-0.3,0-0.4c0-0.2-0.1-0.3-0.1-0.4c-0.1-0.3-0.2-0.5-0.4-0.8
		C35,8.4,34.9,8.2,34.7,8c-0.2-0.2-0.4-0.4-0.6-0.5c-0.3-0.2-0.7-0.4-1-0.6c-0.2-0.1-0.5-0.1-0.7-0.2c0,0-0.1,0-0.1,0
		c-0.3,0-0.6,0-1,0c-0.1,0-0.2,0-0.3,0.1c-0.1,0.1-0.3,0.1-0.4,0.1c0,0-0.1,0-0.1,0c-0.3,0.1-0.6,0.3-0.8,0.4
		c-0.3,0.2-0.6,0.5-0.9,0.8c-0.3,0.4-0.6,0.8-0.7,1.3c0,0,0,0.1,0,0.1c-0.1,0.1-0.1,0.2-0.1,0.3c0,0.2,0,0.3-0.1,0.5
		c0,0.2-0.1,0.4-0.1,0.6c0,0.6,0,1.3,0,1.9c0,0.3,0,0.6-0.2,0.9c-0.1,0.3-0.3,0.5-0.5,0.7c-0.2,0.1-0.3,0.3-0.5,0.3
		c-0.2,0.1-0.4,0.2-0.6,0.2c0,0,0,0-0.1,0c-0.2,0.1-0.4,0.2-0.6,0.2c-0.1,0.1-0.2,0.1-0.3,0.2c-0.2,0-0.4,0.2-0.5,0.3
		c-0.1,0-0.2,0.1-0.3,0.2c-0.2,0.2-0.5,0.3-0.7,0.4c-0.3,0.2-0.6,0.4-0.9,0.6c-0.3,0.2-0.7,0.5-1,0.7c-0.2,0.2-0.4,0.3-0.6,0.5
		c-0.2,0.2-0.4,0.3-0.6,0.4c0,0-0.1,0-0.1,0.1c-0.1,0-0.1,0.1-0.2,0.1c-0.4,0-0.8,0.1-1.2-0.1c-0.3-0.1-0.5-0.3-0.8-0.4
		c-0.1-0.1-0.3-0.2-0.4-0.2c-0.3-0.2-0.5-0.3-0.8-0.5c-0.2-0.1-0.3-0.2-0.5-0.2c0,0-0.1,0-0.1-0.1c0,0-0.1-0.1-0.2-0.1
		c-0.1,0-0.3-0.1-0.4-0.1c0,0-0.1,0-0.2,0c-0.4,0-0.8-0.1-1.2,0c-0.3,0-0.5,0-0.8,0.1c0,0-0.1,0-0.1,0c-0.1,0-0.1,0-0.2,0
		c-0.2,0.1-0.5,0.2-0.7,0.4c-0.3,0.2-0.6,0.5-0.9,0.8c-0.2,0.3-0.4,0.5-0.6,0.8c-0.1,0.1-0.1,0.3-0.2,0.4c-0.1,0.1-0.1,0.3-0.1,0.4
		c0,0.1,0,0.2-0.1,0.2c-0.2,0.4-0.1,0.9,0,1.3c0.1,0.3,0.1,0.6,0.2,0.8c0.1,0.2,0.2,0.5,0.3,0.7c0.1,0.1,0.2,0.2,0.2,0.3
		c0.1,0.2,0.3,0.4,0.5,0.6c0.2,0.2,0.4,0.3,0.7,0.5c0.1,0.1,0.2,0.2,0.3,0.2c0.2,0.1,0.3,0.2,0.4,0.2c0.3,0.2,0.7,0.4,1,0.6
		c0.4,0.3,0.8,0.6,1,1.1c0,0,0,0,0,0.1c0.1,0.1,0.1,0.2,0.1,0.3c0,0.2,0,0.4,0,0.6c0,0.1,0,0.2-0.1,0.3c0,0.1-0.1,0.2-0.1,0.3
		c0,0.3,0,0.6-0.1,0.9c0,0.2-0.1,0.3-0.1,0.5c0,0.9,0,1.8,0,2.7c0,0.2,0,0.3,0.1,0.5c0.1,0.2,0.1,0.3,0.1,0.5c0,0.2,0,0.5,0.1,0.7
		c0.1,0.3,0.1,0.7,0.1,1c0,0,0,0.1,0,0.1c-0.1,0.2-0.1,0.4-0.2,0.6c-0.2,0.3-0.4,0.5-0.7,0.7c-0.2,0.1-0.5,0.3-0.7,0.4
		c-0.3,0.2-0.7,0.4-1,0.6c-0.5,0.3-0.9,0.6-1.2,1c-0.1,0.1-0.2,0.2-0.2,0.3c-0.2,0.2-0.3,0.5-0.4,0.8c-0.1,0.2-0.1,0.4-0.2,0.6
		c0,0,0,0.1,0,0.1c-0.1,0.2-0.1,0.3-0.1,0.5c0,0.1,0,0.3,0,0.4c0,0.2,0,0.4,0.1,0.5c0.1,0.3,0.1,0.5,0.2,0.8c0,0,0,0.1,0,0.1
		c0,0,0,0.1,0,0.1c0.2,0.2,0.3,0.5,0.4,0.7c0.3,0.4,0.6,0.7,0.9,0.9c0.3,0.2,0.7,0.5,1.1,0.5c0,0,0,0,0.1,0c0.2,0.1,0.4,0.1,0.6,0.1
		c0.1,0,0.1,0,0.2,0c0.4,0.1,0.8,0,1.1,0c0.2,0,0.3-0.1,0.5-0.2c0.2,0,0.4-0.1,0.5-0.2c0.1-0.1,0.2-0.1,0.4-0.2
		c0.1-0.1,0.3-0.2,0.4-0.3c0.1-0.1,0.3-0.2,0.4-0.2c0.2-0.1,0.5-0.3,0.7-0.4c0.1-0.1,0.3-0.2,0.4-0.2c0,0,0,0,0.1,0
		c0.1-0.1,0.2-0.1,0.3-0.1c0.4,0,0.8,0,1.1,0.1c0.1,0.1,0.3,0.1,0.4,0.2c0.4,0.3,0.7,0.6,1.1,0.9c0.2,0.1,0.3,0.3,0.5,0.4
		c0.3,0.2,0.6,0.4,0.9,0.6c0.3,0.2,0.6,0.4,1,0.6c0.1,0.1,0.2,0.1,0.4,0.2c0.2,0.1,0.3,0.2,0.5,0.2c0.2,0.1,0.5,0.2,0.7,0.3
		c0,0,0,0,0.1,0c0.2,0.1,0.4,0.1,0.6,0.2c0.2,0.1,0.4,0.2,0.5,0.3c0.2,0.1,0.4,0.4,0.5,0.6c0.1,0.2,0.2,0.3,0.2,0.5
		c0,0.3,0.1,0.7,0.1,1c0,0.9,0,1.7,0.1,2.6c0,0.1,0,0.2,0.1,0.3c0,0,0.1,0.1,0.1,0.2c0,0.2,0.1,0.4,0.2,0.6c0.2,0.3,0.4,0.6,0.6,0.9
		c0.3,0.3,0.6,0.5,0.9,0.7c0.1,0.1,0.2,0.2,0.4,0.2c0.2,0.1,0.4,0.2,0.6,0.2c0,0,0.1,0,0.1,0c0.1,0.1,0.2,0.1,0.4,0.1
		c0.1,0,0.1,0,0.2,0c0.4,0,0.7,0,1.1,0c0.3-0.1,0.6-0.1,0.8-0.2c0.3-0.1,0.5-0.3,0.8-0.4c0.4-0.3,0.8-0.7,1.1-1.1
		c0.1-0.1,0.1-0.2,0.2-0.3c0.1-0.2,0.2-0.4,0.2-0.6c0,0,0,0,0,0c0.1-0.1,0.1-0.2,0.1-0.4c0-0.1,0-0.2,0-0.2c0.1-0.4,0.1-0.8,0.1-1.1
		C35.7,50,35.7,49.8,35.7,49.6z"/>
	<path class="st0" d="M22.5,30.6c0-0.1,0-0.3,0-0.5c0.1-0.3,0-0.6,0.1-0.9c0-0.2,0.1-0.3,0.1-0.5c0-0.2,0-0.3,0.1-0.5
		c0,0,0-0.1,0-0.2c0,0,0-0.1,0-0.1c0.1-0.2,0.1-0.4,0.2-0.5c0.1-0.2,0.2-0.5,0.3-0.7c0.1-0.1,0.1-0.3,0.2-0.4
		c0.1-0.2,0.3-0.4,0.4-0.6c0.3-0.4,0.6-0.8,0.9-1.2c0.3-0.4,0.7-0.7,1.1-1c0.3-0.2,0.5-0.4,0.8-0.6c0.2-0.1,0.5-0.3,0.7-0.4
		c0.2-0.1,0.3-0.2,0.5-0.2c0.2-0.1,0.4-0.2,0.6-0.3c0.2-0.1,0.5-0.1,0.7-0.2c0.1-0.1,0.3-0.1,0.4-0.1c0.1,0,0.2,0,0.2,0
		c0.2-0.1,0.4-0.1,0.6-0.1c0.3,0,0.5,0,0.7-0.1c0.3-0.1,0.5,0,0.8,0c0.3,0.1,0.6,0.1,0.9,0.1c0.2,0,0.3,0,0.5,0.1c0.1,0,0.1,0,0.2,0
		c0.2,0,0.3,0,0.5,0.1c0,0,0,0,0,0c0.3,0,0.5,0.2,0.7,0.2c0.2,0,0.3,0.1,0.5,0.2c0.2,0.1,0.4,0.2,0.6,0.3c0.2,0.1,0.4,0.2,0.6,0.4
		c0.1,0.1,0.2,0.1,0.3,0.2c0.7,0.5,1.2,1,1.8,1.6c0.2,0.2,0.3,0.4,0.5,0.7c0.2,0.3,0.4,0.5,0.5,0.8c0.1,0.3,0.3,0.6,0.4,0.9
		c0.1,0.2,0.1,0.4,0.3,0.6c0,0.1,0,0.1,0,0.2c0,0,0,0.1,0,0.1c0.1,0.2,0.1,0.4,0.1,0.5c0,0.1,0,0.2,0.1,0.3c0.1,0.2,0.1,0.3,0.1,0.5
		c0,0.4,0.1,0.7,0.1,1.1c0,0.2,0,0.4,0,0.5c0,0.2-0.1,0.5-0.1,0.7c0,0.2,0,0.5-0.1,0.7c0,0,0,0,0,0.1c0,0.3-0.2,0.6-0.2,0.9
		c0,0.1,0,0.1-0.1,0.2c0,0,0,0.1,0,0.1c0,0.2-0.1,0.4-0.2,0.6c-0.1,0.2-0.1,0.3-0.2,0.5c-0.1,0.2-0.2,0.3-0.3,0.5
		c-0.1,0.1-0.1,0.2-0.2,0.3c-0.1,0.1-0.2,0.3-0.3,0.4c-0.2,0.3-0.5,0.7-0.8,1c-0.4,0.4-0.8,0.8-1.2,1.1c-0.3,0.2-0.6,0.4-0.9,0.6
		c-0.2,0.1-0.3,0.2-0.5,0.2c-0.1,0.1-0.3,0.1-0.4,0.2c-0.2,0.1-0.5,0.2-0.8,0.3c-0.1,0-0.1,0-0.2,0c-0.1,0-0.2,0-0.3,0.1
		c-0.1,0-0.1,0.1-0.2,0.1c-0.2,0-0.3,0.1-0.5,0.1c-0.2,0.1-0.4,0.1-0.6,0.1c-0.2,0-0.5,0-0.7,0.1c-0.3,0-0.6,0-0.8,0
		c-0.2,0-0.4,0-0.5-0.1c-0.3,0-0.6,0-0.9-0.1c-0.1,0-0.2,0-0.2,0c-0.1,0-0.3,0-0.4-0.1c0,0-0.1,0-0.1,0c-0.1,0-0.3-0.1-0.4-0.1
		c-0.2-0.1-0.4-0.1-0.5-0.2c-0.2-0.1-0.4-0.2-0.6-0.3c-0.1-0.1-0.3-0.1-0.4-0.2c-0.4-0.2-0.8-0.5-1.1-0.8c-0.2-0.2-0.4-0.3-0.6-0.5
		c-0.2-0.2-0.4-0.3-0.5-0.5c-0.3-0.3-0.6-0.7-0.8-1c-0.1-0.2-0.3-0.4-0.4-0.6c-0.1-0.2-0.3-0.5-0.4-0.8c-0.1-0.1-0.1-0.3-0.2-0.4
		c-0.1-0.2-0.2-0.5-0.2-0.7c0,0,0-0.1,0-0.1c-0.1-0.2-0.1-0.4-0.1-0.6c0-0.2-0.1-0.3-0.1-0.5c0-0.1,0-0.2,0-0.3c0-0.2,0-0.4,0-0.6
		C22.5,31,22.5,30.8,22.5,30.6z M36.8,30.7c0-0.3,0-0.6,0-0.8c0-0.1,0-0.2-0.1-0.3c-0.1-0.1-0.1-0.2-0.1-0.3c0-0.2-0.1-0.4-0.2-0.6
		c-0.1-0.2-0.2-0.4-0.3-0.6c-0.2-0.3-0.3-0.5-0.5-0.8c-0.3-0.4-0.7-0.7-1.2-1c0,0-0.1,0-0.1,0c-0.2-0.1-0.3-0.2-0.5-0.3
		c-0.2-0.1-0.4-0.1-0.6-0.2c0,0,0,0-0.1,0c-0.2,0-0.3,0-0.4-0.1c0,0-0.1,0-0.1,0c-0.2,0-0.5,0-0.7,0c-0.3,0-0.6,0-0.8,0
		c-0.3,0-0.6,0.2-0.9,0.2c0,0,0,0-0.1,0c-0.1,0.1-0.2,0.1-0.3,0.1c0,0-0.1,0-0.1,0c-0.1,0.1-0.3,0.2-0.4,0.2
		c-0.2,0.1-0.4,0.3-0.6,0.4c-0.1,0.1-0.2,0.1-0.2,0.2c-0.3,0.2-0.5,0.5-0.7,0.8c-0.3,0.4-0.5,0.7-0.6,1.2c0,0,0,0.1,0,0.1
		c-0.1,0.1-0.1,0.2-0.1,0.3c0,0.1,0,0.2-0.1,0.3c0,0.1,0,0.1,0,0.2c0,0.3-0.1,0.7,0,1c0,0.1,0,0.3,0,0.4c0,0.2,0,0.4,0.1,0.6
		c0,0,0,0.1,0,0.1c0,0.3,0.1,0.5,0.2,0.7c0.1,0.2,0.2,0.4,0.3,0.6c0.2,0.3,0.4,0.6,0.7,0.9c0.3,0.3,0.6,0.5,0.9,0.7
		c0.1,0.1,0.2,0.1,0.3,0.2c0.2,0.1,0.3,0.2,0.5,0.3c0.2,0.1,0.5,0.2,0.7,0.2c0,0,0,0,0.1,0c0.2,0.1,0.3,0.1,0.5,0.1
		c0.5,0,0.9,0,1.4,0c0.1,0,0.2,0,0.3-0.1c0.3-0.1,0.6-0.1,0.8-0.3c0,0,0.1,0,0.1,0c0,0,0.1,0,0.1,0c0.2-0.1,0.4-0.2,0.5-0.3
		c0.3-0.2,0.5-0.3,0.8-0.6c0.4-0.3,0.7-0.7,1-1.1c0.1-0.2,0.2-0.3,0.3-0.5c0,0,0-0.1,0.1-0.1c0.1-0.2,0.2-0.4,0.2-0.7
		c0-0.1,0-0.2,0.1-0.3c0-0.1,0.1-0.2,0.1-0.3C36.8,31.2,36.8,30.9,36.8,30.7z"/>
</g>
<image style="overflow:visible;" width="3264" height="3264" xlink:href="20260224_051433.png"  transform="matrix(2.811047e-03 0 0 2.402393e-03 132.6933 10.8904)">
</image>
<image style="overflow:visible;" width="3264" height="3264" xlink:href="20260224_051527.png"  transform="matrix(2.368860e-03 0 0 2.024488e-03 145.1675 11.6834)">
</image>
<image style="overflow:visible;" width="1280" height="1280" xlink:href="20260224_050539.png"  transform="matrix(8.537371e-03 0 0 7.296255e-03 143.5181 25.8684)">
</image>
<image style="overflow:visible;" width="3264" height="3264" xlink:href="20260224_055528.png"  transform="matrix(9.475440e-05 0 0 8.097953e-05 125.0644 38.9961)">
</image>
<image style="overflow:visible;" width="3264" height="3264" xlink:href="20260224_061142.png"  transform="matrix(2.447822e-03 0 0 2.091971e-03 155.0129 21.2869)">
</image>
<image style="overflow:visible;" width="3264" height="3264" xlink:href="20260224_061209.png"  transform="matrix(2.242521e-03 0 0 1.916516e-03 155.0129 10.8904)">
</image>
<image style="overflow:visible;" width="3264" height="3264" xlink:href="20260224_061245.png"  transform="matrix(1.389731e-03 0 0 1.187700e-03 162.2809 37.5865)">
</image>
</svg>
