<?xml version="1.0" encoding="utf-8"?>
<!-- Generator: Adobe Illustrator 28.2.0, SVG Export Plug-In . SVG Version: 6.00 Build 0)  -->
<svg version="1.1" id="Layer_1" xmlns="http://www.w3.org/2000/svg" xmlns:xlink="http://www.w3.org/1999/xlink" x="0px" y="0px"
	 viewBox="0 0 64 64" style="enable-background:new 0 0 64 64;" xml:space="preserve">
<style type="text/css">
	.st0{fill:#56BF92;}
</style>
<image style="overflow:visible;" width="3264" height="3264" xlink:href="20260224_050908.png"  transform="matrix(1.531863e-02 0 0 1.531863e-02 1632.4286 1607.4286)">
</image>
<image style="overflow:visible;" width="3264" height="3264" xlink:href="20260224_050713.png"  transform="matrix(1.926673e-03 0 0 1.646584e-03 106.817 2.3442)">
</image>
<image style="overflow:visible;" width="3264" height="3264" xlink:href="20260224_050814.png"  transform="matrix(2.463614e-03 0 0 2.105468e-03 116.7139 1.375)">
</image>
<image style="overflow:visible;" width="3264" height="3264" xlink:href="20260224_050908.png"  transform="matrix(1.958258e-03 0 0 1.673577e-03 131.3531 1.375)">
</image>
<image style="overflow:visible;" width="3264" height="3264" xlink:href="20260224_050959.png"  transform="matrix(1.958258e-03 0 0 1.673577e-03 141.0438 1.9917)">
</image>
<image style="overflow:visible;" width="3264" height="3264" xlink:href="20260224_051042.png"  transform="matrix(2.463614e-03 0 0 2.105468e-03 149.4974 1.375)">
</image>
<image style="overflow:visible;" width="3264" height="3264" xlink:href="20260224_051146.png"  transform="matrix(2.147766e-03 0 0 1.835536e-03 158.7758 1.9917)">
</image>
<image style="overflow:visible;" width="3264" height="3264" xlink:href="20260224_051253.png"  transform="matrix(2.747878e-03 0 0 2.348406e-03 108.982 10.8904)">
</image>
<image style="overflow:visible;" width="3264" height="3264" xlink:href="20260224_051400.png"  transform="matrix(2.842632e-03 0 0 2.429386e-03 121.25 10.8904)">
</image>
<image style="overflow:visible;" width="3264" height="3264" xlink:href="20260224_051433.png"  transform="matrix(2.811047e-03 0 0 2.402393e-03 132.6933 10.8904)">
</image>
<image style="overflow:visible;" width="3264" height="3264" xlink:href="20260224_051527.png"  transform="matrix(2.368860e-03 0 0 2.024488e-03 145.1675 11.6834)">
</image>
<image style="overflow:visible;" width="3264" height="3264" xlink:href="20260224_051749.png"  transform="matrix(3.442743e-03 0 0 2.942256e-03 125.8892 25.2517)">
</image>
<image style="overflow:visible;" width="1280" height="1280" xlink:href="20260224_050539.png"  transform="matrix(8.537371e-03 0 0 7.296255e-03 143.5181 25.8684)">
</image>
<g>
	<path class="st0" d="M40.8,41.3c-0.7,0-1.3,0-1.9,0c-0.5,0-1,0-1.5,0.1c-0.3,0-0.5,0.1-0.8,0.1c-0.7,0.1-1.3,0.4-1.8,0.8
		c-0.3,0.3-0.6,0.6-0.7,1c-0.1,0.3-0.2,0.7-0.3,1c0,0.2,0,0.5,0,0.7c0.1,0.3,0.2,0.6,0.3,0.9c0.2,0.3,0.3,0.6,0.5,1
		c0.3,0.5,0.5,0.9,0.8,1.4c0.2,0.5,0.4,1.1,0.4,1.6c0,0.3-0.1,0.5-0.2,0.8c-0.3,0.8-0.8,1.4-1.4,2c-0.3,0.3-0.7,0.5-1,0.6
		c-0.2,0.1-0.5,0.2-0.8,0.3c-0.5,0.1-1,0.3-1.5,0.3c-0.4,0-0.8,0-1.2,0c-0.2,0-0.4,0-0.7-0.1c-0.2,0-0.4,0-0.6-0.1
		c-0.4-0.1-0.9-0.1-1.3-0.3c-0.3-0.1-0.6-0.2-0.9-0.2c-0.4-0.1-0.7-0.2-1.1-0.4c-0.3-0.1-0.6-0.2-0.9-0.4c-0.7-0.3-1.4-0.7-2.1-1
		c-0.5-0.3-1-0.5-1.4-0.8c-0.3-0.2-0.6-0.4-0.9-0.6c-0.4-0.3-0.8-0.5-1.2-0.8c-0.5-0.4-1.1-0.8-1.6-1.3c-0.3-0.3-0.7-0.6-1-0.9
		c-0.1-0.1-0.2-0.2-0.3-0.3c-0.4-0.5-0.8-0.9-1.2-1.4c-0.6-0.9-1.2-1.8-1.7-2.8c-0.1-0.3-0.3-0.5-0.4-0.8c-0.2-0.5-0.4-1-0.6-1.6
		c-0.1-0.4-0.3-0.8-0.4-1.2c-0.1-0.2-0.1-0.4-0.2-0.6c0-0.1-0.1-0.3-0.1-0.4c-0.1-0.5-0.2-0.9-0.3-1.4c-0.1-0.4-0.1-0.8-0.2-1.2
		c0-0.2-0.1-0.5-0.1-0.7c0-0.1,0-0.1,0-0.2c0-0.8-0.1-1.5,0-2.3c0-0.6,0-1.2,0.1-1.8c0-0.4,0.1-0.8,0.1-1.1c0-0.3,0.1-0.6,0.2-0.9
		c0-0.2,0.1-0.5,0.2-0.7c0-0.2,0.1-0.4,0.2-0.6c0.1-0.2,0.1-0.4,0.1-0.5c0.1-0.4,0.3-0.9,0.4-1.3c0.1-0.3,0.2-0.6,0.4-1
		c0.1-0.3,0.2-0.5,0.3-0.8c0.3-0.6,0.6-1.2,0.9-1.8c0.4-0.7,0.8-1.3,1.3-2c0.4-0.6,0.9-1.1,1.3-1.6c0.4-0.4,0.7-0.8,1.1-1.1
		c0.6-0.6,1.3-1.2,2-1.7c0.2-0.2,0.4-0.3,0.7-0.5c0.4-0.3,0.9-0.6,1.3-0.8c0.6-0.3,1.2-0.6,1.8-0.9c0.3-0.1,0.6-0.3,0.9-0.4
		c0.4-0.2,0.9-0.4,1.3-0.5c0.4-0.1,0.8-0.3,1.2-0.4c0.2-0.1,0.4-0.1,0.6-0.2c0.2-0.1,0.4-0.1,0.6-0.1c0.4-0.1,0.7-0.2,1.1-0.2
		c0.3,0,0.7-0.1,1-0.2c0.5-0.1,0.9-0.1,1.4-0.2c0.2,0,0.5,0,0.8,0c0.6,0,1.3,0,1.9,0c0.4,0,0.9,0,1.3,0.1c0.2,0,0.3,0,0.5,0
		c0.3,0,0.6,0.1,0.9,0.1c0.5,0.1,1,0.2,1.4,0.3c0.2,0.1,0.4,0.1,0.7,0.1c0.2,0,0.3,0.1,0.5,0.1c0.4,0.1,0.8,0.3,1.2,0.4
		c0.4,0.1,0.9,0.3,1.3,0.5c0.6,0.2,1.2,0.5,1.8,0.8c0.7,0.4,1.3,0.8,2,1.2c0.6,0.4,1.1,0.8,1.6,1.2c0.4,0.4,0.8,0.7,1.2,1.1
		c0.3,0.3,0.5,0.6,0.8,0.9c0.5,0.5,0.9,1.1,1.3,1.7c0.4,0.6,0.8,1.2,1.2,1.9c0.2,0.3,0.3,0.6,0.5,0.9c0.2,0.5,0.4,0.9,0.6,1.4
		c0.1,0.3,0.2,0.6,0.4,1c0.1,0.3,0.2,0.6,0.3,1c0.1,0.4,0.2,0.7,0.3,1.1c0.1,0.3,0.1,0.7,0.2,1c0,0.3,0.1,0.6,0.1,0.9
		c0,0.2,0,0.4,0,0.6c0,0.5,0,1.1,0,1.6c0,0.2-0.1,0.4-0.1,0.6c0,0.4-0.1,0.9-0.3,1.3c-0.1,0.4-0.2,0.8-0.4,1.2
		c-0.2,0.4-0.3,0.8-0.6,1.2c-0.2,0.3-0.4,0.7-0.6,1c-0.2,0.2-0.3,0.4-0.5,0.7c-0.5,0.6-1,1.1-1.5,1.6c-0.5,0.4-0.9,0.7-1.4,1
		c-0.3,0.2-0.7,0.4-1,0.6c-0.4,0.2-0.9,0.4-1.3,0.6c-0.4,0.2-0.8,0.3-1.2,0.4c-0.5,0.1-1,0.2-1.5,0.3C42.5,41.3,41.6,41.2,40.8,41.3
		z M26.4,15.6c-1.9,0-3.4,1.5-3.4,3.3c0,1.9,1.5,3.5,3.4,3.5c1.9,0,3.3-1.5,3.4-3.3C29.8,17.2,28.2,15.6,26.4,15.6z M39,15.3
		c-0.4,0-0.8,0.1-1.2,0.3c-0.7,0.3-1.3,0.8-1.7,1.6c-0.2,0.5-0.4,0.9-0.4,1.5c0,0.9,0.3,1.8,0.9,2.5c0.1,0.1,0.3,0.3,0.4,0.4
		c0.4,0.3,0.9,0.5,1.5,0.6c0.6,0.1,1.2,0,1.8-0.2c0.6-0.2,1-0.6,1.4-1c0.3-0.3,0.5-0.7,0.6-1.1c0.1-0.2,0.1-0.4,0.1-0.6
		c0.1-0.4,0.1-0.9-0.1-1.3c-0.1-0.4-0.3-0.8-0.5-1.1c-0.2-0.3-0.5-0.7-0.9-0.9C40.4,15.5,39.8,15.3,39,15.3z M18.2,30.7
		c1.8,0,3.4-1.5,3.4-3.5c0-1.8-1.5-3.3-3.4-3.3c-1.9,0-3.4,1.5-3.4,3.4C14.8,29.2,16.3,30.8,18.2,30.7z M45.6,24.7
		c-1.9,0-3.4,1.5-3.4,3.3c0,1.9,1.5,3.4,3.3,3.4c1.9,0.1,3.5-1.5,3.5-3.3C49,26.3,47.5,24.7,45.6,24.7z"/>
</g>
<image style="overflow:visible;" width="3264" height="3264" xlink:href="20260224_055528.png"  transform="matrix(9.475440e-05 0 0 8.097953e-05 125.0644 38.9961)">
</image>
<image style="overflow:visible;" width="3264" height="3264" xlink:href="20260224_055640.png"  transform="matrix(2.653123e-03 0 0 2.267427e-03 124.7552 38.9961)">
</image>
<image style="overflow:visible;" width="3264" height="3264" xlink:href="20260224_061042.png"  transform="matrix(3.111103e-03 0 0 2.658828e-03 137.2809 38.3794)">
</image>
<image style="overflow:visible;" width="3264" height="3264" xlink:href="20260224_061116.png"  transform="matrix(3.379574e-03 0 0 2.888270e-03 149.4974 37.9389)">
</image>
<image style="overflow:visible;" width="3264" height="3264" xlink:href="20260224_061142.png"  transform="matrix(2.447822e-03 0 0 2.091971e-03 155.0129 21.2869)">
</image>
<image style="overflow:visible;" width="3264" height="3264" xlink:href="20260224_061209.png"  transform="matrix(2.242521e-03 0 0 1.916516e-03 155.0129 10.8904)">
</image>
<image style="overflow:visible;" width="3264" height="3264" xlink:href="20260224_061245.png"  transform="matrix(1.389731e-03 0 0 1.187700e-03 162.2809 37.5865)">
</image>
<image style="overflow:visible;" width="3264" height="3264" xlink:href="20260224_061400.png"  transform="matrix(2.116181e-03 0 0 1.808543e-03 110.5284 52.8287)">
</image>
<image style="overflow:visible;" width="3264" height="3264" xlink:href="20260224_061701.png"  transform="matrix(2.803151e-03 0 0 1.822039e-03 144.9227 50.2737)">
</image>
<image style="overflow:visible;" width="3264" height="3264" xlink:href="20260224_061723.png"  transform="matrix(4.406080e-03 0 0 2.996243e-03 133.4149 51.5953)">
</image>
<image style="overflow:visible;" width="3264" height="3264" xlink:href="iconPetal004.png"  transform="matrix(1.831918e-03 0 0 1.565604e-03 119.8067 50.2737)">
</image>
</svg>
