<?xml version="1.0" encoding="utf-8"?>
<!-- Generator: Adobe Illustrator 28.2.0, SVG Export Plug-In . SVG Version: 6.00 Build 0)  -->
<svg version="1.1" id="Layer_1" xmlns="http://www.w3.org/2000/svg" xmlns:xlink="http://www.w3.org/1999/xlink" x="0px" y="0px"
	 viewBox="0 0 64 64" style="enable-background:new 0 0 64 64;" xml:space="preserve">
<style type="text/css">
	.st0{fill:#56BF92;}
</style>
<image style="overflow:visible;" width="3264" height="3264" xlink:href="20260224_050908.png"  transform="matrix(1.531863e-02 0 0 1.531863e-02 1632.4286 1607.4286)">
</image>
<g>
	<path class="st0" d="M33.6,35.3c-4.2,0-8.3,0-12.5,0c-0.1,0-0.2,0-0.2,0c-0.2,0-0.3,0.1-0.2,0.3c0,0.2,0.1,0.3,0.1,0.5
		c0,0.3,0.1,0.5,0.1,0.8c0,0.4,0.2,0.8,0.2,1.2c0,0.4,0.1,0.7,0.3,1.1c0.1,0.2,0.2,0.4,0.4,0.5c0.1,0.1,0.3,0.3,0.4,0.3
		c0.2,0.1,0.4,0.2,0.6,0.3c0,0,0.1,0,0.1,0c0.1,0.1,0.3,0.1,0.4,0.1c0.1,0,0.3,0,0.4,0c8,0,16.1,0,24.1,0c0.5,0,1,0.2,1.3,0.7
		c0.1,0.2,0.2,0.4,0.2,0.6c0,0.1,0,0.2,0,0.2c-0.1,0.2-0.2,0.5-0.3,0.7c-0.1,0.2-0.3,0.3-0.5,0.4C48.3,43,48.1,43,47.8,43
		c-8,0-16,0-24,0c-0.3,0-0.5-0.1-0.8-0.1c-0.1,0-0.1,0-0.2,0c-0.2,0-0.4,0-0.5-0.1c-0.1,0-0.1-0.1-0.2-0.1c0,0-0.1,0-0.1,0
		c-0.3-0.2-0.7-0.3-1-0.5c-0.3-0.2-0.6-0.4-0.9-0.7c-0.3-0.3-0.6-0.7-0.8-1.1c-0.1-0.2-0.2-0.4-0.3-0.6c-0.1-0.2-0.2-0.4-0.2-0.7
		c0,0,0,0,0-0.1c-0.1-0.4-0.1-0.7-0.2-1.1c0,0,0-0.1,0-0.1c0-0.2-0.1-0.5-0.1-0.7c0-0.1,0-0.1,0-0.2c0,0,0-0.1,0-0.1
		c-0.1-0.4-0.1-0.7-0.2-1.1c0,0,0,0,0,0c-0.1-0.4-0.2-0.8-0.2-1.2c0,0,0,0,0,0c-0.1-0.4-0.1-0.7-0.2-1.1c0,0,0,0,0,0
		c-0.1-0.4-0.1-0.8-0.2-1.1c0-0.1,0-0.1,0-0.2c0-0.2-0.1-0.4-0.1-0.6C17,31,17,30.6,16.8,30.2c0,0,0-0.1,0-0.1c0-0.2,0-0.4-0.1-0.6
		c0-0.1,0-0.2-0.1-0.3c0-0.1,0-0.1,0-0.2c-0.1-0.3-0.1-0.5-0.2-0.8c-0.1-0.3-0.1-0.7-0.2-1.1c0-0.1-0.1-0.2-0.1-0.3c0,0,0,0,0,0
		C16,26.4,16,26,15.9,25.6c0-0.1,0-0.1,0-0.2c0-0.2,0-0.3-0.1-0.5c-0.1-0.1,0-0.3-0.1-0.4c0,0,0,0,0-0.1c-0.1-0.3-0.1-0.7-0.2-1
		c0,0,0-0.1,0-0.1c0-0.4-0.2-0.7-0.2-1.1c0-0.1,0-0.2-0.1-0.3c0,0,0-0.1,0-0.1c0-0.4-0.2-0.7-0.2-1.1c0,0,0,0,0,0
		c-0.1-0.4-0.1-0.8-0.3-1.2c0,0,0,0,0,0c0-0.4-0.2-0.7-0.2-1.1c0-0.1,0-0.2-0.1-0.3c0,0,0-0.1,0-0.1c0-0.4-0.2-0.8-0.2-1.2
		c0-0.1,0-0.1,0-0.2C14,16.4,14,16.2,13.9,16c-0.1-0.4-0.2-0.8-0.7-1c-0.2-0.1-0.4-0.2-0.6-0.2c-1,0-2,0-3,0c-0.4,0-0.8-0.2-1-0.5
		c-0.2-0.3-0.3-0.6-0.3-1c0-0.4,0.3-0.7,0.6-0.9c0.2-0.2,0.5-0.2,0.8-0.2c1,0,2,0,2.9,0c0.3,0,0.7,0,1,0.1c0.9,0.2,1.6,0.7,2.1,1.4
		c0.2,0.2,0.3,0.4,0.4,0.7c0,0,0,0,0,0c0.1,0.2,0.2,0.3,0.5,0.3c11.6,0,23.1,0,34.7,0c0.2,0,0.5,0,0.7,0c0.2,0,0.4,0.1,0.6,0.2
		c0.3,0.1,0.6,0.3,0.8,0.6c0.2,0.2,0.3,0.4,0.4,0.7c0.2,0.3,0.2,0.6,0.3,0.8c0.1,0.2,0.1,0.5,0,0.7c0,0.2-0.1,0.3-0.1,0.5
		c0,0.1,0,0.1-0.1,0.2c0,0,0,0.1,0,0.1c0,0.3-0.1,0.6-0.2,0.9c-0.1,0.3-0.2,0.7-0.2,1c-0.1,0.3-0.1,0.6-0.2,0.9c0,0.1,0,0.3-0.1,0.4
		c0,0,0,0,0,0c-0.1,0.3-0.2,0.6-0.2,1c0,0.1,0,0.1-0.1,0.2c0,0,0,0.1,0,0.1c0,0.3-0.2,0.6-0.2,0.9c0,0.2-0.1,0.3-0.1,0.5
		c0,0.3-0.2,0.6-0.2,0.9c-0.1,0.3-0.1,0.6-0.2,0.9c0,0,0,0,0,0c0,0.3-0.2,0.6-0.2,1c0,0.1,0,0.1,0,0.2c0,0,0,0.1-0.1,0.1
		c0,0.3-0.2,0.6-0.2,0.9c0,0.2-0.1,0.4-0.2,0.6c0,0.3-0.1,0.5-0.2,0.8c-0.1,0.4-0.2,0.8-0.3,1.3c-0.1,0.2-0.1,0.4-0.2,0.6
		c-0.1,0.3-0.2,0.6-0.4,0.9c-0.2,0.3-0.3,0.6-0.5,0.8c-0.3,0.4-0.6,0.7-1,0.9c-0.2,0.1-0.3,0.3-0.5,0.4c-0.2,0.1-0.3,0.2-0.5,0.3
		c-0.2,0.1-0.5,0.1-0.7,0.2c0,0-0.1,0-0.1,0c-0.2,0-0.4,0.1-0.6,0.1c-0.1,0-0.2,0-0.3,0c-1.4,0-2.8,0-4.2,0
		C39.1,35.3,36.3,35.3,33.6,35.3z M34.2,17.4c-5.6,0-11.3,0-16.9,0c-0.1,0-0.2,0-0.2,0c-0.1,0-0.1,0-0.1,0.1c0,0.1,0,0.3,0.1,0.4
		c0,0.1,0.1,0.3,0.1,0.4c0.1,0.4,0.2,0.7,0.2,1.1c0,0,0,0,0,0c0.1,0.2,0.1,0.4,0.1,0.6c0,0.1,0,0.1,0,0.2c0.1,0.1,0.1,0.3,0.1,0.4
		c0,0.2,0.1,0.4,0.1,0.6c0,0.1,0,0.2,0,0.2c0,0.1,0,0.2,0,0.3c0.1,0.2,0.1,0.4,0.1,0.6c0,0.1,0,0.2,0.1,0.3c0,0.1,0.1,0.3,0.1,0.4
		c0,0.1,0,0.2,0,0.2c0.1,0.2,0.1,0.4,0.1,0.6c0,0.2,0.1,0.5,0.2,0.7c0,0.1,0,0.1,0,0.2c0.1,0.4,0.1,0.8,0.3,1.2c0,0.1,0,0.3,0.1,0.4
		c0.1,0.2,0.1,0.4,0.1,0.6c0,0.2,0.1,0.3,0.1,0.5c0,0.4,0.2,0.8,0.2,1.2c0,0,0,0.1,0,0.1c0.1,0.1,0.1,0.3,0.1,0.4c0,0.1,0,0.2,0,0.3
		c0.1,0.2,0.1,0.4,0.1,0.6c0,0.2,0.1,0.4,0.2,0.7c0,0.1,0,0.2,0,0.3c0.1,0.2,0.1,0.4,0.1,0.5c0,0.1,0,0.1,0,0.2
		c0.1,0.2,0.1,0.4,0.1,0.6c0,0.2,0.1,0.3,0.3,0.3c0,0,0.1,0,0.1,0c8.4,0,16.8,0,25.3,0c0.2,0,0.4,0,0.6-0.1c0.1,0,0.1,0,0.2,0
		c0.2-0.1,0.4-0.1,0.5-0.3c0.2-0.1,0.4-0.3,0.6-0.5c0.2-0.2,0.4-0.4,0.4-0.7c0,0,0,0,0-0.1c0.1-0.1,0.1-0.2,0.1-0.3
		c0-0.1,0-0.1,0-0.2c0.1-0.1,0.1-0.3,0.1-0.4c0-0.1,0-0.1,0-0.2c0.1-0.3,0.1-0.6,0.2-0.9c0-0.1,0-0.2,0.1-0.3c0-0.1,0-0.1,0-0.2
		c0.1-0.1,0.1-0.3,0.1-0.4c0-0.1,0-0.1,0-0.2c0.1-0.1,0.1-0.3,0.1-0.4c0-0.1,0-0.1,0-0.2c0.1-0.2,0.1-0.3,0.1-0.5c0-0.1,0-0.1,0-0.2
		c0.1-0.1,0.1-0.3,0.1-0.4c0-0.1,0-0.1,0-0.2c0.1-0.3,0.2-0.7,0.3-1c0,0,0-0.1,0-0.1c0,0,0-0.1,0-0.1c0.1-0.2,0.1-0.3,0.1-0.5
		c0-0.1,0-0.1,0-0.2c0.1-0.1,0.1-0.3,0.1-0.4c0-0.1,0-0.1,0-0.2c0.1-0.1,0.1-0.3,0.1-0.4c0-0.1,0-0.2,0.1-0.2
		c0.1-0.1,0.1-0.3,0.1-0.4c0-0.1,0-0.2,0.1-0.2c0.1-0.2,0.1-0.3,0.1-0.5c0-0.1,0-0.1,0-0.2c0.1-0.1,0.1-0.3,0.1-0.4
		c0-0.1,0-0.1,0-0.2c0.1-0.3,0.2-0.7,0.3-1c0-0.1,0-0.2,0-0.3c0.1-0.3,0.1-0.6,0.3-1c0,0,0-0.1,0-0.1c0-0.1,0-0.2,0.1-0.2
		c0-0.1,0.1-0.2,0.1-0.3c0-0.1,0.1-0.3,0.1-0.4c0-0.1,0.1-0.2,0.1-0.3c0-0.1,0-0.1-0.1-0.2c-0.1,0-0.2,0-0.2,0
		C45.5,17.4,39.8,17.4,34.2,17.4z"/>
	<path class="st0" d="M23.7,53.3c-0.3,0-0.6-0.1-0.9-0.1c-0.3,0-0.6-0.2-0.9-0.3c-0.4-0.2-0.8-0.4-1.1-0.7c-0.3-0.2-0.5-0.5-0.8-0.8
		c-0.2-0.3-0.4-0.7-0.6-1c0,0,0,0,0,0c-0.1-0.3-0.2-0.6-0.2-0.9c0-0.2,0-0.4,0-0.7c0-0.3,0-0.5,0-0.8c0-0.1,0-0.2,0.1-0.3
		c0-0.1,0-0.2,0.1-0.2c0.1-0.3,0.2-0.7,0.4-1c0.2-0.3,0.4-0.5,0.6-0.8c0,0,0.1-0.1,0.1-0.1c0.2-0.2,0.4-0.4,0.7-0.5
		c0.2-0.1,0.3-0.2,0.5-0.3c0.2-0.1,0.3-0.2,0.5-0.2c0.2-0.1,0.5-0.2,0.7-0.2c0.5-0.1,1-0.1,1.6,0c0.2,0,0.4,0.1,0.6,0.2
		c0.4,0.1,0.8,0.3,1.1,0.5c0.4,0.3,0.7,0.6,1,0.9c0.2,0.2,0.3,0.4,0.4,0.6c0.1,0.2,0.2,0.4,0.3,0.5c0.1,0.2,0.2,0.4,0.2,0.6
		c0,0.1,0.1,0.3,0.1,0.4c0.1,0.4,0.1,0.9,0,1.3c0,0,0,0.1,0,0.1c0,0.3-0.1,0.6-0.2,0.9c0,0.1-0.1,0.3-0.2,0.4
		c-0.3,0.6-0.7,1-1.1,1.4c-0.2,0.2-0.5,0.4-0.8,0.6c-0.2,0.1-0.4,0.2-0.6,0.2c0,0-0.1,0-0.1,0c-0.2,0.1-0.4,0.1-0.6,0.2
		c0,0-0.1,0-0.1,0C24.3,53.3,24,53.3,23.7,53.3z M23.8,46.8c-0.4,0-0.6,0-0.9,0.2c-0.7,0.4-1,0.9-1,1.6c0,0.2,0.1,0.4,0.1,0.7
		c0.1,0.3,0.2,0.5,0.4,0.7c0.2,0.3,0.5,0.4,0.8,0.5c0.7,0.2,1.3,0,1.8-0.5c0.3-0.3,0.5-0.6,0.5-0.9c0.1-0.4,0.1-0.9-0.2-1.3
		c-0.1-0.1-0.2-0.3-0.3-0.4c-0.2-0.2-0.4-0.3-0.5-0.4c0,0,0,0-0.1,0C24.3,46.9,24.1,46.8,23.8,46.8z"/>
	<path class="st0" d="M39.7,48.8c0-0.5,0.1-0.8,0.1-1.2c0.1-0.2,0.1-0.5,0.2-0.7c0.1-0.2,0.2-0.5,0.4-0.7c0.1-0.1,0.2-0.2,0.3-0.4
		c0.3-0.3,0.6-0.6,0.9-0.9c0.2-0.1,0.3-0.3,0.5-0.3c0.2-0.1,0.5-0.2,0.7-0.3c0.1,0,0.1,0,0.2-0.1c0.1,0,0.1-0.1,0.2-0.1
		c0.4,0,0.9-0.2,1.3-0.1c0.2,0,0.4,0,0.5,0c0,0,0.1,0,0.1,0c0.2,0.1,0.4,0.1,0.6,0.2c0.3,0.1,0.6,0.2,0.8,0.4
		c0.2,0.1,0.4,0.3,0.6,0.5c0.2,0.2,0.4,0.4,0.6,0.6c0.2,0.3,0.4,0.7,0.6,1c0.1,0.3,0.2,0.5,0.3,0.8c0.1,0.3,0.1,0.5,0.1,0.8
		c0,0.2,0,0.4,0,0.6c0,0.4-0.1,0.7-0.2,1c-0.1,0.3-0.3,0.7-0.5,1c-0.2,0.3-0.4,0.6-0.7,0.8c-0.3,0.3-0.6,0.5-0.9,0.7
		c-0.3,0.1-0.5,0.2-0.8,0.3c-0.5,0.2-1,0.2-1.6,0.2c-0.2,0-0.4-0.1-0.7-0.1c-0.2,0-0.3-0.1-0.5-0.1c-0.2-0.1-0.4-0.2-0.6-0.2
		c-0.1,0-0.2-0.1-0.3-0.2c-0.4-0.2-0.8-0.5-1.1-0.9c-0.2-0.2-0.4-0.5-0.5-0.7c-0.1-0.1-0.2-0.3-0.2-0.5c-0.1-0.2-0.1-0.3-0.2-0.5
		c-0.1-0.2-0.1-0.3-0.1-0.5C39.8,49.2,39.7,49,39.7,48.8z M44.2,46.8c-0.4,0-0.7,0.1-1,0.3c-0.2,0.1-0.3,0.3-0.4,0.4
		c-0.1,0.1-0.2,0.3-0.3,0.4c-0.1,0.3-0.2,0.5-0.2,0.8c0,0.4,0.1,0.7,0.3,1c0.1,0.1,0.1,0.2,0.2,0.2c0.2,0.2,0.5,0.4,0.8,0.5
		c0.4,0.1,0.7,0.1,1.1,0c0.3-0.1,0.6-0.3,0.9-0.5c0.2-0.3,0.5-0.6,0.4-1c0,0,0-0.1,0-0.1c0-0.3,0-0.6-0.1-0.9c0,0,0,0,0-0.1
		c-0.1-0.1-0.1-0.3-0.2-0.4C45.3,47.1,44.8,46.8,44.2,46.8z"/>
</g>
<image style="overflow:visible;" width="3264" height="3264" xlink:href="20260224_051146.png"  transform="matrix(2.147766e-03 0 0 1.835536e-03 158.7758 1.9917)">
</image>
<image style="overflow:visible;" width="3264" height="3264" xlink:href="20260224_055528.png"  transform="matrix(9.475440e-05 0 0 8.097953e-05 125.0644 38.9961)">
</image>
</svg>
