<?xml version="1.0" encoding="utf-8"?>
<!-- Generator: Adobe Illustrator 28.2.0, SVG Export Plug-In . SVG Version: 6.00 Build 0)  -->
<svg version="1.1" id="Layer_1" xmlns="http://www.w3.org/2000/svg" xmlns:xlink="http://www.w3.org/1999/xlink" x="0px" y="0px"
	 viewBox="0 0 64 64" style="enable-background:new 0 0 64 64;" xml:space="preserve">
<style type="text/css">
	.st0{fill:#56BF92;}
</style>
<image style="overflow:visible;" width="3264" height="3264" xlink:href="20260224_050908.png"  transform="matrix(1.531863e-02 0 0 1.531863e-02 1632.4286 1607.4286)">
</image>
<image style="overflow:visible;" width="3264" height="3264" xlink:href="20260224_050814.png"  transform="matrix(2.463614e-03 0 0 2.105468e-03 116.7139 1.375)">
</image>
<image style="overflow:visible;" width="3264" height="3264" xlink:href="20260224_050908.png"  transform="matrix(1.958258e-03 0 0 1.673577e-03 131.3531 1.375)">
</image>
<image style="overflow:visible;" width="3264" height="3264" xlink:href="20260224_050959.png"  transform="matrix(1.958258e-03 0 0 1.673577e-03 141.0438 1.9917)">
</image>
<image style="overflow:visible;" width="3264" height="3264" xlink:href="20260224_051042.png"  transform="matrix(2.463614e-03 0 0 2.105468e-03 149.4974 1.375)">
</image>
<image style="overflow:visible;" width="3264" height="3264" xlink:href="20260224_051146.png"  transform="matrix(2.147766e-03 0 0 1.835536e-03 158.7758 1.9917)">
</image>
<image style="overflow:visible;" width="3264" height="3264" xlink:href="20260224_051253.png"  transform="matrix(2.747878e-03 0 0 2.348406e-03 108.982 10.8904)">
</image>
<image style="overflow:visible;" width="3264" height="3264" xlink:href="20260224_051400.png"  transform="matrix(2.842632e-03 0 0 2.429386e-03 121.25 10.8904)">
</image>
<image style="overflow:visible;" width="3264" height="3264" xlink:href="20260224_051433.png"  transform="matrix(2.811047e-03 0 0 2.402393e-03 132.6933 10.8904)">
</image>
<image style="overflow:visible;" width="3264" height="3264" xlink:href="20260224_051527.png"  transform="matrix(2.368860e-03 0 0 2.024488e-03 145.1675 11.6834)">
</image>
<image style="overflow:visible;" width="1280" height="1280" xlink:href="20260224_050539.png"  transform="matrix(8.537371e-03 0 0 7.296255e-03 143.5181 25.8684)">
</image>
<image style="overflow:visible;" width="3264" height="3264" xlink:href="20260224_055528.png"  transform="matrix(9.475440e-05 0 0 8.097953e-05 125.0644 38.9961)">
</image>
<g>
	<path class="st0" d="M35.7,47.2c0,3.5,0,7.1,0,10.6c0,0.4-0.1,0.7-0.4,0.9c-0.2,0.2-0.4,0.3-0.7,0.3c0,0-0.1,0-0.1,0
		c-2.9,0-5.9,0-8.8,0c-0.2,0-0.4,0-0.6-0.2c-0.4-0.2-0.5-0.6-0.5-1c0-0.1,0-0.2,0-0.3c0-7,0-14.1,0-21.1c0-0.1,0-0.1,0-0.2
		c0-0.1,0-0.1-0.1-0.1c-0.1,0-0.1,0-0.2,0c-2.1,0-4.2,0-6.2,0c-0.2,0-0.4,0-0.5,0c-0.2,0-0.4-0.2-0.6-0.4c-0.2-0.2-0.2-0.5-0.3-0.8
		c0-0.1,0-0.1,0-0.2c0-2.7,0-5.4,0-8c0-0.2,0-0.5,0.1-0.7c0-0.2,0.2-0.3,0.3-0.5c0.2-0.2,0.4-0.2,0.7-0.3c0.1,0,0.1,0,0.2,0
		c2.1,0,4.2,0,6.3,0c0.3,0,0.3,0,0.3-0.3c0-1.4,0-2.8,0-4.3c0-0.9,0-1.8,0-2.8c0-0.2,0.1-0.4,0.1-0.6c0-0.3,0.1-0.6,0.1-0.8
		c0-0.2,0.1-0.4,0.1-0.7c0.1-0.5,0.2-1,0.4-1.5c0.1-0.4,0.3-0.8,0.4-1.1c0.2-0.5,0.5-1,0.8-1.5c0.3-0.4,0.6-0.9,0.9-1.2
		c0.2-0.2,0.3-0.4,0.5-0.6c0.4-0.4,0.9-0.8,1.4-1.2c0.5-0.4,1-0.7,1.6-1c0.5-0.3,1.1-0.5,1.6-0.7c0.2-0.1,0.5-0.2,0.7-0.2
		c0.3-0.1,0.5-0.1,0.8-0.2c0.3-0.1,0.7-0.1,1-0.2c0.5,0,0.9-0.1,1.4-0.1c2.5,0,5,0,7.5,0c0.3,0,0.6,0.1,0.8,0.3
		c0.2,0.1,0.3,0.3,0.3,0.5c0,0.2,0,0.4,0,0.6c0,2.5,0,4.9,0,7.4c0,0.3,0,0.5-0.2,0.7c-0.2,0.3-0.4,0.5-0.8,0.5c-0.2,0-0.3,0-0.5,0
		c-1.3,0-2.7,0-4,0c-0.4,0-0.7,0-1.1,0.1c-0.3,0-0.6,0.1-0.9,0.1c-0.4,0.1-0.7,0.2-1.1,0.5c-0.2,0.2-0.4,0.4-0.5,0.7
		c-0.1,0.3-0.3,0.6-0.3,1c0,0.2-0.1,0.4-0.1,0.5c0,0.1,0,0.2,0,0.3c0,1.7,0,3.5,0,5.2c0,0.3,0,0.3,0.3,0.3c2.5,0,5,0,7.5,0
		c0.1,0,0.3,0,0.4,0c0.4,0.1,0.6,0.3,0.8,0.6c0.1,0.2,0.1,0.3,0.1,0.5c0,0.1,0,0.1,0,0.2c0,2.7,0,5.4,0,8.1c0,0.2,0,0.4,0,0.5
		c0,0,0,0.1,0,0.1c-0.2,0.4-0.5,0.6-0.9,0.7c-0.2,0-0.4,0-0.5,0c-2.4,0-4.8,0-7.2,0c-0.3,0-0.3,0-0.3,0.3
		C35.7,40.1,35.7,43.6,35.7,47.2z"/>
</g>
<image style="overflow:visible;" width="3264" height="3264" xlink:href="20260224_061142.png"  transform="matrix(2.447822e-03 0 0 2.091971e-03 155.0129 21.2869)">
</image>
<image style="overflow:visible;" width="3264" height="3264" xlink:href="20260224_061209.png"  transform="matrix(2.242521e-03 0 0 1.916516e-03 155.0129 10.8904)">
</image>
<image style="overflow:visible;" width="3264" height="3264" xlink:href="20260224_061245.png"  transform="matrix(1.389731e-03 0 0 1.187700e-03 162.2809 37.5865)">
</image>
</svg>
