<?xml version="1.0" encoding="utf-8"?>
<!-- Generator: Adobe Illustrator 28.2.0, SVG Export Plug-In . SVG Version: 6.00 Build 0)  -->
<svg version="1.1" id="Layer_1" xmlns="http://www.w3.org/2000/svg" xmlns:xlink="http://www.w3.org/1999/xlink" x="0px" y="0px"
	 viewBox="0 0 64 64" style="enable-background:new 0 0 64 64;" xml:space="preserve">
<style type="text/css">
	.st0{fill:#56BF92;}
</style>
<image style="overflow:visible;" width="3264" height="3264" xlink:href="20260224_050908.png"  transform="matrix(1.531863e-02 0 0 1.531863e-02 1632.4286 1607.4286)">
</image>
<image style="overflow:visible;" width="3264" height="3264" xlink:href="20260224_051042.png"  transform="matrix(2.463614e-03 0 0 2.105468e-03 149.4974 1.375)">
</image>
<image style="overflow:visible;" width="3264" height="3264" xlink:href="20260224_051146.png"  transform="matrix(2.147766e-03 0 0 1.835536e-03 158.7758 1.9917)">
</image>
<image style="overflow:visible;" width="3264" height="3264" xlink:href="20260224_055528.png"  transform="matrix(9.475440e-05 0 0 8.097953e-05 125.0644 38.9961)">
</image>
<g>
	<path class="st0" d="M11.9,41c0-0.1,0-0.3,0-0.4c0-1.2,0-2.3,0-3.5c0-1,0-1.9,0-2.9c0-1,0-2,0-3.1c0-1,0-2,0-3c0-1,0-2,0-3
		c0-1,0-2,0-3c0-0.6,0-1.2,0-1.9c0-0.5,0.1-1,0.3-1.5c0.1-0.2,0.3-0.5,0.4-0.7c0.2-0.3,0.5-0.6,0.8-0.8c0.4-0.3,0.7-0.5,1.1-0.6
		c0.4-0.1,0.7-0.2,1.1-0.2c0.4,0,0.8,0,1.2,0c0.4,0,0.8,0,1.2,0c0.5,0,1,0,1.5,0c1,0,1.9,0,2.9,0c0.7,0,1.4,0,2.1,0
		c0.8,0,1.6,0,2.3,0c0.7,0,1.4,0,2.2,0c0.8,0,1.5,0,2.3,0c0.7,0,1.4,0,2.1,0c0.8,0,1.5,0,2.3,0c0.7,0,1.5,0,2.2,0c0.7,0,1.5,0,2.2,0
		c0.7,0,1.4,0,2.2,0c0.8,0,1.5,0,2.3,0c0.7,0,1.4,0,2.2,0c0.4,0,0.9,0,1.3,0.2c0.4,0.1,0.8,0.3,1.2,0.6c0.5,0.3,0.8,0.7,1.1,1.1
		c0.3,0.5,0.5,1,0.6,1.6c0,0.2,0,0.5,0.1,0.7c0,0.2,0,0.3,0,0.5c0,0.4,0,0.8,0,1.3c0,1.4,0,2.8,0,4.2c0,1,0,2,0,3c0,1,0,2,0,3
		c0,1,0,2,0,3c0,1,0,2,0,3c0,1,0,2,0,3c0,0.5-0.1,1.1-0.3,1.6c-0.1,0.4-0.3,0.7-0.6,1c0,0,0,0.1-0.1,0.1c-0.4,0.5-0.8,0.8-1.4,1.1
		c-0.3,0.1-0.6,0.2-0.9,0.3c-0.1,0-0.1,0-0.2,0c-0.6,0.1-1.3,0.1-1.9,0c-0.7,0-1.4,0-2.2,0c-0.8,0-1.6,0-2.3,0c-0.7,0-1.4,0-2.1,0
		c-0.8,0-1.5,0-2.3,0c-0.7,0-1.4,0-2.1,0c-0.8,0-1.5,0-2.3,0c-0.7,0-1.4,0-2.2,0c-0.7,0-1.5,0-2.2,0c-0.7,0-1.5,0-2.2,0
		c-0.8,0-1.5,0-2.3,0c-0.6,0-1.3,0-1.9,0c-0.8-0.1-1.7,0-2.5,0c-0.7,0-1.5,0-2.2,0c-0.4,0-0.9,0-1.3,0c-0.5,0-1.1-0.2-1.6-0.4
		c-0.4-0.2-0.8-0.5-1.1-0.8c-0.4-0.4-0.7-0.9-0.9-1.5c-0.1-0.4-0.2-0.7-0.2-1.1C11.9,41.6,11.9,41.3,11.9,41
		C11.9,41,11.9,41,11.9,41z M17.3,19.1c-0.2,0-0.4,0-0.5,0c-0.1,0-0.1,0.1-0.1,0.1c0,0,0.1,0.1,0.1,0.1c0.3,0.3,0.5,0.6,0.8,0.8
		c0.4,0.5,0.8,1,1.3,1.4c0.4,0.4,0.7,0.8,1.1,1.2c0,0,0,0,0,0c0.4,0.5,0.9,1,1.3,1.4c0.2,0.3,0.5,0.5,0.7,0.8
		c0.2,0.3,0.5,0.6,0.7,0.8c0.3,0.3,0.5,0.6,0.7,0.8c0.1,0.1,0.2,0.2,0.3,0.3c0.3,0.4,0.6,0.7,0.9,1c0.3,0.3,0.6,0.6,0.8,0.9
		c0.4,0.4,0.7,0.8,1.1,1.3c0.2,0.2,0.4,0.5,0.7,0.7c0.4,0.5,0.9,0.9,1.5,1.3c0.6,0.3,1.2,0.6,1.8,0.7c0.5,0.1,1.1,0.2,1.6,0.1
		c0.3,0,0.6-0.1,0.9-0.1c0.4-0.1,0.8-0.3,1.2-0.4c0.5-0.2,1-0.6,1.4-0.9c0.5-0.5,1-1,1.5-1.5c0.4-0.4,0.8-0.8,1.1-1.2
		c0.4-0.4,0.7-0.8,1.1-1.2c0.4-0.5,0.9-0.9,1.3-1.4c0.4-0.4,0.8-0.8,1.2-1.2c0.4-0.4,0.8-0.8,1.2-1.3c0.4-0.4,0.7-0.8,1.1-1.1
		c0.3-0.4,0.7-0.8,1-1.1c0.5-0.5,1-1.1,1.5-1.6c0.1-0.1,0.2-0.2,0.3-0.3c0.1-0.1,0.1-0.1,0-0.1c-0.1,0-0.2,0-0.3,0
		c-0.7,0-1.5,0-2.2,0c-0.7,0-1.5,0-2.2,0c-0.7,0-1.5,0-2.2,0c-0.7,0-1.5,0-2.2,0c-0.7,0-1.5,0-2.2,0c-0.7,0-1.5,0-2.2,0
		c-0.8,0-1.5,0-2.3,0c-0.7,0-1.5,0-2.2,0c-0.7,0-1.5,0-2.2,0c-0.7,0-1.4,0-2.2,0c-0.8,0-1.5,0-2.3,0c-0.7,0-1.4,0-2.1,0
		C19,19.1,18.1,19.2,17.3,19.1z M46.1,43.6c0.1,0,0.1,0,0.2-0.1c0-0.1,0-0.1-0.1-0.1c-0.2-0.2-0.3-0.3-0.5-0.5
		c-0.3-0.3-0.6-0.6-0.8-0.9c-0.5-0.5-1-1-1.5-1.5c-0.4-0.5-0.9-0.9-1.3-1.3c-0.3-0.3-0.6-0.6-0.9-1c-0.5-0.5-1-1-1.4-1.5
		c-0.2-0.3-0.5-0.5-0.7-0.8c-0.6-0.6-1.2-1.2-1.8-1.9c-0.1-0.1-0.2-0.1-0.3,0c-0.3,0.2-0.6,0.5-1,0.7c-0.3,0.2-0.7,0.4-1,0.5
		c0,0-0.1,0-0.1,0c-0.5,0.2-0.9,0.3-1.4,0.4c-0.3,0.1-0.6,0.1-0.9,0.1c-0.3,0.1-0.7,0-1,0.1c0,0,0,0-0.1,0c-0.3,0-0.6-0.1-0.9-0.1
		c-0.5-0.1-1.1-0.2-1.6-0.4c-0.5-0.2-0.9-0.3-1.3-0.6c-0.5-0.3-0.9-0.6-1.4-0.9c-0.1-0.1-0.2-0.1-0.3,0c-0.2,0.2-0.5,0.4-0.7,0.7
		c-0.4,0.4-0.9,0.8-1.3,1.3c-0.5,0.5-1,1-1.5,1.5c-0.5,0.5-1,1-1.5,1.5c-0.4,0.4-0.8,0.8-1.2,1.2c-0.5,0.4-0.9,0.9-1.4,1.3
		c-0.3,0.3-0.5,0.5-0.8,0.8c-0.3,0.3-0.6,0.6-0.9,0.8c0,0-0.1,0.1-0.1,0.1c0,0,0.1,0,0.1,0c0.3,0,0.6,0,0.9,0c0.7,0,1.4,0,2.1,0
		c0.8,0,1.5,0,2.3,0c0.7,0,1.5,0,2.2,0c0.7,0,1.5,0,2.2,0c0.7,0,1.4,0,2.2,0c0.7,0,1.5,0,2.2,0c0.7,0,1.5,0,2.2,0c0.8,0,1.5,0,2.3,0
		c0.7,0,1.5,0,2.2,0c0.7,0,1.5,0,2.2,0c0.7,0,1.4,0,2.2,0c0.8,0,1.5,0,2.3,0C44.7,43.6,45.4,43.5,46.1,43.6z M48.6,22.1
		C48.6,22.1,48.6,22.1,48.6,22.1c0-0.1,0-0.2-0.1-0.3c-0.1,0-0.1,0.1-0.2,0.1c-0.4,0.4-0.7,0.8-1.1,1.2c-0.5,0.5-1,1.1-1.5,1.6
		c0,0-0.1,0.1-0.1,0.1c-0.4,0.5-0.8,0.9-1.2,1.3c-0.4,0.5-0.9,0.9-1.3,1.4c-0.5,0.5-0.9,0.9-1.4,1.4c-0.3,0.3-0.6,0.6-0.9,0.9
		c-0.1,0.1-0.2,0.2-0.3,0.3c-0.3,0.3-0.5,0.6-0.8,0.9c-0.2,0.2-0.4,0.5-0.7,0.7c-0.1,0.1-0.1,0.2,0,0.3c0.2,0.2,0.4,0.4,0.6,0.7
		c0.5,0.5,0.9,1,1.4,1.4c0.6,0.6,1.1,1.1,1.7,1.7c0.3,0.3,0.6,0.6,0.9,1c0.4,0.4,0.8,0.8,1.2,1.3c0.4,0.5,0.9,0.9,1.4,1.4
		c0.4,0.5,0.9,0.9,1.3,1.3c0,0,0.1,0.1,0.1,0.1c0.2,0.2,0.3,0.3,0.5,0.5c0,0,0.1,0.1,0.1,0c0,0,0-0.1,0-0.1c0-0.4,0-0.9,0-1.3
		c0-1,0-2,0-2.9c0-1,0-2,0-3c0-1,0-2,0-3c0-1,0-2,0-3.1c0-1,0-2,0-3C48.6,24.1,48.6,23.1,48.6,22.1z M14.6,34.3c0,0.7,0,1.3,0,1.9
		c0,1,0,2,0,2.9c0,0.6,0,1.2,0,1.8c0,0,0,0,0,0.1c0,0,0,0.1,0,0.1c0,0,0.1,0,0.1,0c0.1-0.1,0.3-0.2,0.4-0.4c0.5-0.5,1.1-1.1,1.6-1.6
		c0.4-0.4,0.7-0.7,1.1-1.1c0.6-0.5,1.1-1.1,1.7-1.6c0.4-0.3,0.7-0.7,1.1-1.1c0.5-0.4,0.9-0.9,1.4-1.3c0.4-0.4,0.8-0.8,1.1-1.1
		c0,0,0.1-0.1,0.1-0.1c0.3-0.2,0.5-0.5,0.7-0.7c0.1-0.1,0.1-0.1,0-0.2c-0.1-0.2-0.3-0.3-0.4-0.5c-0.4-0.5-0.9-1-1.3-1.5
		c-0.2-0.2-0.4-0.4-0.6-0.7c-0.2-0.2-0.4-0.5-0.6-0.7c-0.1-0.2-0.3-0.3-0.4-0.5c-0.2-0.2-0.3-0.4-0.5-0.6c-0.3-0.3-0.5-0.6-0.8-0.9
		c-0.3-0.4-0.7-0.8-1-1.1c-0.1-0.1-0.1-0.1-0.2-0.2c-0.2-0.2-0.4-0.4-0.6-0.7c-0.2-0.2-0.4-0.4-0.6-0.7c-0.2-0.2-0.3-0.4-0.5-0.6
		c-0.3-0.3-0.5-0.6-0.8-0.9c0,0,0,0,0-0.1c-0.2-0.3-0.4-0.5-0.7-0.8c0,0-0.1-0.1-0.1-0.1c-0.1,0-0.1,0.1-0.1,0.2c0,0.9,0,1.8,0,2.6
		c0,1,0,1.9,0,2.9c0,1.1,0,2.2,0,3.3c0,0.3,0,0.7,0,1C14.7,32.4,14.6,33.4,14.6,34.3z"/>
</g>
</svg>
