<?xml version="1.0" encoding="utf-8"?>
<!-- Generator: Adobe Illustrator 28.2.0, SVG Export Plug-In . SVG Version: 6.00 Build 0)  -->
<svg version="1.1" id="Layer_1" xmlns="http://www.w3.org/2000/svg" xmlns:xlink="http://www.w3.org/1999/xlink" x="0px" y="0px"
	 viewBox="0 0 100 100" style="enable-background:new 0 0 100 100;" xml:space="preserve">
<style type="text/css">
	.st0{fill:#34D399;}
</style>
<g>
	<path class="st0" d="M87.4,35.54c0,0.49,0,0.86,0,1.23c0,0.24-0.01,0.47-0.07,0.7c-0.06,0.24-0.07,0.5-0.07,0.75
		c-0.01,0.34-0.07,0.68-0.12,1.02c-0.05,0.38-0.2,0.74-0.19,1.13c0,0.12-0.05,0.24-0.11,0.35c-0.12,0.21-0.16,0.44-0.17,0.68
		c0,0.18-0.04,0.36-0.14,0.51c-0.02,0.03-0.05,0.07-0.05,0.11c-0.07,0.41-0.28,0.78-0.37,1.19c-0.04,0.18-0.09,0.35-0.18,0.51
		c-0.05,0.09-0.08,0.18-0.1,0.27c-0.02,0.09-0.04,0.18-0.09,0.25c-0.16,0.2-0.23,0.43-0.28,0.67c-0.02,0.1-0.06,0.18-0.13,0.26
		c-0.05,0.06-0.1,0.13-0.12,0.21c-0.05,0.17-0.1,0.32-0.23,0.45c-0.05,0.05-0.07,0.13-0.08,0.2c-0.03,0.12-0.08,0.23-0.17,0.32
		c-0.02,0.02-0.05,0.05-0.06,0.08c-0.08,0.24-0.24,0.45-0.33,0.68c-0.09,0.25-0.24,0.46-0.39,0.67c-0.08,0.12-0.16,0.22-0.21,0.36
		c-0.01,0.05-0.04,0.1-0.07,0.13c-0.2,0.17-0.25,0.44-0.44,0.61c-0.03,0.03-0.04,0.07-0.06,0.11c-0.02,0.04-0.02,0.08-0.04,0.11
		c-0.17,0.27-0.31,0.57-0.52,0.82c-0.13,0.16-0.26,0.31-0.37,0.48c-0.29,0.44-0.59,0.87-0.94,1.28c-0.02,0.02-0.04,0.03-0.05,0.05
		c-0.25,0.47-0.69,0.8-0.99,1.24c-0.21,0.31-0.5,0.56-0.76,0.83c-0.04,0.04-0.09,0.08-0.11,0.13c-0.09,0.21-0.25,0.36-0.41,0.51
		c-0.35,0.33-0.67,0.69-0.98,1.06c-0.38,0.45-0.81,0.83-1.21,1.26c-0.21,0.23-0.42,0.45-0.64,0.67c-0.35,0.35-0.72,0.68-1.07,1.04
		c-0.43,0.45-0.89,0.88-1.32,1.34c-0.33,0.35-0.69,0.67-1.03,1.01c-0.24,0.24-0.47,0.49-0.71,0.73c-0.24,0.24-0.49,0.47-0.73,0.71
		c-0.24,0.24-0.48,0.49-0.72,0.73c-0.23,0.24-0.47,0.47-0.71,0.71c-0.25,0.25-0.51,0.5-0.76,0.76c-0.24,0.24-0.47,0.48-0.71,0.71
		c-0.25,0.24-0.49,0.48-0.72,0.72c-0.24,0.25-0.48,0.48-0.72,0.72c-0.24,0.24-0.48,0.48-0.72,0.72c-0.24,0.24-0.48,0.49-0.72,0.73
		c-0.26,0.26-0.52,0.52-0.77,0.77c-0.24,0.24-0.49,0.48-0.73,0.72c-0.24,0.23-0.47,0.47-0.71,0.7c-0.26,0.26-0.52,0.52-0.77,0.77
		c-0.24,0.24-0.47,0.47-0.71,0.71c-0.24,0.24-0.48,0.48-0.73,0.72c-0.24,0.24-0.48,0.49-0.72,0.73c-0.24,0.24-0.48,0.48-0.73,0.72
		c-0.24,0.24-0.48,0.48-0.72,0.72c-0.24,0.24-0.48,0.49-0.72,0.73c-0.26,0.26-0.52,0.52-0.77,0.77c-0.23,0.23-0.46,0.46-0.69,0.69
		c-0.25,0.25-0.5,0.49-0.75,0.73c-0.24,0.23-0.47,0.47-0.7,0.71c-0.25,0.26-0.52,0.51-0.77,0.78c-0.23,0.25-0.49,0.48-0.73,0.72
		c-0.24,0.24-0.48,0.49-0.72,0.73c-0.24,0.24-0.48,0.48-0.73,0.72c-0.24,0.24-0.48,0.48-0.72,0.72c-0.24,0.24-0.48,0.49-0.72,0.73
		c-0.25,0.25-0.5,0.49-0.74,0.74c-0.33,0.34-0.7,0.61-1.15,0.8c-0.64,0.27-1.28,0.27-1.94,0.17c-0.12-0.02-0.23-0.07-0.34-0.13
		c-0.24-0.13-0.51-0.22-0.74-0.38c-0.1-0.07-0.2-0.13-0.29-0.22c-2.33-2.33-4.67-4.67-7-7c-2.19-2.19-4.38-4.38-6.57-6.56
		c-2.09-2.09-4.18-4.18-6.27-6.27c-1.95-1.95-3.89-3.9-5.84-5.83c-0.35-0.35-0.71-0.69-1.06-1.04c-0.5-0.48-0.98-0.97-1.45-1.49
		c-0.47-0.53-0.95-1.05-1.42-1.58c-0.52-0.58-1.05-1.16-1.5-1.79c-0.17-0.24-0.36-0.46-0.56-0.67c-0.02-0.02-0.04-0.05-0.05-0.08
		c-0.2-0.42-0.51-0.75-0.77-1.12c-0.15-0.21-0.31-0.42-0.47-0.62c-0.18-0.22-0.3-0.48-0.45-0.72c-0.14-0.22-0.3-0.43-0.39-0.67
		c-0.01-0.04-0.03-0.08-0.05-0.11c-0.26-0.31-0.4-0.69-0.6-1.03c-0.18-0.28-0.3-0.59-0.46-0.89c-0.14-0.27-0.31-0.53-0.41-0.83
		c-0.08-0.24-0.24-0.46-0.27-0.73c0-0.03-0.02-0.07-0.05-0.08c-0.17-0.14-0.21-0.34-0.24-0.55c-0.01-0.06-0.02-0.12-0.05-0.16
		c-0.15-0.2-0.16-0.44-0.25-0.66c-0.18-0.43-0.25-0.89-0.46-1.31c-0.09-0.19-0.1-0.39-0.12-0.6c-0.01-0.13-0.03-0.26-0.12-0.36
		c-0.09-0.1-0.12-0.23-0.12-0.36c-0.01-0.3-0.07-0.58-0.13-0.87c-0.12-0.59-0.21-1.19-0.21-1.8c0-0.16-0.01-0.33-0.06-0.48
		c-0.04-0.1-0.04-0.21-0.04-0.31c0-0.83,0-1.67,0-2.5c0-0.07-0.01-0.15,0.01-0.22c0.14-0.49,0.09-1,0.13-1.51
		c0.03-0.32,0.06-0.63,0.18-0.93c0.05-0.12,0.08-0.23,0.07-0.36c-0.01-0.22,0.05-0.44,0.06-0.66c0-0.06,0.02-0.14,0.05-0.19
		c0.18-0.27,0.19-0.59,0.23-0.89c0.02-0.16,0.06-0.3,0.13-0.44c0.1-0.18,0.13-0.39,0.16-0.59c0.03-0.16,0.05-0.32,0.17-0.45
		c0.03-0.03,0.05-0.07,0.06-0.11c0.09-0.44,0.3-0.84,0.44-1.27c0.09-0.28,0.22-0.56,0.38-0.82c0.15-0.24,0.23-0.52,0.35-0.78
		c0.05-0.1,0.09-0.21,0.16-0.3c0.11-0.13,0.16-0.28,0.23-0.43c0.11-0.24,0.24-0.48,0.4-0.69c0.05-0.07,0.11-0.14,0.14-0.23
		c0.08-0.26,0.26-0.47,0.41-0.69c0.12-0.18,0.24-0.37,0.38-0.54c0.29-0.34,0.55-0.7,0.8-1.07c0.16-0.23,0.38-0.4,0.49-0.66
		c0.03-0.06,0.09-0.11,0.14-0.16c0.75-0.75,1.5-1.5,2.25-2.25c0.09-0.09,0.19-0.18,0.31-0.23c0.09-0.03,0.13-0.12,0.2-0.18
		c0.28-0.23,0.54-0.47,0.83-0.69c0.22-0.18,0.46-0.33,0.7-0.48c0.2-0.13,0.41-0.27,0.6-0.41c0.21-0.14,0.42-0.27,0.63-0.41
		c0.22-0.15,0.46-0.27,0.69-0.41c0.03-0.02,0.06-0.02,0.09-0.04c0.04-0.02,0.08-0.03,0.11-0.06c0.13-0.14,0.31-0.17,0.46-0.25
		c0.25-0.14,0.5-0.25,0.75-0.39c0.14-0.08,0.27-0.18,0.44-0.19c0.04,0,0.09-0.01,0.11-0.04c0.28-0.26,0.69-0.23,1-0.45
		c0.09-0.06,0.22-0.06,0.33-0.09c0.16-0.04,0.32-0.08,0.46-0.17c0.02-0.01,0.04-0.03,0.06-0.03c0.45-0.07,0.83-0.33,1.28-0.39
		c0.06-0.01,0.12-0.01,0.17-0.04c0.3-0.19,0.64-0.19,0.96-0.25c0.12-0.02,0.24-0.05,0.35-0.11c0.1-0.06,0.21-0.09,0.33-0.09
		c0.37,0,0.73-0.11,1.1-0.11c0.03,0,0.07,0,0.1-0.02c0.34-0.15,0.71-0.14,1.08-0.18c0.89-0.08,1.78-0.11,2.66-0.09
		c0.8,0.02,1.6,0.02,2.39,0.1c0.26,0.03,0.54,0.02,0.79,0.15c0.09,0.04,0.19,0.04,0.29,0.04c0.27-0.01,0.54,0.04,0.8,0.07
		c0.16,0.01,0.32,0.05,0.47,0.13c0.26,0.14,0.56,0.09,0.84,0.14c0.23,0.04,0.45,0.06,0.66,0.16c0.1,0.05,0.22,0.07,0.33,0.09
		c0.24,0.05,0.48,0.08,0.69,0.23c0.13,0.09,0.3,0.08,0.45,0.11c0.12,0.02,0.22,0.05,0.31,0.12c0.1,0.08,0.22,0.11,0.34,0.14
		c0.18,0.04,0.35,0.09,0.5,0.2c0.04,0.03,0.08,0.06,0.13,0.07c0.31,0.04,0.56,0.21,0.83,0.34c0.29,0.15,0.6,0.26,0.87,0.44
		c0.03,0.02,0.07,0.05,0.11,0.06c0.52,0.2,0.97,0.53,1.43,0.84c0.03,0.02,0.07,0.05,0.1,0.06c0.38,0.14,0.71,0.37,1.02,0.62
		c0.39,0.32,0.83,0.58,1.21,0.91c0.27,0.23,0.59,0.42,0.82,0.69c0.11,0.13,0.27,0.18,0.4,0.28c0.05,0.04,0.13,0.05,0.19,0.02
		c0.17-0.07,0.36-0.13,0.49-0.27c0.35-0.37,0.76-0.67,1.16-0.97c0.25-0.18,0.5-0.36,0.74-0.56c0.03-0.02,0.05-0.04,0.08-0.05
		c0.31-0.09,0.52-0.32,0.76-0.51c0.03-0.02,0.05-0.05,0.08-0.06c0.27-0.07,0.48-0.25,0.7-0.4c0.23-0.16,0.49-0.25,0.7-0.43
		c0.07-0.06,0.17-0.07,0.24-0.12c0.23-0.17,0.5-0.26,0.75-0.38c0.22-0.1,0.45-0.19,0.67-0.3c0.23-0.11,0.48-0.2,0.7-0.33
		c0.15-0.08,0.3-0.14,0.46-0.17c0.19-0.04,0.38-0.09,0.54-0.21c0.09-0.06,0.19-0.08,0.3-0.09c0.19-0.01,0.37-0.07,0.53-0.16
		c0.04-0.02,0.09-0.05,0.13-0.06c0.51-0.07,0.97-0.34,1.49-0.36c0.11,0,0.21-0.04,0.3-0.09c0.04-0.02,0.09-0.05,0.14-0.05
		c0.5-0.04,0.98-0.17,1.48-0.16c0.08,0,0.17,0,0.24-0.03c0.54-0.18,1.11-0.19,1.67-0.21c0.8-0.02,1.6-0.08,2.4-0.05
		c0.84,0.03,1.68,0.05,2.51,0.15c0.04,0,0.08,0.01,0.12,0.03c0.31,0.14,0.65,0.13,0.98,0.16c0.29,0.03,0.58,0.09,0.86,0.17
		c0.01,0,0.01,0.01,0.02,0.01c0.58,0.1,1.13,0.3,1.71,0.41c0.1,0.02,0.19,0.04,0.27,0.1c0.17,0.12,0.37,0.18,0.57,0.2
		c0.13,0.01,0.24,0.04,0.34,0.12c0.03,0.03,0.07,0.06,0.1,0.06c0.35,0.06,0.66,0.24,0.98,0.36c0.14,0.05,0.28,0.08,0.4,0.18
		c0.06,0.05,0.14,0.08,0.22,0.1c0.12,0.04,0.24,0.09,0.35,0.18c0.03,0.02,0.05,0.05,0.08,0.05c0.32,0.03,0.56,0.25,0.83,0.39
		c0.46,0.23,0.93,0.47,1.37,0.75c0.38,0.24,0.74,0.5,1.12,0.74c0.31,0.19,0.6,0.41,0.89,0.64c0.35,0.28,0.66,0.61,1.04,0.85
		c0.13,0.08,0.24,0.19,0.35,0.3c0.51,0.52,1.03,1.03,1.54,1.54c0.17,0.17,0.32,0.35,0.44,0.55c0.09,0.15,0.25,0.25,0.37,0.39
		c0.11,0.15,0.22,0.31,0.38,0.41c0.08,0.05,0.08,0.16,0.13,0.23c0.3,0.42,0.59,0.86,0.93,1.25c0.08,0.09,0.15,0.17,0.18,0.29
		c0.04,0.11,0.1,0.21,0.17,0.3c0.07,0.08,0.12,0.17,0.15,0.28c0.02,0.06,0.05,0.12,0.09,0.17c0.2,0.28,0.38,0.58,0.54,0.89
		c0.14,0.28,0.28,0.57,0.43,0.85c0.15,0.29,0.33,0.58,0.39,0.92c0.01,0.08,0.02,0.17,0.08,0.23c0.16,0.15,0.22,0.34,0.23,0.55
		c0,0.04,0.02,0.08,0.04,0.12c0.17,0.26,0.18,0.58,0.31,0.84c0.19,0.39,0.21,0.84,0.43,1.22c0.04,0.06,0.06,0.14,0.06,0.21
		c0.01,0.39,0.15,0.75,0.24,1.12c0.09,0.38,0.16,0.76,0.23,1.15c0.11,0.59,0.08,1.19,0.2,1.77C87.45,34.4,87.35,35.03,87.4,35.54z
		 M31.62,18.78c-0.57-0.05-1.13,0.05-1.71,0.04c-0.06,0-0.11,0.01-0.17,0.02c-0.33,0.1-0.67,0.11-1.01,0.17
		c-0.25,0.04-0.52,0-0.75,0.11c-0.34,0.17-0.7,0.19-1.07,0.23c-0.15,0.02-0.29,0.05-0.41,0.13c-0.15,0.09-0.31,0.15-0.48,0.16
		c-0.14,0-0.27,0.04-0.39,0.13c-0.05,0.04-0.11,0.07-0.17,0.09c-0.23,0.08-0.46,0.16-0.68,0.27c-0.23,0.12-0.49,0.18-0.73,0.32
		c-0.17,0.1-0.35,0.2-0.53,0.27c-0.25,0.1-0.47,0.24-0.71,0.36c-0.1,0.05-0.2,0.11-0.29,0.18c-0.17,0.13-0.33,0.28-0.51,0.37
		c-0.41,0.2-0.75,0.5-1.1,0.77c-0.45,0.35-0.87,0.73-1.3,1.1c-0.22,0.19-0.43,0.41-0.6,0.64c-0.23,0.3-0.48,0.57-0.74,0.84
		c-0.05,0.05-0.11,0.1-0.14,0.17c-0.13,0.3-0.38,0.5-0.54,0.78c-0.07,0.13-0.18,0.23-0.27,0.35c-0.05,0.06-0.1,0.13-0.13,0.21
		c-0.05,0.15-0.14,0.27-0.23,0.4c-0.18,0.28-0.39,0.55-0.53,0.85c-0.14,0.3-0.32,0.59-0.4,0.92c-0.02,0.09-0.06,0.17-0.11,0.24
		c-0.12,0.17-0.19,0.36-0.25,0.56c-0.03,0.09-0.05,0.17-0.1,0.25c-0.17,0.3-0.22,0.64-0.37,0.94c-0.03,0.06-0.02,0.13-0.03,0.19
		c-0.01,0.06-0.01,0.13-0.04,0.19c-0.14,0.4-0.24,0.81-0.32,1.23c-0.04,0.22-0.06,0.44-0.12,0.65c-0.1,0.34-0.12,0.69-0.12,1.04
		c0,0.42-0.04,0.83-0.11,1.24c-0.07,0.39-0.07,0.8,0,1.2c0.07,0.4,0.1,0.81,0.11,1.22c0.01,0.24,0.03,0.47,0.11,0.7
		c0.03,0.09,0.03,0.18,0.05,0.26c0.07,0.4,0.12,0.81,0.25,1.2c0.08,0.26,0.16,0.51,0.2,0.78c0.03,0.15,0.07,0.3,0.16,0.43
		c0.08,0.11,0.11,0.23,0.13,0.37c0.01,0.11,0.02,0.25,0.08,0.33c0.14,0.18,0.17,0.38,0.24,0.57c0.1,0.29,0.25,0.56,0.4,0.83
		c0.16,0.27,0.28,0.56,0.42,0.84c0.13,0.25,0.26,0.49,0.43,0.7c0.08,0.11,0.16,0.21,0.18,0.34c0.02,0.11,0.07,0.19,0.14,0.28
		c0.15,0.18,0.3,0.37,0.41,0.58c0.06,0.13,0.14,0.23,0.22,0.35c0.15,0.21,0.34,0.4,0.42,0.65c0.03,0.09,0.1,0.15,0.16,0.21
		c0.11,0.11,0.25,0.2,0.31,0.34c0.11,0.24,0.28,0.41,0.45,0.61c0.21,0.25,0.4,0.51,0.61,0.76c0.29,0.35,0.61,0.68,0.89,1.04
		c0.3,0.37,0.62,0.73,0.96,1.07c0.1,0.1,0.2,0.19,0.29,0.3c0.24,0.3,0.53,0.55,0.8,0.82c0.24,0.25,0.48,0.48,0.72,0.72
		c0.25,0.25,0.51,0.51,0.76,0.76c0.23,0.23,0.46,0.46,0.69,0.69c0.24,0.24,0.48,0.49,0.72,0.73c0.26,0.26,0.52,0.52,0.77,0.77
		c0.24,0.24,0.47,0.47,0.71,0.7c0.24,0.24,0.49,0.48,0.73,0.72c0.24,0.24,0.48,0.49,0.72,0.73c0.24,0.24,0.49,0.48,0.73,0.72
		c0.24,0.24,0.48,0.49,0.72,0.73c0.26,0.26,0.52,0.52,0.78,0.77c0.25,0.24,0.5,0.49,0.75,0.73c0.23,0.23,0.46,0.46,0.69,0.69
		c0.24,0.24,0.48,0.49,0.72,0.73c0.26,0.26,0.52,0.52,0.77,0.77c0.24,0.24,0.47,0.47,0.71,0.7c0.24,0.24,0.49,0.48,0.73,0.72
		c0.25,0.25,0.5,0.51,0.75,0.76c0.23,0.23,0.46,0.46,0.69,0.69c0.26,0.26,0.52,0.52,0.78,0.78c0.23,0.23,0.46,0.46,0.69,0.69
		c0.25,0.25,0.51,0.5,0.76,0.75c0.24,0.24,0.48,0.49,0.72,0.73c0.23,0.24,0.47,0.47,0.7,0.71c0.24,0.24,0.49,0.47,0.73,0.72
		c0.25,0.25,0.5,0.51,0.75,0.76c0.25,0.25,0.49,0.5,0.74,0.74c0.24,0.24,0.47,0.47,0.71,0.71c0.24,0.24,0.49,0.48,0.73,0.72
		c0.24,0.24,0.48,0.49,0.72,0.73c0.23,0.23,0.48,0.44,0.7,0.68c0.32,0.36,0.68,0.68,1.01,1.02c0.37,0.39,0.76,0.75,1.13,1.14
		c0.12,0.12,0.33,0.14,0.44,0.02c0.1-0.12,0.22-0.21,0.33-0.32c0.24-0.25,0.47-0.49,0.71-0.73c0.24-0.24,0.49-0.48,0.73-0.72
		c0.27-0.26,0.53-0.53,0.79-0.79c0.23-0.23,0.46-0.46,0.69-0.69c0.24-0.24,0.48-0.49,0.72-0.73c0.33-0.33,0.67-0.64,0.99-0.97
		c0.37-0.38,0.74-0.75,1.12-1.12c0.13-0.13,0.15-0.33,0.02-0.46c-0.21-0.22-0.43-0.42-0.64-0.63c-0.24-0.23-0.49-0.45-0.71-0.7
		c-0.32-0.37-0.7-0.68-1.03-1.04c-0.23-0.25-0.48-0.49-0.72-0.72c-0.34-0.32-0.66-0.67-0.99-1.01c-0.42-0.43-0.89-0.81-1.21-1.33
		c-0.2-0.33-0.35-0.66-0.42-1.03c-0.08-0.43-0.07-0.88,0.01-1.31c0.02-0.1,0.03-0.21,0.08-0.31c0.23-0.42,0.38-0.88,0.75-1.21
		c0.18-0.16,0.37-0.31,0.59-0.43c0.28-0.16,0.55-0.34,0.89-0.37c0.02,0,0.05-0.02,0.07-0.03c0.07-0.04,0.15-0.06,0.24-0.06
		c0.28,0,0.56,0,0.83,0c0.1,0,0.19,0.03,0.28,0.07c0.27,0.1,0.53,0.21,0.79,0.33c0.27,0.12,0.5,0.28,0.7,0.48
		c1.56,1.55,3.12,3.11,4.68,4.68c0.11,0.11,0.24,0.2,0.35,0.3c0.07,0.07,0.14,0.05,0.22,0c0.22-0.16,0.38-0.38,0.58-0.56
		c0.26-0.24,0.51-0.5,0.76-0.75c0.24-0.24,0.48-0.49,0.72-0.73c0.23-0.24,0.47-0.47,0.71-0.71c0.24-0.24,0.49-0.48,0.73-0.72
		c0.25-0.25,0.49-0.5,0.73-0.75c0.23-0.23,0.46-0.46,0.69-0.69c0.27-0.27,0.54-0.54,0.81-0.81c0.18-0.19,0.36-0.38,0.54-0.57
		c0.06-0.06,0.08-0.12,0.02-0.19c-0.1-0.11-0.19-0.23-0.29-0.33c-0.35-0.35-0.7-0.7-1.06-1.05c-0.24-0.23-0.47-0.47-0.71-0.71
		c-0.25-0.25-0.49-0.5-0.74-0.74c-0.23-0.24-0.47-0.47-0.71-0.71c-0.24-0.24-0.49-0.48-0.73-0.72c-0.24-0.24-0.47-0.49-0.72-0.73
		c-0.22-0.21-0.44-0.42-0.52-0.72c-0.01-0.04-0.03-0.08-0.06-0.11c-0.15-0.13-0.2-0.31-0.22-0.5c0-0.06-0.03-0.13-0.06-0.19
		c-0.05-0.11-0.07-0.22-0.07-0.33c0-0.26,0-0.52,0-0.78c0-0.11,0.03-0.21,0.06-0.31c0.08-0.34,0.26-0.63,0.4-0.94
		c0.15-0.33,0.41-0.6,0.69-0.81c0.23-0.17,0.48-0.32,0.76-0.43c0.57-0.23,1.14-0.23,1.73-0.18c0.27,0.03,0.51,0.15,0.76,0.26
		c0.41,0.18,0.76,0.43,1.06,0.76c0.22,0.25,0.47,0.47,0.71,0.71c0.24,0.24,0.49,0.48,0.73,0.72c0.24,0.24,0.47,0.49,0.72,0.73
		c0.24,0.24,0.5,0.46,0.73,0.72c0.32,0.36,0.69,0.67,1.01,1.02c0.24,0.26,0.51,0.5,0.75,0.76c0.17,0.17,0.38,0.18,0.55,0
		c0.15-0.16,0.31-0.31,0.47-0.46c0.23-0.23,0.46-0.46,0.69-0.69c0.26-0.26,0.52-0.51,0.77-0.78c0.24-0.26,0.52-0.49,0.75-0.76
		c0.22-0.26,0.47-0.49,0.71-0.74c0.23-0.24,0.48-0.46,0.7-0.71c0.22-0.25,0.39-0.54,0.65-0.76c0.4-0.33,0.67-0.78,1.01-1.16
		c0.16-0.19,0.13-0.33-0.07-0.49c-0.04-0.04-0.08-0.08-0.13-0.11c-0.3-0.24-0.55-0.53-0.83-0.79c-0.22-0.21-0.48-0.36-0.69-0.58
		c-0.31-0.33-0.61-0.66-0.99-0.91c-0.12-0.08-0.24-0.17-0.35-0.27c-0.32-0.3-0.63-0.61-0.93-0.93c-0.05-0.05-0.1-0.11-0.17-0.14
		c-0.13-0.04-0.22-0.13-0.31-0.23c-0.36-0.4-0.79-0.72-1.18-1.09c-0.11-0.1-0.24-0.17-0.35-0.27c-0.22-0.2-0.42-0.43-0.64-0.63
		c-0.15-0.13-0.29-0.29-0.45-0.4c-0.12-0.08-0.24-0.17-0.34-0.28c-0.37-0.39-0.78-0.74-1.19-1.09c-0.2-0.17-0.43-0.32-0.64-0.48
		c-0.29-0.22-0.64-0.32-0.94-0.51c-0.15-0.09-0.33-0.14-0.48-0.24c-0.08-0.06-0.18-0.08-0.28-0.09c-0.16-0.02-0.32-0.05-0.47-0.11
		c-0.26-0.12-0.53-0.17-0.81-0.17c-0.15,0-0.29-0.01-0.44-0.05c-0.13-0.04-0.27-0.05-0.41-0.05c-0.33,0-0.65-0.01-0.98,0.05
		c-0.35,0.07-0.72,0.08-1.06,0.19c-0.39,0.13-0.8,0.22-1.17,0.42c-0.12,0.07-0.25,0.12-0.37,0.19c-0.22,0.13-0.42,0.28-0.65,0.39
		c-0.24,0.12-0.44,0.29-0.62,0.47c-0.34,0.35-0.74,0.63-1.09,0.98c-0.17,0.16-0.37,0.3-0.52,0.48c-0.27,0.3-0.61,0.51-0.89,0.8
		c-0.15,0.16-0.32,0.3-0.48,0.45c-0.21,0.2-0.41,0.42-0.63,0.61c-0.42,0.35-0.81,0.73-1.23,1.08c-0.42,0.35-0.78,0.79-1.21,1.13
		c-0.27,0.21-0.52,0.47-0.76,0.72c-0.51,0.51-1.06,0.98-1.62,1.44c-0.16,0.13-0.32,0.25-0.5,0.34c-0.24,0.12-0.44,0.32-0.67,0.44
		c-0.3,0.16-0.59,0.33-0.9,0.46c-0.33,0.14-0.64,0.32-0.99,0.4c-0.04,0.01-0.07,0.04-0.1,0.06c-0.12,0.08-0.25,0.12-0.39,0.13
		C45.61,50,45.42,50,45.25,50.06c-0.37,0.14-0.76,0.17-1.15,0.25c-0.49,0.1-0.98,0.13-1.48,0.11c-0.35-0.01-0.7,0.05-1.04-0.09
		c-0.05-0.02-0.11-0.01-0.17-0.01c-0.26-0.02-0.52-0.04-0.78-0.07c-0.19-0.02-0.37-0.04-0.55-0.12c-0.19-0.08-0.39-0.13-0.59-0.16
		c-0.18-0.03-0.37-0.06-0.52-0.19c-0.05-0.04-0.12-0.06-0.18-0.07c-0.34-0.05-0.64-0.25-0.97-0.34c-0.05-0.01-0.1-0.05-0.15-0.08
		c-0.21-0.15-0.45-0.26-0.66-0.41c-0.15-0.11-0.29-0.25-0.47-0.3c-0.29-0.09-0.48-0.31-0.71-0.47c-0.18-0.13-0.3-0.32-0.5-0.43
		c-0.11-0.06-0.2-0.14-0.29-0.22c-0.37-0.33-0.68-0.7-0.98-1.09c-0.23-0.3-0.54-0.55-0.65-0.94c-0.01-0.04-0.05-0.06-0.07-0.1
		c-0.19-0.22-0.33-0.47-0.44-0.73c-0.12-0.29-0.33-0.54-0.41-0.86c-0.01-0.03-0.03-0.06-0.06-0.08c-0.08-0.1-0.12-0.21-0.14-0.33
		c-0.02-0.16-0.06-0.3-0.16-0.43c-0.09-0.11-0.11-0.25-0.13-0.39c-0.02-0.2-0.07-0.38-0.13-0.57c-0.09-0.27-0.17-0.54-0.17-0.84
		c0-0.13-0.01-0.27-0.05-0.39c-0.11-0.3-0.09-0.61-0.09-0.92c0-0.2,0-0.39,0-0.59c0.01-0.35-0.05-0.7,0.09-1.04
		c0.01-0.02,0.01-0.05,0.01-0.07c0.01-0.34,0.06-0.68,0.1-1.02c0.01-0.13,0.04-0.26,0.1-0.38c0.07-0.16,0.11-0.32,0.14-0.49
		c0.03-0.15,0.07-0.28,0.15-0.41c0.04-0.07,0.07-0.15,0.09-0.23c0.1-0.4,0.28-0.76,0.44-1.13c0.08-0.18,0.2-0.35,0.32-0.52
		c0.07-0.09,0.13-0.18,0.17-0.29c0.03-0.08,0.06-0.15,0.1-0.22c0.19-0.28,0.41-0.54,0.62-0.81c0.23-0.3,0.45-0.62,0.73-0.88
		c0.25-0.23,0.48-0.49,0.72-0.73c0.24-0.24,0.5-0.47,0.73-0.72c0.25-0.27,0.52-0.52,0.77-0.78c0.24-0.25,0.48-0.49,0.72-0.73
		c0.23-0.24,0.47-0.47,0.71-0.71c0.24-0.24,0.49-0.48,0.73-0.72c0.24-0.24,0.47-0.5,0.72-0.73c0.34-0.31,0.65-0.66,0.99-0.97
		c0.35-0.33,0.67-0.69,1.01-1.03c0.42-0.43,0.85-0.84,1.28-1.27c0.17-0.17,0.16-0.4-0.02-0.56c-0.36-0.31-0.75-0.56-1.13-0.85
		c-0.28-0.22-0.62-0.36-0.89-0.6c-0.19-0.17-0.44-0.25-0.64-0.41c-0.09-0.07-0.17-0.12-0.28-0.15c-0.3-0.09-0.53-0.32-0.84-0.39
		c-0.04-0.01-0.07-0.05-0.1-0.07c-0.06-0.06-0.14-0.09-0.21-0.11c-0.27-0.08-0.51-0.25-0.8-0.31c-0.05-0.01-0.11-0.04-0.15-0.08
		c-0.18-0.17-0.41-0.19-0.63-0.22c-0.15-0.02-0.32-0.02-0.45-0.1c-0.18-0.11-0.38-0.15-0.58-0.17c-0.27-0.03-0.53-0.09-0.78-0.19
		c-0.09-0.04-0.19-0.06-0.29-0.06c-0.5,0-0.98-0.19-1.48-0.16c-0.07,0-0.14-0.03-0.21-0.05c-0.08-0.02-0.16-0.04-0.24-0.04
		C32.75,18.82,32.19,18.72,31.62,18.78z M81.17,35.8c0-0.21,0.02-0.43,0-0.64c-0.05-0.42-0.05-0.85-0.08-1.27
		c-0.03-0.34-0.03-0.68-0.16-1.01c-0.02-0.06-0.03-0.13-0.03-0.19c0-0.15-0.04-0.29-0.07-0.43c-0.04-0.15-0.08-0.3-0.08-0.46
		c0-0.11-0.04-0.21-0.08-0.31c-0.11-0.27-0.18-0.54-0.21-0.83c-0.01-0.09-0.03-0.18-0.09-0.25c-0.14-0.17-0.19-0.38-0.2-0.59
		c-0.01-0.09-0.02-0.18-0.09-0.25c-0.13-0.12-0.17-0.27-0.2-0.44c-0.02-0.14-0.07-0.27-0.16-0.38c-0.04-0.05-0.07-0.11-0.09-0.17
		c-0.09-0.31-0.32-0.55-0.4-0.86c-0.01-0.03-0.03-0.06-0.05-0.08c-0.17-0.22-0.28-0.47-0.41-0.72c-0.07-0.14-0.14-0.27-0.24-0.39
		c-0.15-0.19-0.34-0.36-0.39-0.61c-0.01-0.06-0.05-0.1-0.1-0.14c-0.38-0.35-0.67-0.77-0.98-1.18c-0.32-0.42-0.72-0.78-1.08-1.16
		c-0.18-0.19-0.42-0.31-0.6-0.5c-0.26-0.27-0.58-0.48-0.86-0.72c-0.06-0.05-0.1-0.11-0.17-0.14c-0.25-0.11-0.43-0.32-0.67-0.44
		c-0.21-0.11-0.4-0.25-0.59-0.39c-0.1-0.08-0.2-0.14-0.31-0.18c-0.26-0.09-0.48-0.24-0.7-0.39c-0.11-0.07-0.21-0.15-0.34-0.17
		c-0.18-0.03-0.35-0.09-0.49-0.21c-0.05-0.04-0.11-0.07-0.17-0.09c-0.3-0.1-0.56-0.3-0.88-0.35c-0.03-0.01-0.06-0.02-0.09-0.04
		c-0.18-0.17-0.41-0.19-0.64-0.22c-0.18-0.02-0.36-0.05-0.52-0.14c-0.12-0.06-0.24-0.09-0.37-0.11c-0.31-0.04-0.62-0.07-0.9-0.23
		c-0.11-0.06-0.24-0.06-0.36-0.06c-0.23,0-0.46-0.03-0.68-0.08c-0.57-0.13-1.16-0.18-1.74-0.21c-0.85-0.04-1.7,0.04-2.54,0.05
		c-0.06,0-0.13,0.02-0.19,0.03c-0.36,0.07-0.72,0.12-1.09,0.16c-0.32,0.04-0.66,0.01-0.97,0.13c-0.36,0.13-0.72,0.19-1.1,0.22
		c-0.12,0.01-0.23,0.03-0.32,0.1c-0.16,0.13-0.35,0.17-0.55,0.19c-0.13,0.01-0.26,0.04-0.36,0.12c-0.11,0.09-0.24,0.14-0.38,0.16
		c-0.13,0.03-0.25,0.07-0.36,0.14c-0.08,0.05-0.18,0.09-0.27,0.11c-0.19,0.04-0.36,0.09-0.5,0.24c-0.04,0.04-0.1,0.06-0.15,0.07
		c-0.16,0.03-0.3,0.08-0.41,0.2c-0.04,0.04-0.1,0.06-0.15,0.08c-0.25,0.14-0.5,0.27-0.73,0.43c-0.14,0.09-0.3,0.14-0.42,0.24
		c-0.16,0.14-0.35,0.24-0.51,0.38c-0.16,0.14-0.33,0.27-0.5,0.39c-0.34,0.23-0.68,0.46-0.96,0.75c-0.29,0.3-0.65,0.51-0.95,0.8
		c-0.33,0.34-0.68,0.66-1.02,0.99c-0.24,0.24-0.49,0.48-0.73,0.72c-0.24,0.23-0.47,0.47-0.71,0.7c-0.23,0.23-0.45,0.46-0.68,0.7
		c-0.26,0.26-0.52,0.52-0.77,0.77c-0.24,0.24-0.47,0.47-0.71,0.71c-0.25,0.25-0.5,0.5-0.76,0.76c-0.24,0.24-0.47,0.47-0.71,0.71
		c-0.24,0.24-0.49,0.48-0.73,0.72c-0.24,0.24-0.47,0.49-0.71,0.73c-0.26,0.26-0.52,0.51-0.78,0.77c-0.23,0.23-0.46,0.46-0.69,0.69
		c-0.24,0.23-0.47,0.47-0.71,0.7c-0.26,0.26-0.53,0.53-0.79,0.79c-0.23,0.23-0.46,0.46-0.69,0.69c-0.24,0.24-0.47,0.49-0.72,0.73
		c-0.3,0.3-0.61,0.6-0.85,0.96c-0.26,0.39-0.49,0.78-0.64,1.23c-0.15,0.44-0.22,0.89-0.25,1.34c-0.04,0.45,0.07,0.89,0.12,1.34
		c0.04,0.39,0.27,0.69,0.38,1.05c0.03,0.09,0.14,0.15,0.16,0.24c0.09,0.27,0.28,0.46,0.46,0.66c0.45,0.5,0.95,0.94,1.55,1.25
		c0.28,0.14,0.6,0.2,0.88,0.34c0.01,0.01,0.03,0,0.05,0.01c0.5,0.09,1.01,0.08,1.51,0.1c0.64,0.03,1.21-0.24,1.8-0.41
		c0.05-0.02,0.09-0.06,0.14-0.1c0.05-0.04,0.1-0.08,0.16-0.11c0.33-0.16,0.62-0.39,0.88-0.64c0.37-0.36,0.75-0.71,1.15-1.02
		c0.54-0.42,0.96-0.97,1.52-1.38c0.26-0.19,0.5-0.44,0.72-0.69c0.2-0.23,0.43-0.43,0.66-0.62c0.32-0.25,0.6-0.55,0.92-0.8
		c0.43-0.32,0.75-0.77,1.18-1.09c0.25-0.19,0.49-0.43,0.71-0.67c0.22-0.24,0.45-0.47,0.7-0.68c0.37-0.3,0.77-0.55,1.11-0.87
		c0.16-0.15,0.36-0.28,0.55-0.4c0.23-0.15,0.5-0.23,0.71-0.43c0.05-0.05,0.13-0.07,0.2-0.09c0.08-0.02,0.15-0.06,0.22-0.1
		c0.25-0.18,0.56-0.25,0.82-0.43c0.03-0.02,0.08-0.03,0.12-0.04c0.4-0.12,0.78-0.33,1.19-0.41c0.02,0,0.03-0.01,0.04-0.02
		c0.2-0.12,0.43-0.16,0.66-0.17c0.16-0.01,0.31-0.03,0.44-0.13c0.06-0.05,0.13-0.05,0.21-0.07c0.47-0.07,0.95-0.05,1.4-0.22
		c0.07-0.03,0.16-0.02,0.24-0.02c0.59,0,1.18,0,1.76,0c0.08,0,0.17-0.01,0.24,0.02c0.35,0.14,0.72,0.11,1.09,0.13
		c0.33,0.02,0.67,0.04,0.99,0.16c0.39,0.16,0.82,0.21,1.2,0.4c0.03,0.01,0.06,0.01,0.1,0.02c0.36,0.07,0.68,0.26,1.03,0.36
		c0.05,0.01,0.09,0.04,0.13,0.08c0.08,0.06,0.17,0.1,0.26,0.14c0.3,0.11,0.57,0.28,0.85,0.42c0.39,0.2,0.75,0.45,1.11,0.7
		c0.52,0.38,1.04,0.75,1.49,1.22c0.04,0.04,0.08,0.08,0.12,0.12c0.17,0.16,0.34,0.32,0.53,0.47c0.15,0.12,0.31,0.23,0.46,0.37
		c0.2,0.19,0.4,0.38,0.6,0.57c0.33,0.33,0.73,0.58,1.04,0.92c0.1,0.11,0.21,0.21,0.31,0.31c0.15,0.15,0.3,0.3,0.47,0.42
		c0.18,0.13,0.36,0.26,0.51,0.41c0.16,0.15,0.3,0.33,0.47,0.46c0.66,0.49,1.2,1.12,1.85,1.63c0.34,0.26,0.63,0.59,0.94,0.89
		c0.08,0.08,0.16,0.16,0.28,0.19c0.14,0.03,0.27,0,0.32-0.12c0.08-0.22,0.21-0.41,0.29-0.62c0.1-0.25,0.19-0.5,0.29-0.75
		c0.13-0.31,0.24-0.64,0.33-0.97c0.14-0.48,0.33-0.94,0.38-1.44c0.02-0.15,0.06-0.29,0.12-0.42c0.07-0.14,0.08-0.3,0.09-0.45
		c0.01-0.36,0.03-0.72,0.06-1.07C81.13,36.68,81.19,36.25,81.17,35.8z"/>
</g>
</svg>
