<?xml version="1.0" encoding="utf-8"?>
<!-- Generator: Adobe Illustrator 28.2.0, SVG Export Plug-In . SVG Version: 6.00 Build 0)  -->
<svg version="1.1" id="Layer_1" xmlns="http://www.w3.org/2000/svg" xmlns:xlink="http://www.w3.org/1999/xlink" x="0px" y="0px"
	 viewBox="0 0 64 64" style="enable-background:new 0 0 64 64;" xml:space="preserve">
<style type="text/css">
	.st0{fill:#56BF92;}
</style>
<image style="overflow:visible;" width="3264" height="3264" xlink:href="20260224_050908.png"  transform="matrix(1.531863e-02 0 0 1.531863e-02 1632.4286 1607.4286)">
</image>
<image style="overflow:visible;" width="3264" height="3264" xlink:href="20260224_051042.png"  transform="matrix(2.463614e-03 0 0 2.105468e-03 149.4974 1.375)">
</image>
<image style="overflow:visible;" width="3264" height="3264" xlink:href="20260224_051146.png"  transform="matrix(2.147766e-03 0 0 1.835536e-03 158.7758 1.9917)">
</image>
<image style="overflow:visible;" width="3264" height="3264" xlink:href="20260224_051527.png"  transform="matrix(2.368860e-03 0 0 2.024488e-03 145.1675 11.6834)">
</image>
<image style="overflow:visible;" width="3264" height="3264" xlink:href="20260224_055528.png"  transform="matrix(9.475440e-05 0 0 8.097953e-05 125.0644 38.9961)">
</image>
<image style="overflow:visible;" width="3264" height="3264" xlink:href="20260224_061142.png"  transform="matrix(2.447822e-03 0 0 2.091971e-03 155.0129 21.2869)">
</image>
<image style="overflow:visible;" width="3264" height="3264" xlink:href="20260224_061209.png"  transform="matrix(2.242521e-03 0 0 1.916516e-03 155.0129 10.8904)">
</image>
<g>
	<path class="st0" d="M22.1,53.4c0-0.4,0-0.9,0-1.3c0-0.2,0-0.2-0.2-0.3c-0.2,0-0.4-0.1-0.6-0.1c-0.3-0.1-0.5-0.1-0.8-0.2
		c-0.2-0.1-0.4-0.1-0.7-0.2c-0.1,0-0.3-0.1-0.4-0.1c-0.3-0.1-0.6-0.2-0.9-0.3c-0.2-0.1-0.5-0.2-0.8-0.3c-0.2-0.1-0.4-0.2-0.6-0.2
		c-0.2-0.1-0.4-0.2-0.7-0.3c-0.4-0.2-0.7-0.4-1-0.5c-0.7-0.4-1.4-0.9-2-1.4c-0.4-0.3-0.8-0.7-1.1-1.1c-0.2-0.2-0.4-0.5-0.6-0.8
		c-0.3-0.3-0.5-0.7-0.8-1c-0.4-0.5-0.8-1-1.2-1.4c-0.2-0.2-0.5-0.4-0.8-0.6C8.6,43.1,8.3,43,8,42.8c-0.3-0.2-0.5-0.5-0.7-0.9
		c-0.1-0.1-0.1-0.3-0.2-0.4c-0.1-0.1,0-0.3-0.1-0.5c0-0.3,0-0.5,0-0.8c0-0.2,0.1-0.4,0.3-0.6c0.1-0.3,0.3-0.5,0.6-0.7
		c0.2-0.2,0.4-0.3,0.6-0.4c0.3-0.1,0.6-0.2,1-0.2c0.1,0,0.1,0,0.2,0c0.5,0,0.9,0.2,1.4,0.5c0.5,0.3,0.9,0.6,1.3,0.9
		c0.2,0.2,0.5,0.4,0.7,0.6c0.6,0.5,1.1,1.1,1.6,1.7c0.3,0.4,0.7,0.9,1,1.3c0.5,0.7,1.1,1.3,1.9,1.7c0.3,0.2,0.7,0.4,1,0.6
		c0.3,0.1,0.6,0.3,0.9,0.4c0.2,0,0.3,0.1,0.5,0.2c0.1,0.1,0.3,0.1,0.4,0.1c0.2,0.1,0.5,0.2,0.7,0.2c0.3,0.1,0.5,0.2,0.8,0.2
		c0.1,0,0.2,0,0.2-0.2c-0.1-0.6-0.1-1.2,0-1.9c0-0.3,0.1-0.7,0.1-1c0-0.1,0-0.2,0-0.3c0-0.2,0-0.4,0.1-0.6c0-0.1,0-0.1-0.1-0.2
		c-0.1,0-0.1-0.1-0.2-0.1c-0.2,0-0.4-0.1-0.6-0.2c-0.3-0.1-0.6-0.2-0.9-0.3c-0.2-0.1-0.4-0.2-0.6-0.3c-0.2-0.1-0.4-0.2-0.6-0.3
		c-0.4-0.2-0.8-0.4-1.2-0.6c-0.1-0.1-0.3-0.2-0.4-0.3c-0.6-0.4-1.1-0.8-1.7-1.2c-0.5-0.4-1-0.9-1.4-1.4c-0.3-0.4-0.6-0.7-0.9-1.1
		c-0.3-0.4-0.5-0.8-0.8-1.2c-0.2-0.3-0.3-0.7-0.5-1c-0.2-0.4-0.3-0.8-0.5-1.2c-0.1-0.3-0.2-0.5-0.2-0.8c-0.1-0.2-0.1-0.4-0.2-0.6
		c-0.1-0.2-0.1-0.4-0.1-0.6c0-0.2-0.1-0.3-0.1-0.5c0-0.4-0.2-0.7-0.2-1.1c0-0.1,0-0.1,0-0.2c0-0.2-0.1-0.4-0.1-0.6
		c0-0.3,0-0.5-0.1-0.7c0-0.3,0-0.5,0-0.8c0-0.9,0-1.7,0-2.6c0-0.5,0-1,0-1.5c0-0.1,0-0.2,0-0.3C11,23,11,22.7,11,22.4
		c0-0.2,0.1-0.4,0.1-0.6c0-0.1,0-0.2,0.1-0.3c0-0.1,0-0.2,0-0.2c0-0.1,0-0.2,0.1-0.3c0-0.1,0.1-0.2,0.1-0.3c0-0.2,0.1-0.4,0.2-0.6
		c0,0,0-0.1,0-0.1c0.1-0.4,0.3-0.8,0.4-1.3c0.2-0.4,0.3-0.7,0.5-1.1c0.2-0.3,0.3-0.6,0.5-0.9c0.1-0.1,0.1-0.2,0-0.3
		C13,16.3,13,16.1,12.9,16c0-0.1,0-0.1,0-0.2c0-0.1-0.1-0.2-0.1-0.3c0-0.4-0.1-0.9-0.1-1.3c0-0.4,0-0.9,0-1.3c0-0.4,0-0.8,0.1-1.2
		c0-0.1,0-0.1,0-0.2c0-0.2,0-0.4,0.1-0.5c0-0.1,0-0.1,0-0.2c0,0,0-0.1,0-0.1c0.1-0.3,0.1-0.5,0.2-0.8c0.1-0.2,0.1-0.4,0.2-0.6
		c0.1-0.5,0.3-1,0.7-1.4c0.3-0.3,0.6-0.5,1-0.6c0.4-0.1,0.7-0.1,1.1-0.1c0.2,0,0.4,0,0.6,0c0.3,0,0.5,0,0.7,0.1c0,0,0,0,0,0
		c0.3,0,0.6,0.1,0.9,0.1c0.1,0,0.2,0.1,0.3,0.1c0.2,0,0.4,0.1,0.6,0.2c0.1,0,0.2,0.1,0.3,0.1c0.2,0.1,0.4,0.1,0.6,0.2
		c0.1,0.1,0.2,0.1,0.3,0.1c0.4,0.2,0.8,0.4,1.3,0.5c0.6,0.3,1.2,0.6,1.7,0.9c0.5,0.3,1,0.6,1.4,0.9c0.1,0.1,0.2,0.1,0.4,0
		c0.3-0.1,0.6-0.1,0.8-0.2c0.2-0.1,0.5-0.1,0.7-0.2c0,0,0.1,0,0.1,0c0.3,0,0.6-0.1,0.9-0.1c0.3,0,0.6-0.1,0.9-0.1
		c0.4-0.1,0.7-0.1,1.1-0.1c0.2,0,0.4-0.1,0.7-0.1c0.1,0,0.2,0,0.3,0c0.7,0,1.4,0,2.1,0c0.4,0,0.7,0,1.1,0.1c0.1,0,0.3,0,0.4,0
		c0.3,0,0.5,0,0.8,0.1c0.1,0,0.2,0,0.3,0c0.2,0,0.4,0.1,0.6,0.1c0.3,0,0.6,0.1,0.9,0.2c0.2,0,0.5,0.1,0.7,0.2c0.1,0,0.2,0,0.2,0
		c0.2,0.1,0.4,0.1,0.6,0.2c0.2,0.1,0.4,0.1,0.5-0.1c0.5-0.4,1-0.7,1.5-1c0.5-0.3,1-0.6,1.6-0.8c0.3-0.1,0.5-0.2,0.8-0.4
		c0.2-0.1,0.5-0.2,0.7-0.3c0.2-0.1,0.4-0.1,0.5-0.2c0.1,0,0.3-0.1,0.4-0.1c0.2,0,0.4-0.1,0.6-0.2c0.2,0,0.4-0.1,0.7-0.2
		c0.2-0.1,0.4-0.1,0.5-0.1c0.1,0,0.2,0,0.3,0c0.2,0,0.3-0.1,0.5-0.1c0.3,0,0.6,0,0.9,0C49,7,49.7,7.3,50.3,8
		c0.2,0.3,0.3,0.5,0.5,0.9c0.1,0.3,0.2,0.5,0.2,0.8c0.1,0.2,0.1,0.5,0.2,0.7c0.1,0.4,0.2,0.8,0.2,1.2c0,0,0,0.1,0,0.1
		c0.1,0.5,0.1,1,0.1,1.5c0,0.2,0,0.4,0,0.6c0,0.4,0,0.8-0.1,1.2c0,0.1,0,0.2,0,0.3c0,0.3-0.1,0.6-0.1,0.9c0,0,0,0.1,0,0.1
		c-0.1,0.2-0.1,0.3,0.1,0.5c0.2,0.4,0.4,0.8,0.6,1.2c0.1,0.2,0.2,0.4,0.3,0.6c0.1,0.3,0.2,0.5,0.3,0.8c0,0.1,0.1,0.3,0.1,0.4
		c0.1,0.2,0.2,0.4,0.2,0.6c0,0,0,0.1,0,0.1c0,0,0,0.1,0,0.1c0,0.2,0.1,0.5,0.1,0.7c0,0.1,0,0.1,0,0.2c0.1,0.3,0.1,0.7,0.2,1
		c0,0.1,0,0.3,0,0.4c0.1,0.7,0.2,1.4,0.1,2.2c0,0.3,0.1,0.5,0,0.8c0,0.7,0,1.4,0,2.1c0,0.3,0,0.5-0.1,0.8c0,0.2,0,0.4-0.1,0.7
		c0,0.1,0,0.3-0.1,0.4c0,0.2-0.1,0.3-0.1,0.5c0,0,0,0.1,0,0.1C53,30.6,53,30.8,52.9,31c-0.1,0.3-0.1,0.7-0.2,1
		c-0.1,0.2-0.1,0.4-0.2,0.7c-0.1,0.2-0.1,0.4-0.2,0.6c0,0.1-0.1,0.3-0.1,0.4c-0.2,0.4-0.3,0.9-0.5,1.3c-0.1,0.3-0.3,0.5-0.4,0.8
		c-0.1,0.1-0.1,0.2-0.2,0.3c-0.2,0.4-0.4,0.7-0.7,1c-0.2,0.2-0.3,0.4-0.5,0.6c-0.3,0.3-0.5,0.6-0.8,0.9c-0.4,0.3-0.8,0.7-1.2,1
		c-0.3,0.2-0.5,0.4-0.8,0.6c-0.6,0.4-1.1,0.8-1.8,1.1c-0.4,0.2-0.8,0.4-1.2,0.6c-0.4,0.2-0.8,0.3-1.2,0.5c-0.2,0.1-0.3,0.1-0.5,0.2
		c0,0-0.1,0-0.2,0c-0.1,0-0.1,0-0.2,0.1c-0.1,0.1-0.1,0.1-0.1,0.2c0,0.2,0.1,0.3,0.1,0.5c0,0.3,0,0.5,0.1,0.8c0,0.1,0,0.2,0,0.2
		c0,0.6,0,1.2,0,1.7c-0.1,2.7,0,5.5,0,8.2c0,0.2,0,0.5,0,0.7c0,0.3-0.2,0.5-0.3,0.7c-0.2,0.4-0.5,0.7-0.9,1
		c-0.2,0.1-0.4,0.2-0.6,0.3c-0.3,0-0.5,0.1-0.8,0.1c-0.3,0-0.5-0.1-0.7-0.2c-0.1,0-0.2-0.1-0.3-0.1c-0.5-0.3-0.9-0.7-1.1-1.2
		c-0.1-0.3-0.2-0.6-0.2-1c0-1.3,0-2.6,0-4c0-1.4,0-2.7,0-4.1c0-0.6,0-1.2,0-1.8c0-0.2,0-0.5-0.1-0.7c0-0.1,0-0.3,0-0.4
		c0-0.1,0-0.2-0.1-0.3c-0.1-0.1-0.1-0.3-0.2-0.4c-0.1-0.1-0.1-0.2-0.2-0.2c-0.2-0.2-0.4-0.4-0.5-0.7c-0.2-0.3-0.3-0.6-0.3-1
		c0-0.1,0-0.1,0-0.2c0-0.2,0-0.4,0.1-0.7c0.1-0.2,0.1-0.4,0.3-0.6c0.3-0.4,0.6-0.8,1.1-1c0.4-0.2,0.8-0.3,1.2-0.3
		c0.2,0,0.4,0,0.6-0.1c0.1,0,0.1,0,0.2,0c0.2,0,0.3,0,0.5-0.1c0.1,0,0.1,0,0.2,0c0.1,0,0.2,0,0.3-0.1c0,0,0.1,0,0.1,0
		c0.3,0,0.5-0.1,0.7-0.2c0.2,0,0.3-0.1,0.5-0.2c0.1,0,0.2-0.1,0.3-0.1c0.4-0.2,0.9-0.4,1.3-0.6c0.5-0.3,0.9-0.6,1.4-0.9
		c0.5-0.4,0.9-0.8,1.4-1.2c0.3-0.3,0.5-0.7,0.7-1c0.2-0.4,0.4-0.7,0.6-1.1c0.1-0.3,0.2-0.5,0.3-0.8c0.1-0.2,0.1-0.4,0.2-0.5
		c0,0,0-0.1,0-0.1c0,0,0-0.1,0-0.1c0.1-0.2,0.1-0.5,0.2-0.7c0,0,0-0.1,0-0.1c0-0.4,0.2-0.8,0.2-1.2c0-0.3,0.1-0.5,0.1-0.8
		c0-0.1,0-0.1,0-0.2c0-0.5,0-1,0-1.4c0-0.2,0-0.5,0-0.7c0-0.4,0-0.7-0.1-1.1c0-0.2,0-0.3,0-0.5c0-0.3,0-0.6-0.1-0.9
		c0-0.1,0-0.2,0-0.3c0-0.3-0.1-0.6-0.2-0.8c0-0.2-0.1-0.4-0.2-0.6c-0.1-0.1-0.1-0.3-0.1-0.5c-0.1-0.2-0.1-0.4-0.2-0.5
		c-0.1-0.4-0.3-0.7-0.5-1.1c-0.1-0.3-0.3-0.5-0.5-0.7c-0.2-0.3-0.4-0.5-0.5-0.9c-0.1-0.4-0.2-0.8-0.1-1.2c0.1-0.2,0.1-0.4,0.2-0.6
		c0.1-0.2,0.1-0.4,0.2-0.6c0-0.1,0-0.2,0-0.3c0.2-0.8,0.1-1.7,0.1-2.5c0-0.2-0.1-0.2-0.2-0.2c-0.2,0.1-0.4,0.1-0.6,0.2
		c-0.2,0.1-0.4,0.2-0.7,0.3c-0.3,0.1-0.6,0.3-0.9,0.4c-0.3,0.2-0.6,0.3-0.9,0.5c-0.6,0.3-1.1,0.8-1.7,1.2c-0.2,0.2-0.4,0.4-0.7,0.5
		c-0.2,0.1-0.4,0.2-0.6,0.3c-0.3,0.1-0.5,0.1-0.8,0.1c-0.3,0-0.5-0.1-0.8-0.2c-0.3-0.1-0.7-0.2-1-0.3c-0.2-0.1-0.4-0.2-0.6-0.2
		c0,0-0.1,0-0.1,0c-0.1,0-0.2-0.1-0.2-0.1c0,0-0.1,0-0.1,0C36.3,15,36,15,35.8,14.9c-0.1,0-0.2-0.1-0.3-0.1c-0.2,0-0.3,0-0.5-0.1
		c-0.1,0-0.2-0.1-0.3-0.1c-0.3,0-0.6-0.1-0.9-0.1c-0.1,0-0.1,0-0.2,0c-0.9,0-1.9,0-2.8,0c-0.1,0-0.2,0-0.4,0c-0.3,0.1-0.7,0-1,0.1
		c-0.3,0.1-0.7,0.1-1,0.2c-0.1,0-0.2,0-0.2,0c-0.1,0-0.2,0-0.3,0.1c-0.1,0-0.1,0-0.2,0c-0.1,0-0.2,0-0.3,0.1c-0.1,0-0.1,0-0.2,0
		c-0.1,0-0.2,0-0.2,0.1c0,0-0.1,0-0.1,0c-0.3,0-0.5,0.2-0.8,0.2c-0.2,0.1-0.4,0.1-0.6,0.2c-0.3,0.1-0.6,0.1-0.9,0.1
		c-0.4,0-0.8-0.1-1.2-0.3c-0.2-0.1-0.4-0.3-0.6-0.4c-0.4-0.4-0.9-0.7-1.4-1c-0.3-0.2-0.7-0.4-1.1-0.7c-0.3-0.2-0.7-0.4-1.1-0.5
		c-0.2-0.1-0.5-0.2-0.7-0.3c-0.2-0.1-0.4-0.1-0.5-0.2c-0.1-0.1-0.2,0-0.2,0.1c0,0.4-0.1,0.8,0,1.2c0,0.1,0,0.2,0,0.3
		c0,0.3,0,0.6,0.1,0.8c0,0.1,0,0.1,0,0.2c0,0.3,0.1,0.5,0.2,0.8c0.1,0.4,0.3,0.8,0.3,1.2c0,0.3-0.1,0.6-0.2,0.8
		c-0.1,0.3-0.3,0.5-0.4,0.8c-0.2,0.3-0.5,0.7-0.7,1.1c-0.1,0.3-0.3,0.6-0.4,0.9c-0.1,0.3-0.2,0.5-0.3,0.8c-0.1,0.2-0.1,0.4-0.2,0.6
		c0,0,0,0,0,0c0,0.3-0.2,0.6-0.2,0.9c0,0.1,0,0.3-0.1,0.4c0,0.2-0.1,0.3-0.1,0.5c0,0.4,0,0.8-0.1,1.2c0,0.5,0,1.1,0,1.6
		c0,0,0,0,0,0.1c0,0.3,0,0.7,0,1c0,0.3,0,0.6,0.1,0.9c0,0,0,0,0,0c0,0.4,0.1,0.8,0.1,1.1c0,0,0,0.1,0,0.1c0.1,0.3,0.1,0.6,0.2,0.9
		c0.1,0.2,0.1,0.4,0.2,0.7c0,0.1,0.1,0.3,0.1,0.4c0.1,0.1,0.1,0.3,0.2,0.4c0.1,0.3,0.2,0.5,0.3,0.7c0.1,0.3,0.4,0.7,0.6,1
		c0.1,0.2,0.3,0.4,0.5,0.6c0.4,0.4,0.8,0.7,1.2,1.1c0.5,0.4,1,0.8,1.6,1.1c0.4,0.2,0.7,0.4,1.1,0.5c0.2,0.1,0.5,0.2,0.7,0.3
		c0.2,0.1,0.3,0.1,0.5,0.2c0.2,0,0.3,0.1,0.5,0.1c0.3,0.1,0.5,0.1,0.8,0.2c0.3,0.1,0.6,0.1,0.9,0.1c0.3,0,0.7,0.1,1,0.1
		c0.2,0,0.4,0.1,0.6,0.3c0.2,0.2,0.5,0.3,0.7,0.5c0.2,0.3,0.4,0.6,0.5,0.9c0.1,0.3,0.1,0.6,0.1,0.9c0,0.3-0.1,0.6-0.2,0.8
		C28.1,41.9,28,42,28,42.1c-0.1,0.2-0.2,0.3-0.4,0.5c-0.2,0.1-0.2,0.3-0.3,0.5c-0.1,0.4-0.1,0.8-0.2,1.1c0,0.1,0,0.2,0,0.2
		c0,0.7,0,1.3,0,2c0.1,2.6,0,5.3,0,7.9c0,0.2,0,0.5,0,0.7c0,0.3-0.1,0.5-0.3,0.7c-0.2,0.4-0.5,0.7-1,1c-0.2,0.1-0.4,0.2-0.6,0.3
		c-0.3,0-0.5,0.1-0.8,0.1c-0.2,0-0.5-0.1-0.7-0.2c-0.1,0-0.2-0.1-0.3-0.1c-0.5-0.3-0.9-0.7-1.1-1.2c-0.1-0.3-0.2-0.6-0.2-0.9
		C22.1,54.2,22.1,53.8,22.1,53.4C22.1,53.4,22.1,53.4,22.1,53.4z"/>
</g>
</svg>
