<?xml version="1.0" encoding="utf-8"?>
<!-- Generator: Adobe Illustrator 28.2.0, SVG Export Plug-In . SVG Version: 6.00 Build 0)  -->
<svg version="1.1" id="Layer_1" xmlns="http://www.w3.org/2000/svg" xmlns:xlink="http://www.w3.org/1999/xlink" x="0px" y="0px"
	 viewBox="0 0 64 64" style="enable-background:new 0 0 64 64;" xml:space="preserve">
<style type="text/css">
	.st0{fill:#56BF92;}
</style>
<image style="overflow:visible;" width="3264" height="3264" xlink:href="20260224_050908.png"  transform="matrix(1.531863e-02 0 0 1.531863e-02 1632.4286 1607.4286)">
</image>
<image style="overflow:visible;" width="3264" height="3264" xlink:href="20260224_051042.png"  transform="matrix(2.463614e-03 0 0 2.105468e-03 149.4974 1.375)">
</image>
<image style="overflow:visible;" width="3264" height="3264" xlink:href="20260224_051146.png"  transform="matrix(2.147766e-03 0 0 1.835536e-03 158.7758 1.9917)">
</image>
<image style="overflow:visible;" width="3264" height="3264" xlink:href="20260224_055528.png"  transform="matrix(9.475440e-05 0 0 8.097953e-05 125.0644 38.9961)">
</image>
<g>
	<path class="st0" d="M18.2,10.7c2.2,0,4.3,0,6.5,0c0.1,0,0.2,0,0.3,0c0.2,0,0.4,0.1,0.5,0.3c0.1,0.2,0.3,0.4,0.4,0.6
		c0.2,0.3,0.4,0.6,0.7,0.9c0.3,0.3,0.5,0.7,0.8,1c0.3,0.4,0.6,0.8,0.9,1.2c0.2,0.2,0.3,0.5,0.6,0.7c0.1,0.1,0.1,0.2,0.2,0.3
		c0.3,0.4,0.6,0.8,0.9,1.2c0.2,0.2,0.4,0.5,0.5,0.7c0.3,0.4,0.6,0.9,1,1.3c0.3,0.3,0.5,0.7,0.8,1c0.3,0.5,0.7,0.9,1,1.4
		c0.2,0.3,0.5,0.6,0.7,1c0.3,0.4,0.7,0.9,1,1.3c0.1,0.1,0.2,0.1,0.4,0c0.4-0.4,0.7-0.8,1.1-1.2c0.2-0.2,0.4-0.5,0.6-0.7
		c0.3-0.4,0.6-0.7,1-1.1c0.3-0.3,0.6-0.7,0.9-1c0.2-0.2,0.4-0.4,0.6-0.7c0.2-0.2,0.4-0.5,0.6-0.7c0.3-0.4,0.6-0.7,0.9-1.1
		c0.2-0.2,0.4-0.5,0.6-0.7c0.2-0.2,0.4-0.5,0.6-0.7c0.2-0.2,0.4-0.4,0.6-0.7c0.3-0.4,0.6-0.7,0.9-1.1c0.2-0.2,0.4-0.5,0.6-0.7
		c0.4-0.4,0.8-0.9,1.1-1.3c0.3-0.4,0.6-0.7,1-1.1c0.1-0.1,0.2-0.2,0.4-0.2c0.1,0,0.1,0,0.2,0c2,0,3.9,0,5.9,0c0.1,0,0.1,0,0.2,0
		c0.2,0,0.3,0.2,0.2,0.3c-0.1,0.1-0.1,0.2-0.2,0.3c-0.2,0.1-0.3,0.3-0.4,0.5c-0.2,0.3-0.5,0.5-0.7,0.8c-0.4,0.5-0.8,0.9-1.2,1.4
		c-0.2,0.2-0.3,0.4-0.5,0.6c-0.4,0.5-0.8,0.9-1.2,1.4c-0.2,0.3-0.4,0.5-0.7,0.8c-0.3,0.3-0.5,0.6-0.8,0.9c-0.3,0.3-0.6,0.7-0.9,1
		c-0.2,0.2-0.4,0.4-0.6,0.7c-0.2,0.3-0.5,0.5-0.7,0.8c-0.3,0.3-0.6,0.7-0.9,1c-0.2,0.2-0.4,0.4-0.6,0.7c-0.1,0.1-0.3,0.3-0.4,0.5
		c-0.2,0.2-0.3,0.4-0.5,0.6c-0.2,0.3-0.5,0.5-0.7,0.8c-0.3,0.4-0.7,0.7-1,1.1c-0.2,0.2-0.4,0.5-0.6,0.7c-0.4,0.5-0.8,0.9-1.2,1.4
		c-0.3,0.4-0.6,0.7-1,1.1c-0.1,0.1-0.1,0.1-0.1,0.2c0,0.1,0.1,0.2,0.2,0.4c0.3,0.3,0.5,0.7,0.8,1.1c0.1,0.1,0.2,0.3,0.3,0.4
		c0.2,0.3,0.4,0.6,0.7,0.9c0.2,0.3,0.5,0.6,0.7,0.9c0.2,0.2,0.4,0.5,0.5,0.7c0.3,0.3,0.5,0.7,0.8,1c0.3,0.4,0.6,0.7,0.8,1.1
		c0.1,0.2,0.3,0.4,0.4,0.5c0.2,0.2,0.4,0.5,0.5,0.7c0.1,0.1,0.1,0.2,0.2,0.3c0,0,0.1,0.1,0.1,0.1c0.3,0.3,0.6,0.7,0.8,1.1
		c0,0,0,0.1,0.1,0.1c0.3,0.3,0.5,0.7,0.8,1c0.1,0.1,0.2,0.2,0.3,0.3c0.2,0.2,0.3,0.4,0.5,0.6c0.2,0.3,0.5,0.6,0.7,1
		c0,0.1,0.1,0.1,0.1,0.1c0.3,0.4,0.6,0.7,0.8,1.1c0.1,0.2,0.3,0.4,0.4,0.6c0.1,0.1,0.2,0.3,0.3,0.4c0.2,0.2,0.4,0.5,0.5,0.7
		c0.2,0.3,0.5,0.7,0.7,1c0.2,0.2,0.4,0.5,0.6,0.7c0.3,0.4,0.6,0.8,0.9,1.2c0.1,0.2,0.3,0.4,0.5,0.6c0.2,0.2,0.3,0.4,0.5,0.7
		c0.1,0.1,0.1,0.2,0.2,0.2c0.3,0.3,0.5,0.6,0.7,0.9c0.3,0.4,0.7,0.9,1,1.3c0.3,0.4,0.6,0.8,0.9,1.2c0.1,0.1,0.1,0.2,0.2,0.3
		c0.1,0.2,0,0.3-0.1,0.3c-0.1,0-0.1,0-0.2,0c-0.1,0-0.3,0-0.4,0c-4.2,0-8.3,0-12.5,0c-0.3,0-0.6-0.1-0.8-0.4
		c-0.3-0.4-0.6-0.8-0.9-1.2c-0.1-0.2-0.3-0.4-0.4-0.5c-0.3-0.4-0.7-0.9-1-1.3c-0.5-0.6-0.9-1.2-1.4-1.8c-0.2-0.3-0.5-0.6-0.7-0.9
		c-0.2-0.3-0.4-0.5-0.6-0.8c-0.2-0.3-0.4-0.6-0.7-0.9c-0.3-0.4-0.6-0.8-0.9-1.2c-0.4-0.5-0.7-1-1.1-1.4c-0.3-0.4-0.6-0.8-0.9-1.2
		c-0.3-0.4-0.6-0.7-0.8-1.1c-0.2-0.3-0.5-0.7-0.8-1c-0.1-0.1-0.1-0.2-0.2-0.3c-0.2-0.1-0.2-0.1-0.4,0c-0.2,0.2-0.3,0.4-0.5,0.6
		c-0.3,0.3-0.5,0.6-0.8,1c-0.2,0.3-0.5,0.5-0.7,0.9c0,0.1-0.1,0.1-0.1,0.1c-0.3,0.3-0.5,0.6-0.8,0.9c-0.4,0.5-0.9,1.1-1.4,1.6
		c-0.2,0.3-0.5,0.6-0.7,0.8c-0.2,0.3-0.4,0.5-0.7,0.8c-0.2,0.2-0.4,0.5-0.6,0.7c-0.2,0.3-0.5,0.6-0.7,0.9c-0.4,0.5-0.8,0.9-1.2,1.4
		c-0.3,0.3-0.6,0.7-0.9,1c-0.3,0.3-0.5,0.6-0.8,0.9c-0.2,0.3-0.4,0.5-0.7,0.7c-0.3,0.3-0.5,0.6-0.8,0.9c-0.2,0.2-0.4,0.5-0.6,0.7
		c-0.1,0.1-0.3,0.1-0.4,0.2c0,0-0.1,0-0.1,0c-1.9,0-3.9,0-5.8,0c-0.1,0-0.2,0-0.2,0c-0.2,0-0.3-0.2-0.1-0.4c0.2-0.3,0.4-0.5,0.6-0.7
		c0.3-0.3,0.5-0.6,0.8-0.9c0.3-0.4,0.7-0.8,1-1.2c0.2-0.2,0.4-0.5,0.6-0.7c0.3-0.4,0.7-0.8,1-1.1c0.3-0.4,0.7-0.8,1-1.2
		c0.2-0.2,0.4-0.4,0.6-0.7c0.2-0.3,0.5-0.5,0.7-0.8c0.2-0.3,0.5-0.5,0.7-0.8c0.4-0.5,0.8-0.9,1.2-1.4c0.2-0.3,0.5-0.6,0.7-0.9
		c0.2-0.2,0.4-0.5,0.6-0.7c0.2-0.2,0.4-0.4,0.6-0.7c0.3-0.4,0.6-0.7,0.9-1.1c0.2-0.2,0.4-0.5,0.6-0.7c0.2-0.2,0.4-0.4,0.6-0.6
		c0.4-0.4,0.8-0.9,1.1-1.3c0.2-0.3,0.5-0.5,0.7-0.8c0.2-0.3,0.5-0.5,0.7-0.8c0.2-0.3,0.5-0.6,0.7-0.8c0,0,0.1-0.1,0.1-0.1
		c0.1-0.1,0.1-0.2,0-0.3c-0.2-0.3-0.4-0.6-0.7-0.9c-0.2-0.2-0.3-0.4-0.5-0.6c-0.1-0.2-0.3-0.4-0.5-0.6c-0.1-0.1-0.2-0.2-0.2-0.3
		c-0.2-0.3-0.4-0.6-0.7-0.9c-0.2-0.3-0.5-0.6-0.7-0.9c-0.2-0.2-0.3-0.4-0.5-0.6c-0.2-0.3-0.4-0.5-0.6-0.8c-0.2-0.2-0.3-0.4-0.5-0.7
		c-0.2-0.2-0.3-0.4-0.5-0.6c-0.3-0.4-0.7-0.9-1-1.3c-0.4-0.5-0.7-0.9-1.1-1.4c-0.2-0.3-0.4-0.5-0.6-0.8c-0.2-0.3-0.5-0.6-0.7-0.9
		c-0.3-0.4-0.6-0.8-0.9-1.2c-0.5-0.7-1-1.3-1.5-2c-0.4-0.5-0.7-0.9-1.1-1.4c-0.4-0.5-0.7-0.9-1.1-1.4c-0.2-0.3-0.4-0.5-0.6-0.8
		c-0.2-0.2-0.4-0.5-0.6-0.7c-0.1-0.2-0.3-0.4-0.4-0.5c-0.2-0.3-0.4-0.6-0.6-0.9c-0.1-0.2-0.3-0.4-0.4-0.6c-0.2-0.3-0.4-0.6-0.7-0.9
		c0-0.1-0.1-0.1-0.1-0.2c-0.1-0.2,0-0.3,0.2-0.3c0.1,0,0.2,0,0.3,0C13.8,10.7,16,10.7,18.2,10.7C18.2,10.7,18.2,10.7,18.2,10.7z
		 M45.8,47.4C45.8,47.4,45.8,47.4,45.8,47.4c0.5,0,0.9,0,1.4,0c0.1,0,0.1,0,0.2,0c0.2,0,0.2-0.1,0.1-0.3c-0.2-0.2-0.4-0.5-0.5-0.7
		c-0.4-0.5-0.8-1.1-1.2-1.6c-0.2-0.2-0.4-0.5-0.6-0.7c-0.2-0.3-0.5-0.6-0.7-1c-0.2-0.3-0.4-0.5-0.6-0.8c-0.2-0.3-0.5-0.6-0.7-1
		c-0.2-0.2-0.3-0.4-0.5-0.7c-0.1-0.2-0.3-0.4-0.4-0.5c-0.2-0.3-0.5-0.6-0.7-0.9c-0.2-0.3-0.4-0.6-0.7-0.9c-0.3-0.3-0.5-0.7-0.8-1
		c-0.2-0.3-0.4-0.6-0.6-0.9c-0.2-0.2-0.3-0.4-0.5-0.6c-0.1-0.2-0.2-0.3-0.3-0.5c-0.3-0.4-0.7-0.9-1-1.3c-0.1-0.2-0.2-0.3-0.3-0.5
		c-0.2-0.2-0.3-0.4-0.5-0.6c-0.3-0.4-0.6-0.8-0.9-1.2c-0.4-0.4-0.7-0.9-1-1.4c-0.2-0.3-0.5-0.6-0.7-0.9c-0.3-0.4-0.6-0.9-1-1.3
		c0,0,0,0,0,0c-0.1-0.2-0.3-0.4-0.4-0.6c-0.4-0.6-0.8-1.1-1.3-1.7c-0.2-0.3-0.4-0.6-0.7-0.9c-0.4-0.4-0.7-0.9-1-1.3
		c-0.1-0.2-0.2-0.3-0.3-0.5c-0.2-0.2-0.3-0.4-0.5-0.6c-0.3-0.4-0.7-0.9-1-1.3c-0.3-0.5-0.7-0.9-1-1.3c-0.4-0.6-0.8-1.1-1.3-1.7
		c-0.1-0.2-0.3-0.4-0.4-0.6c-0.1-0.2-0.3-0.3-0.4-0.5c-0.2-0.3-0.5-0.6-0.7-0.9c-0.2-0.2-0.3-0.4-0.5-0.6c-0.2-0.2-0.3-0.4-0.5-0.6
		c-0.1-0.1-0.2-0.2-0.3-0.1c0,0-0.1,0-0.1,0c-0.9,0-1.8,0-2.7,0c-0.2,0-0.3-0.1-0.5,0c-0.1,0-0.1,0-0.2,0c-0.1,0.1-0.1,0.1-0.1,0.2
		c0,0.1,0.1,0.2,0.2,0.2c0.3,0.4,0.6,0.7,0.9,1.1c0.4,0.5,0.7,1,1.1,1.4c0.2,0.3,0.4,0.6,0.7,0.9c0.1,0.1,0.2,0.3,0.3,0.4
		c0.1,0.2,0.3,0.4,0.4,0.6c0.1,0.2,0.3,0.3,0.4,0.5c0.3,0.4,0.6,0.8,0.9,1.2c0.4,0.6,0.9,1.2,1.3,1.7c0.1,0.1,0.2,0.2,0.2,0.3
		c0.2,0.3,0.4,0.6,0.6,0.9c0.2,0.3,0.4,0.5,0.6,0.8c0.4,0.5,0.7,0.9,1.1,1.4c0.4,0.5,0.7,1,1.1,1.5c0.1,0.2,0.3,0.3,0.4,0.5
		c0.2,0.3,0.5,0.6,0.7,0.9c0.2,0.3,0.5,0.6,0.7,0.9c0.3,0.4,0.6,0.8,0.9,1.2c0.2,0.3,0.4,0.5,0.6,0.8c0.2,0.3,0.5,0.6,0.8,1
		c0.2,0.2,0.3,0.4,0.5,0.6c0,0,0,0,0,0c0.2,0.3,0.4,0.5,0.5,0.7c0.2,0.3,0.4,0.5,0.6,0.8c0.3,0.4,0.6,0.8,0.9,1.2
		c0.2,0.3,0.4,0.5,0.6,0.8c0.2,0.3,0.5,0.6,0.7,1c0.2,0.3,0.4,0.5,0.6,0.8c0.4,0.6,0.8,1.1,1.3,1.6c0.1,0.1,0.2,0.2,0.3,0.4
		c0.2,0.3,0.4,0.5,0.6,0.8c0.3,0.4,0.5,0.7,0.8,1c0.3,0.4,0.5,0.7,0.8,1.1c0.5,0.7,1,1.3,1.5,2c0.3,0.3,0.5,0.7,0.8,1
		c0.2,0.2,0.3,0.3,0.6,0.3C44.8,47.3,45.3,47.4,45.8,47.4z"/>
</g>
<image style="overflow:visible;" width="3264" height="3264" xlink:href="20260224_061209.png"  transform="matrix(2.242521e-03 0 0 1.916516e-03 155.0129 10.8904)">
</image>
</svg>
