<?xml version="1.0" encoding="utf-8"?>
<!-- Generator: Adobe Illustrator 28.2.0, SVG Export Plug-In . SVG Version: 6.00 Build 0)  -->
<svg version="1.1" id="Layer_1" xmlns="http://www.w3.org/2000/svg" xmlns:xlink="http://www.w3.org/1999/xlink" x="0px" y="0px"
	 viewBox="0 0 100 100" style="enable-background:new 0 0 100 100;" xml:space="preserve">
<style type="text/css">
	.st0{fill:#34D399;}
</style>
<g>
	<path class="st0" d="M28.62,26.35c0.03-0.34-0.09-0.66-0.17-0.99c-0.38-1.4-0.79-2.8-1.16-4.2c-0.25-0.95,0.24-1.68,1.03-1.91
		c0.46-0.13,0.91-0.07,1.31,0.21c0.44,0.3,0.88,0.59,1.32,0.88c0.86,0.58,1.72,1.16,2.59,1.72c0.75,0.48,1.55,0.53,2.33,0.11
		c0.75-0.4,1.18-1.06,1.22-1.94c0.04-0.9,0.08-1.79,0.11-2.69c0.01-0.4,0.02-0.8,0.04-1.2c0.02-0.33,0.01-0.67,0.06-1
		c0.15-1.02,1.17-1.54,2.06-1.19c0.31,0.12,0.54,0.34,0.74,0.59c0.97,1.23,1.94,2.47,2.91,3.69c0.79,1,2.28,1.16,3.3,0.28
		c0.28-0.24,0.48-0.55,0.61-0.9c0.53-1.43,1.06-2.87,1.58-4.3c0.09-0.24,0.18-0.47,0.35-0.67c0.69-0.79,2.09-0.68,2.54,0.43
		c0.23,0.57,0.43,1.15,0.64,1.72c0.35,0.93,0.69,1.87,1.03,2.8c0.24,0.64,0.67,1.11,1.32,1.33c0.89,0.31,1.71,0.18,2.4-0.5
		c0.45-0.44,0.8-0.97,1.19-1.46c0.69-0.87,1.36-1.76,2.07-2.61c0.39-0.47,0.93-0.63,1.53-0.47c0.59,0.15,0.95,0.55,1.09,1.14
		c0.04,0.18,0.05,0.37,0.06,0.56c0.03,0.99,0.05,1.99,0.11,2.98c0.04,0.54,0,1.08,0.08,1.61c0.11,0.76,0.45,1.36,1.13,1.74
		c0.8,0.44,1.62,0.42,2.39-0.07c0.51-0.32,1.01-0.67,1.51-1.01c0.77-0.52,1.55-1.03,2.32-1.55c0.31-0.21,0.63-0.32,1.01-0.32
		c0.86-0.01,1.64,0.81,1.47,1.77c-0.09,0.48-0.24,0.93-0.37,1.4c-0.3,1.1-0.6,2.19-0.91,3.28c-0.18,0.64-0.14,1.26,0.18,1.85
		c0.46,0.86,1.54,1.35,2.48,1.11c0.73-0.19,1.46-0.41,2.19-0.62c0.83-0.24,1.66-0.48,2.5-0.71c0.6-0.17,1.12-0.01,1.54,0.44
		c0.41,0.44,0.5,0.97,0.31,1.55c-0.04,0.12-0.11,0.22-0.17,0.32c-0.48,0.74-0.97,1.47-1.46,2.21c-0.42,0.64-0.84,1.26-1.24,1.91
		c-0.55,0.89-0.39,2,0.32,2.75c0.49,0.52,1.1,0.72,1.78,0.73c0.66,0.01,1.32,0.05,1.98,0.07c0.81,0.02,1.61,0.07,2.42,0.09
		c0.57,0.02,1.05,0.24,1.35,0.74c0.37,0.61,0.25,1.49-0.36,1.97c-0.85,0.67-1.7,1.33-2.54,1.99c-0.4,0.32-0.82,0.62-1.21,0.96
		c-0.64,0.58-0.91,1.3-0.74,2.16c0.14,0.72,0.53,1.26,1.19,1.59c0.25,0.12,0.51,0.21,0.77,0.3c1.28,0.48,2.57,0.96,3.85,1.45
		c0.54,0.21,0.85,0.61,0.96,1.18c0.14,0.7-0.25,1.43-0.92,1.69c-1.32,0.51-2.64,1.01-3.96,1.52c-0.37,0.14-0.75,0.27-1.07,0.52
		c-0.93,0.72-1.17,2.09-0.52,3.08c0.17,0.26,0.4,0.47,0.64,0.66c1.15,0.9,2.3,1.8,3.45,2.7c0.45,0.35,0.68,0.79,0.65,1.38
		c-0.04,0.71-0.64,1.33-1.35,1.38c-0.77,0.05-1.55,0.07-2.32,0.1c-0.8,0.03-1.6,0.07-2.4,0.1c-0.53,0.02-1.01,0.18-1.43,0.5
		c-0.44,0.34-0.71,0.79-0.82,1.32c-0.14,0.65,0,1.24,0.37,1.79c0.86,1.28,1.71,2.57,2.56,3.86c0.4,0.61,0.38,1.27-0.05,1.83
		c-0.35,0.44-0.83,0.64-1.39,0.55c-0.63-0.1-1.23-0.32-1.85-0.49c-0.94-0.26-1.87-0.52-2.81-0.78c-0.71-0.19-1.38-0.12-1.99,0.3
		c-0.65,0.45-0.98,1.08-1.02,1.86c-0.01,0.2,0.02,0.41,0.08,0.6c0.4,1.44,0.8,2.88,1.2,4.32c0.09,0.33,0.17,0.66,0.08,1.01
		c-0.2,0.76-0.84,1.18-1.5,1.16c-0.33-0.01-0.62-0.1-0.89-0.28c-1.26-0.84-2.51-1.68-3.77-2.52c-0.42-0.28-0.88-0.47-1.4-0.44
		c-1.12,0.06-1.93,0.67-2.2,1.78c-0.06,0.24-0.07,0.48-0.08,0.73c-0.02,0.38-0.03,0.77-0.04,1.15c-0.02,0.62-0.05,1.24-0.07,1.86
		c-0.01,0.46-0.02,0.91-0.05,1.37c-0.04,0.81-0.61,1.43-1.39,1.5c-0.44,0.04-0.86-0.07-1.19-0.4c-0.33-0.33-0.6-0.71-0.89-1.07
		c-0.73-0.9-1.44-1.82-2.17-2.72c-0.35-0.44-0.78-0.76-1.35-0.87c-1.05-0.2-2.01,0.2-2.53,1.15c-0.19,0.34-0.29,0.71-0.42,1.07
		c-0.45,1.22-0.9,2.45-1.36,3.68c-0.22,0.58-0.65,0.92-1.26,1c-0.56,0.07-1.04-0.14-1.39-0.61c-0.17-0.23-0.25-0.49-0.34-0.76
		c-0.47-1.27-0.94-2.54-1.41-3.82c-0.12-0.32-0.24-0.64-0.47-0.91c-0.44-0.53-0.99-0.83-1.69-0.85c-0.62-0.02-1.16,0.16-1.63,0.56
		c-0.19,0.16-0.33,0.36-0.48,0.55c-0.91,1.14-1.82,2.28-2.73,3.43c-0.67,0.84-1.97,0.77-2.52-0.15c-0.14-0.23-0.21-0.48-0.22-0.74
		c-0.02-0.55-0.04-1.11-0.06-1.66c-0.03-0.84-0.07-1.68-0.1-2.52c-0.01-0.32-0.01-0.64-0.09-0.95c-0.26-1.1-1.19-1.82-2.32-1.79
		c-0.46,0.01-0.88,0.18-1.26,0.43c-0.67,0.45-1.34,0.9-2.01,1.35c-0.59,0.4-1.19,0.78-1.77,1.18c-0.65,0.44-1.54,0.34-2.04-0.2
		c-0.36-0.4-0.48-0.87-0.36-1.39c0.13-0.55,0.29-1.09,0.45-1.63c0.26-0.94,0.52-1.87,0.78-2.81c0.13-0.48,0.17-0.97,0.01-1.45
		c-0.28-0.86-0.88-1.37-1.75-1.57c-0.39-0.09-0.78-0.04-1.16,0.07c-1.03,0.28-2.06,0.58-3.09,0.86c-0.52,0.14-1.03,0.33-1.56,0.4
		c-0.74,0.11-1.61-0.45-1.69-1.37c-0.03-0.38,0.08-0.72,0.29-1.04c0.58-0.87,1.16-1.74,1.74-2.61c0.28-0.43,0.57-0.86,0.85-1.29
		c0.84-1.31,0.22-3.03-1.34-3.47c-0.23-0.07-0.48-0.09-0.73-0.08c-0.6,0.01-1.21-0.05-1.81-0.06c-0.75-0.02-1.5-0.07-2.25-0.09
		c-0.22,0-0.44-0.02-0.66-0.06c-1.02-0.17-1.55-1.35-1.03-2.24c0.13-0.22,0.32-0.39,0.52-0.55c1.15-0.9,2.3-1.8,3.45-2.7
		c0.62-0.48,0.97-1.12,0.95-1.9c-0.02-0.88-0.42-1.56-1.2-2c-0.34-0.19-0.71-0.3-1.06-0.44c-1.23-0.47-2.46-0.93-3.68-1.42
		c-0.55-0.22-0.84-0.67-0.91-1.27c-0.07-0.72,0.36-1.32,0.92-1.55c0.47-0.19,0.94-0.36,1.42-0.54c1.02-0.38,2.04-0.75,3.05-1.15
		c0.93-0.37,1.41-1.1,1.45-2.08c0.03-0.7-0.25-1.32-0.8-1.77c-1.03-0.83-2.08-1.64-3.12-2.46c-0.2-0.16-0.4-0.31-0.6-0.47
		c-0.81-0.64-0.78-1.74-0.09-2.35c0.3-0.26,0.65-0.38,1.04-0.38c0.61,0,1.22-0.04,1.83-0.07c0.58-0.03,1.16-0.02,1.74-0.08
		c0.28-0.03,0.56-0.01,0.83-0.02c0.48-0.02,0.94-0.11,1.36-0.37c1.03-0.63,1.48-2.04,0.71-3.24c-0.6-0.93-1.21-1.84-1.82-2.76
		c-0.27-0.41-0.53-0.83-0.81-1.23c-0.37-0.52-0.35-1.32,0.05-1.81c0.37-0.44,0.84-0.65,1.41-0.56c0.45,0.07,0.88,0.23,1.32,0.36
		c1.15,0.33,2.3,0.67,3.46,1c1.31,0.37,2.66-0.51,2.85-1.86C28.62,26.6,28.62,26.48,28.62,26.35z"/>
</g>
</svg>
