<?xml version="1.0" encoding="utf-8"?>
<!-- Generator: Adobe Illustrator 28.2.0, SVG Export Plug-In . SVG Version: 6.00 Build 0)  -->
<svg version="1.1" id="Layer_1" xmlns="http://www.w3.org/2000/svg" xmlns:xlink="http://www.w3.org/1999/xlink" x="0px" y="0px"
	 viewBox="0 0 100 100" style="enable-background:new 0 0 100 100;" xml:space="preserve">
<style type="text/css">
	.st0{fill:#34D399;}
</style>
<g>
	<path class="st0" d="M45.49,84.39c0-0.32,0-0.56,0-0.8c0-1.25,0.04-2.5,0.07-3.75c0.02-0.86,0-1.71,0.04-2.57
		c0.05-0.94,0-1.88,0.05-2.82c0.05-0.87,0.02-1.73,0.04-2.6c0.01-0.25,0.03-0.5,0-0.76c-0.1-0.89-0.84-1.68-1.72-1.85
		c-0.89-0.17-1.93,0.29-2.38,1.21c-0.5,1.05-1.02,2.08-1.53,3.12c-0.83,1.69-1.66,3.39-2.49,5.08c-0.74,1.5-1.47,3.01-2.21,4.51
		c-0.06,0.13-0.12,0.27-0.2,0.39c-0.14,0.23-0.36,0.34-0.62,0.31c-0.29-0.03-0.47-0.21-0.56-0.49c-0.05-0.16,0-0.32,0.05-0.48
		c0.1-0.3,0.2-0.59,0.29-0.88c0.62-1.84,1.24-3.69,1.85-5.53c0.63-1.88,1.26-3.77,1.89-5.65c0.19-0.57,0.39-1.13,0.57-1.69
		c0.2-0.61,0.21-1.22-0.09-1.81c-0.26-0.52-0.67-0.88-1.22-1.07c-0.77-0.27-1.48-0.13-2.12,0.37c-0.12,0.1-0.22,0.22-0.32,0.33
		c-0.71,0.73-1.42,1.44-2.12,2.18c-0.84,0.88-1.69,1.75-2.53,2.63c-0.81,0.84-1.62,1.68-2.43,2.52c-0.84,0.87-1.67,1.75-2.52,2.61
		c-0.06,0.06-0.11,0.12-0.16,0.18c-0.23,0.27-0.63,0.33-0.9,0.13c-0.25-0.18-0.31-0.57-0.12-0.86c0.18-0.28,0.39-0.54,0.59-0.81
		c1.52-2.05,3.05-4.1,4.57-6.16c1.02-1.38,2.05-2.75,3.06-4.13c0.24-0.32,0.5-0.62,0.65-1.01c0.47-1.21-0.14-2.63-1.51-3
		c-0.54-0.15-1.07-0.09-1.57,0.16c-0.94,0.48-1.87,0.97-2.8,1.46c-0.92,0.48-1.84,0.96-2.76,1.44c-1.36,0.71-2.73,1.41-4.09,2.12
		c-0.89,0.46-1.78,0.93-2.67,1.4c-0.12,0.06-0.23,0.12-0.36,0.15c-0.29,0.07-0.58-0.04-0.72-0.28c-0.15-0.26-0.11-0.6,0.09-0.82
		c0.13-0.14,0.3-0.23,0.45-0.34c1.1-0.78,2.2-1.55,3.31-2.33c0.76-0.54,1.52-1.07,2.28-1.61c0.98-0.69,1.96-1.38,2.94-2.07
		c0.91-0.64,1.84-1.27,2.74-1.94c1.08-0.8,1.17-2.37,0.28-3.28c-0.46-0.47-1-0.7-1.64-0.71c-0.29-0.01-0.57,0.07-0.85,0.11
		c-0.96,0.15-1.92,0.31-2.88,0.47c-0.84,0.14-1.67,0.28-2.51,0.42c-0.93,0.15-1.85,0.3-2.78,0.45c-0.62,0.1-1.24,0.21-1.86,0.31
		c-0.89,0.15-1.77,0.29-2.66,0.43c-0.24,0.04-0.48,0.07-0.72,0.12c-0.35,0.07-0.7-0.18-0.78-0.51c-0.08-0.3,0.11-0.63,0.45-0.74
		c0.57-0.19,1.14-0.36,1.71-0.53c1.04-0.32,2.08-0.63,3.12-0.95c1.02-0.31,2.05-0.62,3.07-0.93c0.86-0.26,1.72-0.52,2.58-0.79
		c1.02-0.31,2.05-0.63,3.07-0.93c0.89-0.26,1.56-1.13,1.57-2.06c0.01-0.66-0.19-1.24-0.67-1.7c-0.32-0.31-0.7-0.52-1.14-0.59
		c-0.89-0.15-1.79-0.29-2.68-0.44c-1.18-0.19-2.35-0.38-3.53-0.57c-1.85-0.3-3.69-0.59-5.54-0.89c-0.73-0.12-1.47-0.24-2.2-0.35
		c-0.19-0.03-0.36-0.09-0.49-0.24c-0.3-0.34-0.18-0.86,0.25-1.03c0.11-0.04,0.22-0.05,0.34-0.05c1.08,0.01,2.15,0.05,3.23,0.09
		c0.02,0,0.05,0,0.07,0c0.94-0.02,1.88,0.04,2.82,0.06c0.75,0.02,1.5,0.01,2.25,0.05c0.54,0.03,1.08,0.01,1.61,0.04
		c0.7,0.05,1.4,0.01,2.1,0.05c0.67,0.04,1.34,0.02,2.01,0.04c0.52,0.01,0.98-0.17,1.38-0.49c1.05-0.85,1.11-2.44,0.13-3.37
		c-0.2-0.19-0.44-0.33-0.69-0.46c-1.07-0.56-2.15-1.11-3.22-1.66c-1.2-0.62-2.39-1.24-3.59-1.87c-0.82-0.43-1.64-0.85-2.46-1.28
		c-1.1-0.57-2.2-1.15-3.3-1.72c-0.33-0.17-0.46-0.47-0.35-0.77c0.12-0.35,0.42-0.51,0.78-0.41c0.2,0.06,0.39,0.13,0.58,0.2
		c1.55,0.57,3.1,1.14,4.64,1.71c1.43,0.53,2.87,1.05,4.3,1.57c1.24,0.45,2.48,0.91,3.73,1.37c0.35,0.13,0.71,0.23,1.1,0.22
		c1.02-0.02,1.91-0.82,2.07-1.79c0.12-0.76-0.1-1.4-0.62-1.95c-1.22-1.26-2.47-2.5-3.69-3.76c-0.92-0.95-1.87-1.87-2.78-2.83
		c-0.9-0.95-1.84-1.85-2.75-2.8c-0.36-0.37-0.71-0.74-1.07-1.11c-0.15-0.15-0.23-0.34-0.19-0.56c0.08-0.49,0.58-0.72,1.01-0.44
		c0.2,0.13,0.38,0.28,0.57,0.43c1.09,0.85,2.18,1.7,3.26,2.55c1.54,1.21,3.09,2.41,4.63,3.62c1.06,0.82,2.1,1.66,3.18,2.45
		c1.01,0.75,2.36,0.39,2.97-0.51c0.49-0.72,0.55-1.49,0.15-2.27c-0.67-1.33-1.35-2.65-2.03-3.97c-1.04-2.04-2.08-4.09-3.12-6.13
		c-0.47-0.92-0.94-1.83-1.41-2.74c-0.06-0.12-0.12-0.23-0.17-0.35c-0.15-0.35-0.05-0.66,0.25-0.82c0.29-0.16,0.6-0.07,0.81,0.22
		c0.18,0.25,0.35,0.51,0.53,0.77c0.92,1.36,1.84,2.72,2.77,4.07c0.43,0.63,0.86,1.27,1.29,1.91c1.04,1.54,2.09,3.08,3.13,4.62
		c0.21,0.31,0.42,0.62,0.64,0.93c0.33,0.45,0.79,0.7,1.33,0.81c1.16,0.23,2.27-0.62,2.48-1.7c0.06-0.3,0.04-0.6-0.01-0.9
		c-0.16-0.96-0.31-1.92-0.47-2.88c-0.14-0.82-0.28-1.64-0.41-2.46c-0.14-0.88-0.28-1.76-0.42-2.63c-0.09-0.53-0.17-1.06-0.26-1.6
		c-0.16-0.95-0.31-1.9-0.47-2.85c-0.11-0.64-0.21-1.29-0.32-1.93c-0.04-0.26-0.04-0.5,0.17-0.7c0.3-0.28,0.75-0.23,0.97,0.11
		c0.07,0.1,0.11,0.22,0.14,0.34c0.33,1.09,0.66,2.19,0.99,3.28c0.38,1.25,0.75,2.5,1.13,3.75c0.32,1.06,0.63,2.13,0.95,3.19
		c0.24,0.81,0.5,1.62,0.74,2.44c0.11,0.37,0.22,0.74,0.33,1.1c0.1,0.35,0.23,0.68,0.46,0.97c0.61,0.79,1.86,1.15,2.9,0.44
		c0.57-0.39,0.86-0.96,0.94-1.65c0.09-0.76,0.21-1.52,0.32-2.28c0.17-1.22,0.35-2.44,0.52-3.66c0.09-0.65,0.19-1.31,0.29-1.96
		c0.15-1.03,0.3-2.07,0.44-3.1c0.16-1.11,0.32-2.23,0.48-3.34c0.01-0.05,0.01-0.1,0.02-0.14c0.07-0.28,0.32-0.48,0.58-0.47
		c0.28,0.01,0.51,0.19,0.59,0.47c0.03,0.1,0.03,0.21,0.03,0.32c0,0.49-0.02,0.98-0.04,1.47c-0.02,0.57,0.01,1.14-0.02,1.71
		c-0.04,0.99-0.01,1.98-0.06,2.96c-0.04,0.82,0,1.65-0.04,2.47c-0.05,0.91,0,1.81-0.05,2.72c-0.05,0.85-0.02,1.7-0.04,2.55
		c-0.01,0.27-0.05,0.54-0.04,0.81c0.02,0.53,0.15,1.02,0.5,1.43c0.4,0.49,0.92,0.75,1.55,0.78c0.97,0.04,1.66-0.4,2.09-1.26
		c0.66-1.32,1.31-2.65,1.96-3.98c0.73-1.49,1.46-2.98,2.19-4.47c0.71-1.46,1.43-2.92,2.14-4.38c0.04-0.08,0.08-0.16,0.12-0.24
		c0.16-0.28,0.48-0.41,0.78-0.3c0.3,0.11,0.48,0.42,0.42,0.72c-0.02,0.12-0.06,0.24-0.1,0.35c-1.47,4.4-2.94,8.8-4.41,13.2
		c-0.11,0.33-0.25,0.66-0.28,1.01c-0.07,0.65,0.11,1.22,0.54,1.7c0.87,0.95,2.27,0.99,3.19,0.06c0.54-0.55,1.09-1.08,1.59-1.66
		c0.02-0.02,0.04-0.05,0.07-0.07c0.71-0.73,1.42-1.45,2.12-2.18c0.86-0.9,1.73-1.8,2.6-2.7c0.36-0.38,0.73-0.75,1.09-1.13
		c0.79-0.82,1.58-1.65,2.38-2.47c0.05-0.05,0.1-0.11,0.16-0.16c0.25-0.23,0.56-0.25,0.82-0.04c0.23,0.19,0.3,0.53,0.14,0.8
		c-0.09,0.15-0.2,0.3-0.31,0.44c-1.19,1.61-2.39,3.21-3.58,4.82c-1.12,1.51-2.23,3.02-3.35,4.53c-0.42,0.56-0.83,1.13-1.26,1.69
		c-0.32,0.43-0.55,0.89-0.57,1.43c-0.02,0.55,0.14,1.05,0.49,1.48c0.49,0.59,1.12,0.87,1.9,0.84c0.32-0.02,0.63-0.12,0.91-0.26
		c1.03-0.53,2.06-1.06,3.09-1.6c1.76-0.92,3.52-1.84,5.28-2.75c0.96-0.5,1.93-1,2.89-1.5c0.37-0.19,0.74-0.38,1.11-0.58
		c0.12-0.06,0.25-0.11,0.4-0.12c0.28-0.01,0.49,0.11,0.61,0.37c0.12,0.23,0.07,0.51-0.11,0.71c-0.17,0.19-0.39,0.32-0.6,0.46
		c-1.24,0.88-2.48,1.75-3.72,2.63c-1.31,0.92-2.62,1.84-3.93,2.76c-1.18,0.83-2.37,1.66-3.54,2.51c-0.55,0.4-0.82,0.98-0.84,1.67
		c-0.03,0.7,0.21,1.29,0.73,1.75c0.53,0.47,1.15,0.67,1.86,0.56c1.1-0.17,2.21-0.35,3.31-0.53c0.57-0.09,1.14-0.19,1.72-0.28
		c0.84-0.13,1.68-0.27,2.51-0.4c0.56-0.09,1.13-0.19,1.69-0.27c0.88-0.14,1.76-0.27,2.64-0.41c0.62-0.1,1.24-0.2,1.86-0.31
		c0.12-0.02,0.24-0.03,0.37-0.03c0.31,0.01,0.55,0.2,0.61,0.5c0.06,0.31-0.1,0.62-0.39,0.74c-0.13,0.05-0.26,0.09-0.39,0.13
		c-1.34,0.4-2.68,0.8-4.01,1.2c-1.33,0.4-2.66,0.8-3.99,1.2c-1.59,0.48-3.18,0.95-4.76,1.42c-0.21,0.06-0.43,0.12-0.63,0.2
		c-1.22,0.51-1.82,1.92-1.08,3.2c0.32,0.55,0.81,0.92,1.45,1.03c0.87,0.15,1.74,0.29,2.61,0.43c1.25,0.2,2.5,0.4,3.75,0.6
		c0.72,0.12,1.43,0.24,2.15,0.35c1.62,0.26,3.24,0.51,4.86,0.77c0.27,0.04,0.53,0.09,0.79,0.15c0.26,0.07,0.42,0.25,0.47,0.51
		c0.04,0.24-0.04,0.45-0.22,0.62c-0.13,0.12-0.3,0.17-0.48,0.15c-0.2-0.02-0.41-0.02-0.61-0.02c-0.96,0.01-1.91-0.04-2.86-0.07
		c-0.67-0.02-1.34,0-2.01-0.05c-0.45-0.03-0.9-0.01-1.35-0.04c-0.77-0.04-1.54-0.02-2.3-0.06c-0.56-0.03-1.11-0.01-1.66-0.04
		c-0.69-0.05-1.37-0.02-2.06-0.05c-0.42-0.02-0.83-0.04-1.25-0.04c-0.97,0.01-1.68,0.47-2.07,1.35c-0.46,1.03-0.05,2.33,1.02,2.87
		c1.31,0.66,2.61,1.35,3.91,2.03c0.76,0.4,1.52,0.79,2.28,1.19c1.31,0.68,2.62,1.36,3.94,2.04c0.8,0.41,1.59,0.83,2.39,1.24
		c0.09,0.05,0.19,0.1,0.28,0.15c0.3,0.19,0.41,0.51,0.28,0.83c-0.12,0.29-0.43,0.43-0.78,0.32c-0.23-0.07-0.46-0.16-0.69-0.25
		c-1.29-0.47-2.58-0.94-3.86-1.42c-1.24-0.46-2.48-0.91-3.73-1.37c-1.11-0.41-2.22-0.81-3.34-1.22c-0.62-0.23-1.24-0.45-1.86-0.69
		c-1.05-0.4-2.2,0.08-2.72,1.09c-0.41,0.81-0.23,1.77,0.3,2.36c0.64,0.72,1.35,1.37,2.02,2.07c1.08,1.13,2.2,2.21,3.28,3.34
		c0.93,0.97,1.9,1.89,2.82,2.86c0.74,0.78,1.5,1.52,2.25,2.29c0.17,0.18,0.31,0.37,0.28,0.63c-0.06,0.49-0.56,0.73-1,0.47
		c-0.17-0.1-0.32-0.23-0.47-0.35c-1.17-0.91-2.34-1.83-3.51-2.74c-1.91-1.49-3.81-2.97-5.72-4.46c-0.6-0.47-1.2-0.94-1.8-1.4
		c-0.78-0.6-1.79-0.63-2.57-0.13c-0.59,0.38-0.91,0.94-0.95,1.65c-0.03,0.45,0.08,0.87,0.29,1.27c1.15,2.24,2.3,4.49,3.45,6.74
		c0.75,1.48,1.51,2.95,2.26,4.43c0.29,0.57,0.59,1.15,0.88,1.72c0.04,0.07,0.08,0.15,0.11,0.22c0.13,0.32,0.04,0.62-0.23,0.79
		c-0.28,0.17-0.58,0.11-0.8-0.17c-0.15-0.19-0.29-0.4-0.42-0.6c-0.67-0.98-1.33-1.96-1.99-2.94c-0.84-1.24-1.68-2.47-2.52-3.71
		c-0.87-1.28-1.74-2.57-2.61-3.85c-0.23-0.34-0.47-0.69-0.7-1.03c-0.34-0.5-0.78-0.85-1.38-0.98c-1.27-0.28-2.47,0.6-2.6,1.85
		c-0.04,0.42,0.05,0.83,0.12,1.24c0.23,1.44,0.47,2.88,0.71,4.33c0.24,1.48,0.49,2.96,0.73,4.45c0.25,1.52,0.49,3.05,0.74,4.57
		c0.03,0.2,0.07,0.4,0.1,0.6c0.05,0.36-0.09,0.62-0.4,0.75c-0.28,0.12-0.61,0.01-0.77-0.25c-0.07-0.12-0.11-0.25-0.15-0.39
		c-0.58-1.95-1.17-3.89-1.75-5.84c-0.48-1.59-0.96-3.17-1.44-4.76c-0.33-1.09-0.64-2.18-0.97-3.26c-0.23-0.77-0.71-1.33-1.5-1.55
		c-0.77-0.22-1.47-0.05-2.06,0.5c-0.38,0.35-0.59,0.78-0.67,1.3c-0.19,1.39-0.41,2.78-0.61,4.17c-0.15,1.01-0.29,2.02-0.43,3.03
		c-0.21,1.49-0.43,2.99-0.65,4.48c-0.14,0.95-0.27,1.89-0.4,2.84c-0.05,0.32-0.22,0.52-0.48,0.58c-0.34,0.07-0.67-0.14-0.73-0.49
		c-0.02-0.09-0.01-0.18-0.01-0.27C45.45,85.53,45.44,84.92,45.49,84.39z"/>
</g>
</svg>
