<?xml version="1.0" encoding="utf-8"?>
<!-- Generator: Adobe Illustrator 28.2.0, SVG Export Plug-In . SVG Version: 6.00 Build 0)  -->
<svg version="1.1" id="Layer_1" xmlns="http://www.w3.org/2000/svg" xmlns:xlink="http://www.w3.org/1999/xlink" x="0px" y="0px"
	 viewBox="0 0 100 100" style="enable-background:new 0 0 100 100;" xml:space="preserve">
<style type="text/css">
	.st0{fill:#34D399;}
</style>
<g>
	<path class="st0" d="M71.15,89.61c-2.46,0-4.92,0-7.38,0c-0.49,0-0.98-0.04-1.46-0.09c-0.28-0.02-0.57-0.02-0.85-0.05
		c-0.57-0.07-1.14-0.11-1.7-0.16c-0.71-0.07-1.42-0.18-2.13-0.28c-1.53-0.23-3.04-0.52-4.54-0.88c-1.33-0.32-2.64-0.67-3.94-1.09
		c-0.89-0.29-1.78-0.6-2.66-0.93c-0.73-0.27-1.45-0.56-2.16-0.86c-0.54-0.23-1.08-0.48-1.61-0.72c-0.73-0.33-1.45-0.69-2.16-1.06
		c-1.26-0.65-2.5-1.35-3.7-2.1c-0.99-0.62-1.97-1.26-2.92-1.94c-0.82-0.58-1.61-1.19-2.4-1.82c-0.6-0.47-1.18-0.95-1.75-1.45
		c-0.51-0.45-1.01-0.9-1.51-1.36c-0.91-0.84-1.79-1.73-2.64-2.62c-0.83-0.86-1.62-1.77-2.38-2.7c-0.64-0.78-1.28-1.57-1.88-2.39
		c-0.82-1.12-1.61-2.26-2.35-3.44c-0.66-1.06-1.29-2.14-1.89-3.23c-0.56-1.02-1.08-2.07-1.56-3.14c-0.44-0.98-0.87-1.97-1.26-2.98
		c-0.42-1.09-0.82-2.19-1.17-3.3c-0.35-1.11-0.67-2.24-0.96-3.37c-0.32-1.25-0.58-2.51-0.81-3.78c-0.16-0.88-0.3-1.75-0.4-2.64
		c-0.09-0.73-0.17-1.46-0.22-2.19c-0.05-0.75-0.11-1.5-0.15-2.24c-0.02-0.42-0.03-0.85-0.04-1.27c-0.1-4.44-0.03-8.89-0.04-13.33
		c0-1.04,0.17-2.06,0.45-3.07c0.39-1.38,1.02-2.64,1.85-3.79c0.53-0.73,1.15-1.37,1.83-1.97c0.79-0.7,1.67-1.26,2.61-1.72
		c1.05-0.51,2.15-0.85,3.31-1.02c0.71-0.11,1.43-0.14,2.15-0.14c4.21,0,8.41-0.01,12.62,0.01c0.65,0,1.3,0.03,1.96,0.08
		c0.37,0.03,0.73,0.05,1.1,0.07c0.43,0.02,0.86,0.06,1.29,0.11c0.51,0.05,1.02,0.12,1.53,0.18c0.62,0.07,1.24,0.17,1.87,0.27
		c1.67,0.26,3.32,0.61,4.96,1.03c0.79,0.2,1.58,0.43,2.36,0.66c1.55,0.47,3.07,1.02,4.57,1.62c0.86,0.34,1.7,0.73,2.54,1.11
		c0.78,0.35,1.55,0.74,2.31,1.14c0.9,0.47,1.78,0.96,2.65,1.48c0.9,0.54,1.78,1.09,2.65,1.68c1.15,0.78,2.28,1.59,3.36,2.46
		c0.47,0.38,0.94,0.75,1.41,1.14c0.31,0.26,0.61,0.54,0.92,0.8c0.45,0.38,0.87,0.79,1.31,1.18c0.07,0.06,0.13,0.12,0.2,0.19
		c0.68,0.68,1.37,1.36,2.04,2.05c0.5,0.51,0.97,1.04,1.44,1.57c0.77,0.87,1.5,1.77,2.22,2.67c0.5,0.63,0.97,1.27,1.43,1.92
		c0.49,0.68,0.95,1.39,1.41,2.09c0.58,0.9,1.13,1.82,1.66,2.74c0.46,0.81,0.9,1.63,1.31,2.46c0.47,0.94,0.91,1.88,1.33,2.84
		c0.58,1.33,1.1,2.68,1.56,4.04c0.36,1.04,0.68,2.1,0.98,3.16c0.32,1.17,0.6,2.34,0.85,3.53c0.21,1.02,0.39,2.05,0.54,3.09
		c0.12,0.82,0.21,1.65,0.31,2.48c0.06,0.49,0.08,0.99,0.12,1.49c0.03,0.33,0.06,0.67,0.08,1c0,0.03,0.01,0.07,0.01,0.1
		c-0.02,0.56,0.06,1.11,0.06,1.66c0,4.57,0,9.15,0,13.72c0,0.49-0.07,0.98-0.15,1.46c-0.14,0.87-0.38,1.72-0.72,2.54
		c-0.45,1.08-1.04,2.07-1.78,2.98c-0.29,0.36-0.6,0.71-0.94,1.03c-0.86,0.81-1.8,1.5-2.86,2.05c-1.09,0.56-2.23,0.93-3.43,1.14
		c-0.44,0.08-0.89,0.13-1.34,0.13C76.02,89.6,73.59,89.61,71.15,89.61C71.15,89.61,71.15,89.61,71.15,89.61z"/>
</g>
</svg>
