<?xml version="1.0" encoding="utf-8"?>
<!-- Generator: Adobe Illustrator 28.2.0, SVG Export Plug-In . SVG Version: 6.00 Build 0)  -->
<svg version="1.1" id="Layer_1" xmlns="http://www.w3.org/2000/svg" xmlns:xlink="http://www.w3.org/1999/xlink" x="0px" y="0px"
	 viewBox="0 0 64 64" style="enable-background:new 0 0 64 64;" xml:space="preserve">
<style type="text/css">
	.st0{fill:#56BF92;}
</style>
<image style="overflow:visible;" width="3264" height="3264" xlink:href="20260224_050908.png"  transform="matrix(1.531863e-02 0 0 1.531863e-02 1632.4286 1607.4286)">
</image>
<g>
	<path class="st0" d="M32,62c-6.7,0-13.4,0-20.1,0c-0.6,0-1.1-0.1-1.7-0.3c-0.6-0.2-1.2-0.5-1.6-0.9c-1-0.8-1.7-1.8-2.1-2.9
		c-0.3-0.8-0.4-1.6-0.4-2.4c0-6.4,0-12.8,0-19.3c0-2.2,0-4.4,0-6.5c-0.1-7,0-14,0-21c0-1.3,0.3-2.6,1-3.7C7.6,4,8.3,3.3,9.3,2.7
		c0.5-0.3,1.1-0.5,1.6-0.7c0.2,0,0.3,0,0.5,0c2.9,0,5.7,0,8.6,0c7,0,14.1,0,21.1,0c1.3,0,2.4,0.5,3.4,1.3c0.5,0.4,0.9,0.9,1.3,1.4
		c0.8,0.9,1.5,1.8,2.3,2.7c0.8,0.9,1.5,1.8,2.3,2.7c0.9,1,1.8,2,2.7,3.1c0.6,0.7,1.3,1.5,1.9,2.2c0.4,0.5,0.8,1,1.2,1.4
		c0.5,0.6,0.8,1.2,1.1,1.9c0.3,0.7,0.4,1.4,0.5,2.2c0,0.1,0,0.3,0,0.4c0,11.4,0,22.8,0,34.2c0,0.9-0.2,1.7-0.5,2.6
		c-0.3,0.7-0.6,1.4-1.1,2c-0.5,0.5-1,1-1.6,1.4C53.8,61.8,53,62,52.1,62C45.4,62,38.7,62,32,62C32,62,32,62,32,62z M9,32
		C9,32,9,32,9,32c0,3.3,0,6.6,0,10c0,4.4,0,8.9,0,13.3c0,0.2,0,0.4,0,0.7c0.2,0.7,0.4,1.3,1,1.9c0.5,0.5,1.1,0.8,1.8,0.8
		c0.8,0,1.6,0,2.4,0c0,0,0.1,0,0.1,0c0.3,0,0.3-0.1,0.3-0.3c0-0.1,0-0.2,0-0.3c0-6.3,0-12.7,0-19c0-0.4,0-0.8,0.1-1.2
		c0.1-0.6,0.2-1.2,0.4-1.7c0.3-0.6,0.6-1.2,1-1.8c0.6-0.8,1.3-1.4,2.2-1.8c0.7-0.3,1.5-0.5,2.3-0.5c7.5,0,15,0,22.5,0
		c0.6,0,1.2,0.1,1.7,0.2c0.7,0.2,1.3,0.5,1.9,0.9c0.9,0.7,1.6,1.7,2,2.7c0.4,0.9,0.5,1.9,0.5,2.8c0,6.4,0,12.9,0,19.3
		c0,0.1,0,0.2,0,0.3c0,0.3,0.1,0.3,0.4,0.3c0,0,0.1,0,0.1,0c0.8,0,1.6,0,2.5,0c0.7,0,1.2-0.3,1.7-0.7c0.8-0.7,1.1-1.6,1.1-2.6
		c0-11.4,0-22.7,0-34.1c0-0.9-0.3-1.8-1-2.5c-0.7-0.7-1.3-1.5-1.9-2.2c-0.4-0.5-0.8-0.9-1.2-1.4c-0.6-0.7-1.3-1.5-1.9-2.2
		c-0.5-0.5-0.9-1.1-1.4-1.6c-0.7-0.8-1.4-1.6-2.1-2.5c-0.7-0.9-1.5-1.7-2.2-2.6c-0.2-0.2-0.5-0.5-0.8-0.7c-0.5-0.3-1-0.4-1.6-0.4
		c-6.6,0-13.2,0-19.9,0.1c-0.4,0-0.5,0-0.5,0.4c0,3,0,6,0,9c0,0.1,0,0.1,0,0.2c0,0.2,0.1,0.3,0.3,0.3c0.1,0,0.2,0,0.3,0
		c6.5,0,13,0,19.5,0c0.7,0,1.2,0.3,1.7,0.7c0.2,0.2,0.3,0.4,0.5,0.6c0.4,0.5,0.6,1,0.6,1.6c0.1,0.5,0,1.1-0.1,1.6
		c-0.2,0.6-0.5,1.1-1,1.6c-0.5,0.5-1.2,0.7-1.9,0.7c-6.6,0-13.2,0-19.8,0c-0.7,0-1.4-0.1-2.1-0.4c-0.6-0.3-1.1-0.6-1.6-1
		c-0.5-0.4-0.8-0.9-1.2-1.4c-0.4-0.6-0.6-1.3-0.8-2c-0.2-0.6-0.2-1.3-0.2-2c0-3.1,0-6.3,0-9.4c0-0.4,0-0.4-0.4-0.4
		c-0.9,0-1.7,0-2.6,0c-0.1,0-0.3,0-0.4,0c-0.8,0.2-1.4,0.7-1.8,1.4C9.2,7.4,9,8,9,8.7C9,16.5,9,24.3,9,32z M32,38.7
		C32,38.7,32,38.7,32,38.7c-3.7,0-7.3,0-11,0c-0.5,0-0.5,0-0.5,0.5c0,6.3,0,12.6,0,19c0,0.5,0,0.5,0.6,0.5c7.3,0,14.6,0,21.9,0
		c0.6,0,0.6,0,0.6-0.5c0-6.3,0-12.6,0-18.9c0-0.5,0-0.5-0.5-0.5C39.3,38.7,35.7,38.7,32,38.7z"/>
</g>
<image style="overflow:visible;" width="3264" height="3264" xlink:href="20260224_050814.png"  transform="matrix(2.463614e-03 0 0 2.105468e-03 116.7139 1.375)">
</image>
<image style="overflow:visible;" width="3264" height="3264" xlink:href="20260224_050908.png"  transform="matrix(1.958258e-03 0 0 1.673577e-03 131.3531 1.375)">
</image>
<image style="overflow:visible;" width="3264" height="3264" xlink:href="20260224_050959.png"  transform="matrix(1.958258e-03 0 0 1.673577e-03 141.0438 1.9917)">
</image>
<image style="overflow:visible;" width="3264" height="3264" xlink:href="20260224_051042.png"  transform="matrix(2.463614e-03 0 0 2.105468e-03 149.4974 1.375)">
</image>
<image style="overflow:visible;" width="3264" height="3264" xlink:href="20260224_051146.png"  transform="matrix(2.147766e-03 0 0 1.835536e-03 158.7758 1.9917)">
</image>
<image style="overflow:visible;" width="3264" height="3264" xlink:href="20260224_051253.png"  transform="matrix(2.747878e-03 0 0 2.348406e-03 108.982 10.8904)">
</image>
<image style="overflow:visible;" width="3264" height="3264" xlink:href="20260224_051400.png"  transform="matrix(2.842632e-03 0 0 2.429386e-03 121.25 10.8904)">
</image>
<image style="overflow:visible;" width="3264" height="3264" xlink:href="20260224_051433.png"  transform="matrix(2.811047e-03 0 0 2.402393e-03 132.6933 10.8904)">
</image>
<image style="overflow:visible;" width="3264" height="3264" xlink:href="20260224_051527.png"  transform="matrix(2.368860e-03 0 0 2.024488e-03 145.1675 11.6834)">
</image>
<image style="overflow:visible;" width="1280" height="1280" xlink:href="20260224_050539.png"  transform="matrix(8.537371e-03 0 0 7.296255e-03 143.5181 25.8684)">
</image>
<image style="overflow:visible;" width="3264" height="3264" xlink:href="20260224_055528.png"  transform="matrix(9.475440e-05 0 0 8.097953e-05 125.0644 38.9961)">
</image>
<image style="overflow:visible;" width="3264" height="3264" xlink:href="20260224_061116.png"  transform="matrix(1.307329e-02 0 0 8.422088e-03 117.8571 37.9389)">
</image>
<image style="overflow:visible;" width="3264" height="3264" xlink:href="20260224_061142.png"  transform="matrix(2.447822e-03 0 0 2.091971e-03 155.0129 21.2869)">
</image>
<image style="overflow:visible;" width="3264" height="3264" xlink:href="20260224_061209.png"  transform="matrix(2.242521e-03 0 0 1.916516e-03 155.0129 10.8904)">
</image>
<image style="overflow:visible;" width="3264" height="3264" xlink:href="20260224_061245.png"  transform="matrix(1.389731e-03 0 0 1.187700e-03 162.2809 37.5865)">
</image>
</svg>
