<?xml version="1.0" encoding="utf-8"?>
<!-- Generator: Adobe Illustrator 28.2.0, SVG Export Plug-In . SVG Version: 6.00 Build 0)  -->
<svg version="1.1" id="Layer_1" xmlns="http://www.w3.org/2000/svg" xmlns:xlink="http://www.w3.org/1999/xlink" x="0px" y="0px"
	 viewBox="0 0 64 64" style="enable-background:new 0 0 64 64;" xml:space="preserve">
<style type="text/css">
	.st0{fill:#56BF92;}
</style>
<image style="overflow:visible;" width="3264" height="3264" xlink:href="20260224_050908.png"  transform="matrix(1.531863e-02 0 0 1.531863e-02 1632.4286 1607.4286)">
</image>
<image style="overflow:visible;" width="3264" height="3264" xlink:href="20260224_050959.png"  transform="matrix(1.958258e-03 0 0 1.673577e-03 141.0438 1.9917)">
</image>
<image style="overflow:visible;" width="3264" height="3264" xlink:href="20260224_051042.png"  transform="matrix(2.463614e-03 0 0 2.105468e-03 149.4974 1.375)">
</image>
<image style="overflow:visible;" width="3264" height="3264" xlink:href="20260224_051146.png"  transform="matrix(2.147766e-03 0 0 1.835536e-03 158.7758 1.9917)">
</image>
<g>
	<path class="st0" d="M6.9,31.4c0-6.4,0-12.7,0-19.1c0-0.3,0-0.6,0.1-0.9c0-0.3,0.1-0.5,0.1-0.8c0.1-0.3,0.1-0.5,0.2-0.7
		c0.1-0.4,0.3-0.7,0.5-1.1C8,8.4,8.3,7.9,8.7,7.6c0.6-0.8,1.4-1.3,2.3-1.7c0.4-0.2,0.9-0.4,1.4-0.5c0.4-0.1,0.9-0.2,1.3-0.3
		C14.3,4.9,14.9,5,15.5,5c4.8,0,9.6,0,14.4,0c0.5,0,1,0.2,1.5,0.5C31.7,5.7,32,6,32.2,6.3c0.1,0.2,0.2,0.4,0.3,0.7
		c0.1,0.4,0.1,0.8,0.1,1.2c0,0.3-0.1,0.5-0.2,0.7c-0.2,0.5-0.6,0.9-1,1.2c-0.3,0.2-0.7,0.3-1,0.4c-0.3,0.1-0.6,0.1-1,0.1
		c-4.6,0-9.1,0-13.7,0c-0.3,0-0.7,0-1,0.1c-0.3,0.1-0.5,0.2-0.7,0.3c-0.6,0.4-0.9,0.9-1.2,1.5c-0.1,0.4-0.2,0.8-0.2,1.3
		c0,11.5,0,23.1,0,34.6c0,0.3,0,0.5,0,0.8c0,0.2,0.1,0.3,0.1,0.5c0.1,0.3,0.2,0.6,0.4,0.8c0.2,0.3,0.5,0.6,0.9,0.9
		c0.3,0.2,0.5,0.3,0.8,0.4c0.3,0.1,0.6,0.1,0.9,0.1c1.4,0,2.8,0,4.2,0c3.4,0,6.8,0,10.1,0c0.4,0,0.7,0.1,1.1,0.3
		c0.5,0.2,0.9,0.6,1.2,1.1c0.1,0.2,0.2,0.5,0.3,0.7c0.2,0.4,0.1,0.9,0.1,1.3c0,0.2-0.1,0.5-0.2,0.7c-0.2,0.5-0.5,0.9-1,1.1
		c-0.4,0.3-0.9,0.5-1.4,0.5c-5.2,0-10.4,0-15.6,0c-0.2,0-0.4,0-0.5-0.1c-0.1,0-0.2,0-0.3,0c-0.1,0-0.2,0-0.3,0
		c-0.2-0.1-0.5-0.1-0.7-0.2c-0.3-0.1-0.7-0.2-1-0.3c-0.3-0.1-0.7-0.3-1-0.5c-0.3-0.2-0.6-0.3-0.8-0.5c-0.3-0.3-0.7-0.5-0.9-0.8
		c-0.1-0.1-0.2-0.2-0.3-0.3c-0.3-0.3-0.5-0.7-0.7-1c-0.1-0.2-0.2-0.5-0.3-0.7c-0.1-0.2-0.2-0.5-0.3-0.8c-0.1-0.2-0.1-0.5-0.2-0.7
		c0-0.3-0.1-0.7-0.1-1C6.9,44.3,6.9,37.9,6.9,31.4z"/>
	<path class="st0" d="M36.2,34.2c-4,0-8.1,0-12.1,0c-0.2,0-0.4,0-0.7-0.1c-0.1,0-0.1,0-0.2,0c-0.1,0-0.2,0-0.3-0.1
		c-0.1,0-0.2,0-0.2-0.1c-0.5-0.2-0.9-0.4-1.3-0.8c-0.3-0.3-0.5-0.6-0.6-1c-0.1-0.2-0.1-0.4-0.1-0.7c0-0.2,0-0.4,0-0.5
		c0.1-0.9,0.6-1.5,1.3-2c0.4-0.2,0.8-0.4,1.2-0.5c0,0,0.1,0,0.1,0c0.3,0,0.6,0,0.9,0c8.1,0,16.2,0,24.3,0c0.1,0,0.2,0,0.3,0
		c0.4,0,0.6-0.3,0.6-0.7c0-0.1-0.1-0.2-0.2-0.3c-0.1-0.1-0.1-0.1-0.2-0.2c-2.6-2.6-5.2-5.2-7.9-7.9c-0.3-0.3-0.5-0.5-0.7-0.9
		c-0.2-0.4-0.4-0.8-0.5-1.3c0-0.3,0-0.7,0-1c0.1-0.6,0.4-1.1,0.9-1.4c0.3-0.2,0.6-0.4,0.9-0.5c0.3-0.1,0.7-0.1,1-0.1
		c0.8,0.1,1.4,0.4,2,0.9c0.1,0,0.1,0.1,0.2,0.2c4.5,4.5,9,9,13.5,13.5c0.4,0.4,0.6,0.8,0.8,1.2c0.1,0.3,0.2,0.7,0.2,1.1
		c0,0.2,0,0.4,0,0.6c0,0.3-0.1,0.6-0.2,0.9c-0.2,0.5-0.4,0.9-0.8,1.3c-0.7,0.8-1.5,1.6-2.3,2.3c-2.3,2.3-4.7,4.7-7,7
		c-0.7,0.7-1.4,1.4-2,2c-0.6,0.6-1.3,1.3-1.9,2c-0.3,0.3-0.6,0.6-1,0.8c-0.2,0.1-0.5,0.2-0.7,0.3c-0.3,0.1-0.7,0.2-1,0.2
		c-0.1,0-0.2,0-0.3,0c0,0-0.1,0-0.1,0c-0.3,0-0.6-0.1-0.9-0.3c-0.4-0.2-0.8-0.5-1-1c-0.1-0.2-0.2-0.4-0.2-0.7c0-0.2-0.1-0.4-0.1-0.6
		c0-0.2,0.1-0.4,0.1-0.6c0.1-0.6,0.4-1.1,0.8-1.6c0.4-0.5,1-1,1.5-1.5c0.3-0.3,0.6-0.6,0.9-0.9c0.8-0.8,1.6-1.6,2.5-2.5
		c0.7-0.7,1.4-1.4,2.1-2.1c0.5-0.5,1-1,1.5-1.5c0.1-0.1,0.2-0.3,0.2-0.5c0-0.2-0.3-0.5-0.5-0.5c-0.1,0-0.3,0-0.4,0
		C44.4,34.2,40.3,34.2,36.2,34.2z"/>
</g>
<image style="overflow:visible;" width="3264" height="3264" xlink:href="20260224_051527.png"  transform="matrix(2.368860e-03 0 0 2.024488e-03 145.1675 11.6834)">
</image>
<image style="overflow:visible;" width="3264" height="3264" xlink:href="20260224_055528.png"  transform="matrix(9.475440e-05 0 0 8.097953e-05 125.0644 38.9961)">
</image>
<image style="overflow:visible;" width="3264" height="3264" xlink:href="20260224_061142.png"  transform="matrix(2.447822e-03 0 0 2.091971e-03 155.0129 21.2869)">
</image>
<image style="overflow:visible;" width="3264" height="3264" xlink:href="20260224_061209.png"  transform="matrix(2.242521e-03 0 0 1.916516e-03 155.0129 10.8904)">
</image>
<image style="overflow:visible;" width="3264" height="3264" xlink:href="20260224_061245.png"  transform="matrix(1.389731e-03 0 0 1.187700e-03 162.2809 37.5865)">
</image>
</svg>
