<?xml version="1.0" encoding="utf-8"?>
<!-- Generator: Adobe Illustrator 28.2.0, SVG Export Plug-In . SVG Version: 6.00 Build 0)  -->
<svg version="1.1" id="Layer_1" xmlns="http://www.w3.org/2000/svg" xmlns:xlink="http://www.w3.org/1999/xlink" x="0px" y="0px"
	 viewBox="0 0 1024 1024" style="enable-background:new 0 0 1024 1024;" xml:space="preserve">
<style type="text/css">
	.st0{fill:#34D399;}
</style>
<path class="st0" d="M963.57,513.59c-0.06,16.23-4.43,31.42-13,45.44c-7.01,11.46-16.26,20.73-27.49,28.01
	c-3.63,2.36-7.5,4.36-11.31,6.41c-12.61,6.8-25.24,13.57-37.88,20.33c-6.65,3.56-13.33,7.05-19.98,10.61
	c-11.89,6.36-23.62,13.01-35.08,20.11c-13.23,8.2-26.05,17.02-38.53,26.31c-8.31,6.19-16.39,12.68-24.33,19.34
	c-5.13,4.3-10.13,8.73-15.16,13.13c-4.04,3.53-7.89,7.3-11.72,11.05c-5.05,4.95-10.16,9.86-14.98,15.04
	c-5.07,5.44-10.15,10.87-15.04,16.49c-7.8,8.95-15.44,18.04-22.68,27.45c-5.17,6.72-10.09,13.64-15,20.56
	c-7.7,10.85-14.83,22.07-21.59,33.52c-4.55,7.71-8.91,15.53-13.06,23.48c-6.72,12.87-13.55,25.68-20.33,38.52
	c-2.29,4.34-4.56,8.68-6.84,13.02c-4.12,7.85-8.05,15.8-12.58,23.41c-2.9,4.87-6.49,9.24-10.35,13.4
	c-6.6,7.14-14.18,12.98-22.74,17.53c-4.33,2.3-8.82,4.3-13.5,5.78c-9.32,2.94-18.9,4.55-28.67,4.31c-11.4-0.28-22.42-2.51-32.96-7.1
	c-7.33-3.19-14.21-7.13-20.24-12.29c-8.34-7.14-15.8-15.11-20.96-24.99c-5.46-10.45-10.96-20.87-16.49-31.27
	c-5.8-10.91-11.53-21.85-17.28-32.77c-5.45-10.34-11.16-20.54-17.06-30.64c-6.86-11.73-14.32-23.08-22-34.27
	c-4.64-6.76-9.6-13.3-14.54-19.85c-5.68-7.53-11.71-14.77-17.78-21.97c-3.46-4.1-6.99-8.14-10.65-12.08
	c-7-7.52-13.87-15.17-21.31-22.25c-6.76-6.42-13.48-12.88-20.5-19.04c-9.71-8.52-19.63-16.77-29.93-24.56
	c-8.64-6.54-17.38-12.96-26.43-18.95c-7.47-4.94-14.98-9.82-22.66-14.43c-7.84-4.7-15.77-9.25-23.85-13.55
	c-14.14-7.54-28.22-15.2-42.33-22.79c-6.39-3.44-12.81-6.83-19.23-10.22c-7.43-3.92-14.84-7.85-21.22-13.41
	c-6.35-5.54-12.07-11.63-16.77-18.66c-6.05-9.04-10.02-18.97-12.64-29.48c-0.94-3.77-1.49-7.62-1.69-11.45
	c-0.51-9.8-0.42-19.6,2.06-29.22c3.32-12.89,9.1-24.52,17.55-34.82c7.83-9.54,17.36-16.94,28.23-22.71
	c14.66-7.78,29.3-15.58,43.93-23.41c9.23-4.94,18.46-9.86,27.61-14.94c9.07-5.03,18.03-10.25,26.81-15.78
	c14.13-8.9,27.83-18.43,41.12-28.55c8.02-6.11,15.82-12.5,23.48-19.05c5.94-5.08,11.69-10.38,17.46-15.65
	c7.32-6.69,14.3-13.71,21.13-20.86c6.44-6.73,12.74-13.61,18.76-20.74c6.45-7.63,12.89-15.26,18.96-23.19
	c5.1-6.66,9.99-13.48,14.82-20.34c7.65-10.88,14.75-22.12,21.59-33.52c4.5-7.52,8.72-15.21,12.82-22.96
	c6.12-11.59,12.3-23.14,18.44-34.72c2.56-4.83,5.08-9.69,7.59-14.55c4.63-8.96,9.18-17.97,14.26-26.69
	c2.61-4.48,5.92-8.5,9.46-12.31c6.07-6.54,12.86-12.2,20.66-16.57c7.69-4.31,15.77-7.59,24.42-9.5c5.37-1.19,10.81-1.58,16.23-2.16
	c4.06-0.43,8.1,0.27,12.12,0.65c10.72,1.01,20.88,4.19,30.42,9.17c14.2,7.41,25.5,17.95,33.88,31.64
	c3.45,5.64,6.39,11.54,9.49,17.37c6.15,11.57,12.31,23.14,18.44,34.72c2.78,5.25,5.51,10.53,8.23,15.81
	c5.18,10.06,10.69,19.94,16.38,29.72c5.74,9.86,11.92,19.46,18.32,28.91c7.51,11.09,15.36,21.94,23.76,32.37
	c6.61,8.21,13.45,16.25,20.44,24.16c10.38,11.74,21.52,22.73,32.76,33.62c7.91,7.66,16.36,14.75,24.84,21.8
	c16.56,13.76,33.95,26.36,51.97,38.11c10.51,6.85,21.31,13.22,32.35,19.17c11.2,6.04,22.38,12.12,33.59,18.15
	c6.31,3.4,12.66,6.71,18.97,10.11c8.55,4.6,17.28,8.88,25.57,13.94c6.87,4.19,12.93,9.35,18.38,15.32
	c5.26,5.76,9.65,12.07,13.29,18.92c3.06,5.76,5.23,11.9,6.91,18.21C962.72,497.96,963.5,505.62,963.57,513.59z"/>
</svg>
