<?xml version="1.0" encoding="utf-8"?>
<!-- Generator: Adobe Illustrator 28.2.0, SVG Export Plug-In . SVG Version: 6.00 Build 0)  -->
<svg version="1.1" id="Layer_1" xmlns="http://www.w3.org/2000/svg" xmlns:xlink="http://www.w3.org/1999/xlink" x="0px" y="0px"
	 viewBox="0 0 64 64" style="enable-background:new 0 0 64 64;" xml:space="preserve">
<style type="text/css">
	.st0{fill:#56BF92;}
</style>
<image style="overflow:visible;" width="3264" height="3264" xlink:href="20260224_050908.png"  transform="matrix(1.531863e-02 0 0 1.531863e-02 1632.4286 1607.4286)">
</image>
<image style="overflow:visible;" width="3264" height="3264" xlink:href="20260224_051042.png"  transform="matrix(2.463614e-03 0 0 2.105468e-03 149.4974 1.375)">
</image>
<image style="overflow:visible;" width="3264" height="3264" xlink:href="20260224_051146.png"  transform="matrix(2.147766e-03 0 0 1.835536e-03 158.7758 1.9917)">
</image>
<g>
	<path class="st0" d="M40.6,41.3c0.4,0,0.7,0,1.1,0c0.4,0,0.8,0,1.2,0c0.1,0,0.3,0,0.4-0.1c0.2-0.1,0.5-0.1,0.8-0.2
		c0.4-0.1,0.8-0.1,1.2-0.2c0.1,0,0.2-0.1,0.3-0.1c0.1-0.1,0.3-0.2,0.4-0.2c0.2,0,0.4,0,0.6-0.1c0.1,0,0.1,0,0.2-0.1
		c0.1-0.1,0.2-0.2,0.3-0.2c0.1,0,0.3,0,0.4-0.1c0.2,0,0.4-0.1,0.5-0.2c0.1-0.1,0.2-0.1,0.3-0.2c0.2,0,0.3-0.1,0.4-0.2
		c0.1-0.1,0.2-0.2,0.3-0.2c0.2,0,0.4-0.1,0.6-0.3c0.1-0.1,0.2-0.1,0.3-0.2c0.1,0,0.3-0.1,0.4-0.2c0.1-0.1,0.2-0.1,0.3-0.2
		c0.2-0.1,0.4-0.2,0.5-0.3c0-0.1,0.1-0.1,0.2-0.1c0.1,0,0.2-0.1,0.2-0.2c0.1-0.1,0.1-0.2,0.3-0.2c0.1,0,0.2-0.1,0.2-0.1
		c0.1-0.1,0.1-0.2,0.2-0.2c0.1,0,0.1-0.1,0.2-0.2c0.1-0.1,0.2-0.3,0.4-0.3c0.1,0,0.1,0,0.2-0.1c0.1-0.1,0.1-0.1,0.2,0.1
		c0.1,0.3,0.1,0.5,0,0.7c-0.1,0.2-0.2,0.4-0.2,0.6c0,0.2-0.1,0.4-0.2,0.6c-0.1,0.1-0.1,0.1-0.1,0.2c0,0.2-0.1,0.3-0.1,0.5
		c0,0.2-0.1,0.3-0.2,0.4C52.1,39.7,52,39.8,52,40c0,0.2-0.1,0.4-0.2,0.5c-0.1,0.1-0.2,0.2-0.2,0.3c0,0.2-0.1,0.4-0.3,0.5
		c-0.1,0.1-0.1,0.2-0.2,0.3c0,0.1-0.1,0.2-0.1,0.3c-0.2,0.1-0.2,0.3-0.3,0.5c0,0.1-0.1,0.2-0.2,0.3c-0.1,0.1-0.1,0.1-0.2,0.2
		c0,0.2-0.2,0.3-0.3,0.5c-0.1,0.1-0.1,0.2-0.2,0.2c-0.1,0.2-0.2,0.3-0.3,0.5c0,0-0.1,0.1-0.1,0.1c0,0.1-0.1,0.2-0.2,0.3
		c-0.1,0-0.1,0.1-0.1,0.2c0,0.1-0.2,0.2-0.3,0.3c-0.1,0.1-0.1,0.1-0.2,0.2c-0.1,0.2-0.3,0.4-0.5,0.5c-0.2,0.1-0.4,0.3-0.5,0.5
		c0,0.1-0.1,0.1-0.2,0.1c-0.1,0-0.1,0.1-0.1,0.1c-0.2,0.2-0.4,0.3-0.5,0.6c-0.2,0.1-0.4,0.4-0.6,0.5c0,0-0.1,0.1-0.1,0.1
		c-0.1,0.1-0.1,0.2-0.3,0.2c-0.1,0-0.2,0.1-0.3,0.2c0,0.1-0.1,0.2-0.2,0.2c-0.1,0-0.2,0.1-0.3,0.2c-0.1,0.1-0.1,0.1-0.2,0.2
		c-0.1,0-0.2,0.1-0.2,0.1c-0.2,0.2-0.4,0.3-0.7,0.4c0,0-0.1,0-0.1,0.1c-0.1,0.2-0.3,0.3-0.5,0.3c-0.1,0-0.2,0.1-0.2,0.2
		c-0.1,0.1-0.2,0.1-0.3,0.2c-0.1,0-0.2,0.1-0.3,0.1c-0.1,0-0.2,0.1-0.2,0.2c0,0.1-0.1,0.1-0.2,0.1c-0.1,0-0.1,0.1-0.2,0.1
		c-0.2,0-0.3,0.1-0.4,0.2c-0.1,0.1-0.2,0.1-0.4,0.2c-0.1,0-0.2,0.1-0.4,0.1c-0.1,0-0.1,0-0.1,0.1c-0.2,0.2-0.4,0.2-0.7,0.3
		c-0.1,0-0.1,0-0.2,0c-0.1,0-0.2,0.1-0.3,0.2c-0.1,0.1-0.2,0.1-0.4,0.2c-0.1,0-0.2,0-0.3,0.1c-0.2,0-0.4,0.1-0.5,0.2
		C38,51.9,37.8,52,37.7,52c-0.1,0-0.3,0-0.4,0c-0.3,0-0.5,0.1-0.8,0.2c-0.3,0.1-0.6,0.2-1,0.2c-0.5,0-1,0.1-1.5,0.1
		c-0.3,0-0.7,0.1-1,0c-0.2,0-0.4,0-0.5,0c-0.3,0.1-0.7,0.1-1,0c-0.2,0-0.5,0-0.7,0c-0.5,0-0.9-0.1-1.4-0.1c-0.2,0-0.5,0-0.7,0
		c-0.3,0-0.6-0.1-0.9-0.2c-0.1-0.1-0.3-0.1-0.4-0.1C27,52,26.8,52,26.6,52c-0.2,0-0.3-0.1-0.5-0.2c-0.2-0.2-0.5-0.2-0.8-0.2
		c-0.2,0-0.5-0.1-0.7-0.3c0,0-0.1-0.1-0.2-0.1c-0.1,0-0.3-0.1-0.4-0.1c-0.2,0-0.3-0.1-0.4-0.2c-0.1-0.1-0.2-0.1-0.4-0.2
		c-0.3-0.1-0.5-0.1-0.7-0.3c0,0-0.1-0.1-0.1-0.1c-0.1,0-0.2-0.1-0.3-0.1c-0.1,0-0.3-0.1-0.4-0.2c-0.1-0.1-0.2-0.1-0.3-0.2
		c-0.2-0.1-0.4-0.1-0.6-0.3c-0.1-0.1-0.1-0.1-0.2-0.1c-0.1,0-0.3-0.1-0.4-0.2c0-0.1-0.1-0.1-0.2-0.1c-0.1-0.1-0.2-0.1-0.3-0.2
		c-0.2-0.1-0.3-0.3-0.6-0.4c-0.1-0.2-0.4-0.3-0.6-0.5c-0.1,0-0.1-0.1-0.2-0.2c-0.1-0.1-0.1-0.1-0.2-0.2c-0.2-0.1-0.3-0.2-0.4-0.3
		c-0.2-0.2-0.4-0.3-0.5-0.5c-0.2-0.1-0.3-0.2-0.4-0.3c0,0,0-0.1-0.1-0.1c-0.2-0.1-0.3-0.2-0.3-0.4c0-0.1-0.1-0.1-0.1-0.1
		c-0.1,0-0.2-0.1-0.3-0.3c0-0.1-0.1-0.1-0.2-0.2c-0.1,0-0.2-0.1-0.2-0.2c-0.1-0.1-0.1-0.2-0.2-0.3c-0.1,0-0.1-0.1-0.1-0.1
		c-0.1-0.2-0.2-0.3-0.3-0.3c-0.1,0-0.1-0.1-0.1-0.2c-0.1-0.2-0.2-0.3-0.3-0.4c0,0-0.1-0.1-0.1-0.2c-0.1-0.2-0.2-0.4-0.4-0.5
		c0,0-0.1-0.1-0.1-0.1c0-0.1-0.1-0.2-0.2-0.3c-0.2-0.1-0.2-0.3-0.3-0.5c0-0.1-0.1-0.2-0.1-0.2c-0.1-0.1-0.2-0.2-0.2-0.3
		c0-0.1-0.1-0.3-0.2-0.4c-0.1-0.1-0.2-0.3-0.3-0.5c0-0.1-0.1-0.1-0.1-0.2c-0.2-0.2-0.2-0.4-0.3-0.6c0-0.1-0.1-0.3-0.2-0.4
		c-0.1-0.2-0.2-0.3-0.2-0.6c0-0.2-0.1-0.4-0.3-0.6c-0.1-0.1-0.1-0.2-0.1-0.3c0-0.1,0-0.2-0.1-0.3c0-0.2-0.1-0.4-0.2-0.5
		c-0.1-0.1-0.2-0.3-0.2-0.5c0-0.1,0-0.3-0.1-0.4c0-0.2-0.1-0.3-0.2-0.5c-0.1-0.2-0.1-0.4-0.2-0.6c0-0.3-0.1-0.6-0.1-0.9
		c0-0.1,0-0.2-0.1-0.3c-0.1-0.1-0.1-0.3-0.1-0.4c0-0.4-0.1-0.8-0.1-1.3c0-0.6,0-1.1,0-1.7c0,0,0-0.1,0-0.1c-0.1-0.3,0-0.7,0-1
		c0-0.1,0-0.2,0-0.3c0-0.6,0-1.3,0-1.9c0-0.3,0-0.7,0.1-1c0-0.1,0-0.2,0.1-0.3c0.1-0.2,0.1-0.4,0.2-0.6c0-0.3,0.1-0.6,0.1-0.9
		c0-0.1,0.1-0.2,0.1-0.3c0.1-0.2,0.2-0.4,0.2-0.6c0-0.2,0.1-0.4,0.2-0.7c0,0,0-0.1,0.1-0.1c0.2-0.2,0.2-0.4,0.2-0.6
		c0-0.3,0.1-0.5,0.3-0.7c0.1-0.1,0.1-0.2,0.1-0.4c0-0.1,0-0.2,0.1-0.3c0-0.1,0.1-0.3,0.2-0.3c0.1-0.1,0.1-0.1,0.1-0.2
		c0.1-0.2,0.1-0.5,0.3-0.7c0.1,0,0.1-0.1,0.1-0.2c0-0.1,0.1-0.2,0.1-0.3c0-0.1,0.1-0.2,0.2-0.3c0.1-0.1,0.2-0.2,0.2-0.3
		c0-0.1,0.1-0.2,0.2-0.3c0.1-0.1,0.1-0.1,0.2-0.2c0.1-0.2,0.2-0.4,0.3-0.5c0.1-0.1,0.1-0.2,0.2-0.3c0-0.1,0.1-0.3,0.2-0.4
		c0.2-0.2,0.4-0.5,0.6-0.7c0.1-0.1,0.2-0.3,0.3-0.4c0.1,0,0.1-0.1,0.2-0.2c0,0,0-0.1,0-0.1c0.2-0.2,0.4-0.5,0.6-0.7
		c0.1,0,0.1-0.1,0.1-0.2c0-0.1,0.1-0.2,0.3-0.3c0.1,0,0.1-0.1,0.1-0.1c0-0.1,0.1-0.1,0.2-0.2c0.1-0.1,0.2-0.2,0.3-0.3
		c0-0.1,0.1-0.1,0.2-0.1c0.1,0,0.2-0.1,0.3-0.2c0-0.1,0.1-0.2,0.2-0.2c0.1,0,0.1-0.1,0.2-0.1c0.2-0.2,0.4-0.4,0.6-0.5
		c0.2-0.1,0.4-0.3,0.6-0.4c0.1-0.1,0.2-0.1,0.3-0.2c0.1,0,0.2-0.1,0.3-0.2c0-0.1,0.1-0.1,0.2-0.2c0.2-0.1,0.4-0.2,0.5-0.3
		c0.1-0.1,0.2-0.1,0.3-0.2c0.1,0,0.2-0.1,0.3-0.2c0-0.1,0.1-0.1,0.2-0.2c0.1,0,0.2-0.1,0.2-0.1c0.2,0,0.3-0.1,0.4-0.2
		c0.1-0.1,0.1-0.1,0.2-0.1c0.1,0,0.2-0.1,0.4-0.1c0.1,0,0.1,0,0.2-0.1c0.2-0.2,0.4-0.3,0.6-0.3c0.1,0,0.3-0.1,0.3-0.2
		c0.1-0.1,0.3-0.2,0.4-0.2c0.1,0,0.2,0,0.3-0.1c0.2,0,0.3-0.1,0.4-0.2c0.1-0.1,0.2-0.1,0.4-0.1c0.1,0,0.2,0,0.3,0
		c0.1,0,0.2,0,0.3-0.1c0.2-0.2,0.4-0.2,0.7-0.2c0.3,0,0.6-0.1,0.9-0.1c0.1,0,0.1,0,0.2-0.1C27.8,9.1,28.1,9,28.4,9
		c0.7,0,1.3-0.1,1.9-0.2c0.2,0,0.2,0,0.3,0.2c0,0.1,0,0.1,0,0.2c0,0.1,0,0.1-0.1,0.2c-0.1,0.1-0.2,0.2-0.4,0.2
		c-0.1,0-0.2,0.1-0.3,0.2c-0.1,0.1-0.1,0.2-0.2,0.2c-0.1,0-0.2,0.1-0.2,0.2c0,0.1-0.1,0.2-0.2,0.2c-0.1,0.1-0.3,0.2-0.4,0.3
		c-0.1,0.1-0.2,0.2-0.3,0.3c-0.2,0.1-0.3,0.3-0.4,0.4c-0.2,0.2-0.4,0.5-0.6,0.7c0,0-0.1,0.1-0.1,0.1c-0.1,0.2-0.2,0.3-0.4,0.4
		c-0.1,0.2-0.3,0.4-0.4,0.5c0,0,0,0.1,0,0.1c0,0.1-0.1,0.3-0.2,0.4c-0.1,0.1-0.1,0.1-0.1,0.2c-0.1,0.2-0.2,0.4-0.4,0.5
		c-0.1,0-0.1,0.1-0.1,0.2c0,0.1-0.1,0.3-0.2,0.4c-0.1,0.1-0.2,0.2-0.2,0.4c0,0.2-0.1,0.3-0.2,0.4c-0.1,0-0.1,0.1-0.1,0.2
		c0,0.1-0.1,0.2-0.1,0.3c0,0.2-0.1,0.4-0.3,0.5c-0.1,0.1-0.2,0.3-0.2,0.5c0,0.2-0.1,0.5-0.3,0.6c-0.1,0.1-0.1,0.1-0.1,0.2
		c0,0.3-0.1,0.5-0.2,0.8c0,0,0,0.1-0.1,0.1c-0.2,0.2-0.2,0.5-0.2,0.8c0,0.5-0.1,0.9-0.3,1.4c-0.1,0.2-0.1,0.5-0.1,0.7
		c-0.1,0.6,0,1.3,0,1.9c0,0.2,0,0.4,0,0.5c0,0,0,0.1,0,0.1c0.1,0.3,0,0.6,0,1c0,0.3,0,0.7,0.1,1c0,0.1,0,0.1,0.1,0.2
		c0.1,0.2,0.2,0.4,0.2,0.6c0,0.3,0.1,0.5,0.1,0.8c0,0.1,0,0.3,0.1,0.4c0,0.1,0,0.1,0.1,0.1c0.1,0.1,0.2,0.3,0.2,0.5
		c0,0.2,0.1,0.4,0.1,0.6c0,0.1,0.1,0.2,0.1,0.2c0.1,0.1,0.2,0.2,0.2,0.3c0,0.1,0.1,0.2,0.1,0.4c0,0.2,0.1,0.4,0.2,0.6
		c0.1,0.1,0.1,0.2,0.1,0.3c0,0.2,0.1,0.3,0.2,0.4c0.1,0.1,0.2,0.2,0.2,0.4c0,0.1,0,0.2,0.1,0.2c0.2,0.1,0.2,0.3,0.3,0.5
		c0,0.1,0.1,0.2,0.2,0.3c0.1,0.1,0.1,0.1,0.1,0.2c0,0.2,0.1,0.3,0.3,0.4c0.1,0.1,0.2,0.2,0.3,0.4c0,0.1,0.1,0.1,0.1,0.2
		c0.1,0.1,0.2,0.2,0.3,0.3c0,0.1,0.1,0.1,0.2,0.2c0.1,0,0.2,0.1,0.2,0.2c0,0.1,0.1,0.2,0.2,0.2c0.1,0.1,0.2,0.1,0.2,0.2
		c0,0.1,0.1,0.2,0.2,0.2c0.1,0.1,0.2,0.1,0.2,0.2c0,0.1,0.1,0.1,0.2,0.2c0.1,0.1,0.2,0.2,0.2,0.2c0,0,0.1,0.1,0.1,0.1
		c0.1,0.1,0.2,0.2,0.3,0.3c0,0.1,0.1,0.1,0.2,0.2c0.1,0,0.2,0.1,0.2,0.2c0,0.1,0.1,0.1,0.2,0.2c0.2,0.1,0.3,0.2,0.4,0.3
		c0.2,0.2,0.4,0.3,0.6,0.5c0.1,0,0.1,0.1,0.2,0.1c0.1,0,0.2,0.1,0.3,0.2c0.1,0.1,0.1,0.1,0.2,0.1c0.1,0.1,0.3,0.1,0.4,0.2
		c0,0,0,0,0,0c0.1,0.2,0.3,0.2,0.5,0.3c0.1,0,0.1,0.1,0.2,0.2c0.1,0.1,0.2,0.2,0.4,0.2c0.2,0.1,0.5,0.1,0.7,0.3
		c0.1,0.1,0.2,0.1,0.2,0.1c0.1,0,0.2,0,0.3,0.1c0.2,0,0.3,0.1,0.4,0.2c0,0.1,0.1,0.1,0.2,0.1c0.2,0,0.4,0.1,0.6,0.1
		c0.2,0,0.4,0.1,0.5,0.2c0.1,0.1,0.2,0.1,0.3,0.1c0.4,0.1,0.7,0.1,1.1,0.2c0.2,0,0.5,0.1,0.7,0.2c0.1,0,0.2,0.1,0.3,0.1
		c0.3,0,0.6,0,1,0.1C39.8,41.3,40.3,41.2,40.6,41.3z M32.2,49.7c0.5,0,1,0,1.5,0c0.3,0,0.6,0,0.9-0.2c0.1,0,0.1,0,0.2,0
		c0.5-0.1,0.9-0.1,1.4-0.2c0.3,0,0.5,0,0.7-0.2c0.1-0.1,0.3-0.1,0.5-0.2c0.2,0,0.4,0,0.6-0.1c0.1,0,0.2-0.1,0.3-0.2
		c0.1-0.1,0.2-0.2,0.3-0.2c0.1,0,0.1,0,0.2,0c0.2,0,0.3-0.1,0.4-0.2c0.2-0.2,0.3-0.2,0.5-0.3c0.1,0,0.3-0.1,0.4-0.2
		c0.1-0.1,0.3-0.2,0.4-0.2c0.2-0.1,0.3-0.1,0.5-0.2c0.1-0.1,0.2-0.2,0.3-0.2c0.1,0,0.3-0.1,0.4-0.2c0.1-0.1,0.3-0.2,0.5-0.3
		c0.1,0,0.2-0.1,0.2-0.2c0.1-0.1,0.1-0.2,0.2-0.2c0.1,0,0.2-0.1,0.3-0.2c0.1-0.2,0.3-0.3,0.5-0.3c0.1,0,0.1-0.1,0.2-0.1
		c0.1-0.1,0.1-0.2,0.3-0.2c0.1,0,0.2-0.1,0.2-0.2c0-0.1,0.1-0.2,0.2-0.2c0.1,0,0.2-0.1,0.2-0.2c0-0.1,0.1-0.2,0.2-0.2
		c0.2-0.1,0.3-0.3,0.5-0.5c0,0,0.1-0.1,0.1-0.1c0.1-0.1,0.1-0.2,0.3-0.3c0.1,0,0.1-0.1,0.1-0.1c0-0.1-0.1-0.1-0.2-0.1
		c-0.1,0-0.2,0-0.3,0.1c-0.1,0.1-0.1,0.1-0.2,0.1c-0.3,0.1-0.6,0.2-1,0.2c-0.3,0-0.6,0-1,0.1c-0.1,0-0.1,0-0.2,0
		c-0.3,0-0.5,0-0.8,0.1c-0.3,0.1-0.6,0.1-1,0.1c-0.4,0-0.8,0-1.2,0c-0.4,0-0.7,0-1-0.1c-0.1,0-0.3-0.1-0.4-0.1
		c-0.5-0.1-1-0.1-1.6-0.2c-0.3,0-0.6-0.1-0.9-0.2c-0.3-0.1-0.6-0.2-0.9-0.2c-0.2,0-0.4,0-0.6-0.2c-0.2-0.1-0.4-0.2-0.6-0.2
		c-0.1,0-0.3,0-0.4-0.1c-0.1,0-0.2-0.1-0.3-0.2c-0.1-0.1-0.1-0.1-0.2-0.1c-0.2-0.1-0.3-0.1-0.5-0.1c-0.1,0-0.2-0.1-0.3-0.1
		c-0.1-0.2-0.3-0.2-0.4-0.2c-0.2,0-0.3-0.1-0.4-0.2c-0.1-0.1-0.2-0.2-0.3-0.2c-0.4-0.1-0.8-0.4-1.1-0.6c0,0,0,0-0.1,0
		c-0.1-0.1-0.3-0.2-0.4-0.3c-0.1,0-0.2-0.1-0.2-0.2c-0.1-0.1-0.2-0.2-0.3-0.2c-0.2,0-0.4-0.1-0.5-0.3c0-0.1-0.1-0.1-0.2-0.1
		c-0.1,0-0.2-0.1-0.3-0.3c-0.1-0.1-0.1-0.1-0.2-0.2c-0.1,0-0.2-0.1-0.3-0.2c0-0.1-0.1-0.1-0.2-0.1c-0.1,0-0.2-0.1-0.3-0.3
		c0,0-0.1-0.1-0.1-0.1c-0.2-0.1-0.3-0.2-0.4-0.3c-0.2-0.2-0.4-0.3-0.5-0.5c-0.2-0.2-0.3-0.4-0.5-0.6c-0.2-0.2-0.4-0.4-0.5-0.7
		c0-0.1-0.1-0.1-0.1-0.1c-0.1-0.1-0.2-0.2-0.2-0.3c0-0.1-0.1-0.2-0.2-0.3c-0.1-0.1-0.2-0.2-0.2-0.3c0-0.1-0.1-0.1-0.1-0.2
		c-0.2-0.1-0.3-0.3-0.4-0.5c0-0.1-0.1-0.1-0.1-0.2c-0.1-0.1-0.2-0.2-0.2-0.3c0-0.1-0.1-0.2-0.2-0.3C23.1,34.4,23,34.2,23,34
		c0-0.1,0-0.2-0.1-0.2c-0.2-0.1-0.2-0.2-0.3-0.4c0-0.1-0.1-0.2-0.2-0.3c-0.1-0.1-0.2-0.2-0.2-0.4c0-0.1-0.1-0.2-0.1-0.3
		c0-0.1-0.1-0.2-0.2-0.3c-0.1-0.1-0.1-0.2-0.2-0.3c0-0.1-0.1-0.2-0.1-0.3c0-0.1-0.1-0.2-0.2-0.3c-0.1-0.1-0.1-0.2-0.2-0.4
		c0-0.2-0.1-0.4-0.1-0.6c0-0.1,0-0.2-0.1-0.3c-0.1-0.1-0.2-0.3-0.2-0.5c0-0.2,0-0.3,0-0.5c0-0.2,0-0.4-0.2-0.6
		c-0.1-0.1-0.1-0.2-0.1-0.4c0-0.5-0.1-1-0.1-1.6c0-0.2,0-0.4-0.1-0.6c0-0.1-0.1-0.2-0.1-0.3c-0.1-0.4-0.1-0.7-0.1-1.1
		c0-0.2,0-0.4,0-0.7c-0.1-0.5,0-1,0-1.4c0-0.4,0.2-0.7,0.2-1.1c0,0,0,0,0,0c0-0.1,0.1-0.3,0-0.4c0-0.3,0-0.5,0-0.8
		c0-0.1,0-0.2,0-0.3c0-0.1,0.1-0.3,0.1-0.4c0.1-0.1,0.2-0.3,0.2-0.5c0-0.1,0-0.2,0-0.3c0-0.2,0.1-0.5,0.2-0.7
		c0.1-0.2,0.1-0.3,0.2-0.5c0-0.1,0-0.2,0-0.3c0-0.2,0.1-0.4,0.2-0.5c0.1-0.1,0.2-0.2,0.2-0.4c0-0.1,0-0.2,0.1-0.3
		c0-0.1,0.1-0.3,0.2-0.3c0.1-0.1,0.2-0.3,0.2-0.4c0-0.1-0.1-0.2-0.1-0.2c-0.2,0-0.4,0.1-0.5,0.2c-0.1,0.1-0.1,0.2-0.3,0.2
		c-0.3,0.1-0.5,0.3-0.7,0.5C20.4,15.8,20.3,16,20,16c-0.1,0-0.1,0.1-0.2,0.1c0,0.1-0.2,0.2-0.3,0.3c-0.1,0-0.1,0.1-0.2,0.1
		c-0.1,0.1-0.2,0.2-0.3,0.3c-0.1,0-0.1,0.1-0.2,0.2c0,0.1-0.1,0.2-0.2,0.2c-0.1,0-0.2,0.1-0.2,0.2c0,0.1-0.1,0.1-0.2,0.2
		c-0.1,0-0.2,0.1-0.2,0.3c0,0.1-0.1,0.2-0.1,0.2c-0.1,0.1-0.2,0.2-0.2,0.3c0,0,0,0.1-0.1,0.1c-0.3,0.2-0.4,0.5-0.7,0.7
		c-0.1,0.1-0.2,0.2-0.2,0.3c0,0.1-0.1,0.2-0.2,0.2c-0.1,0.1-0.2,0.1-0.2,0.2c0,0.1-0.1,0.2-0.2,0.3c-0.1,0.1-0.2,0.3-0.3,0.4
		c0,0.1-0.1,0.3-0.2,0.3c-0.1,0.1-0.1,0.1-0.2,0.3c0,0.2-0.1,0.4-0.2,0.5c-0.1,0.1-0.2,0.2-0.2,0.4c0,0.2-0.1,0.4-0.2,0.5
		c-0.1,0.1-0.2,0.3-0.2,0.4c0,0.1,0,0.2-0.1,0.2c0,0.1-0.1,0.3-0.2,0.4c-0.1,0.1-0.1,0.1-0.1,0.2c0,0.2-0.1,0.4-0.1,0.6
		c0,0.2-0.1,0.3-0.2,0.4c-0.2,0.2-0.2,0.4-0.2,0.6c0,0.1,0,0.3,0,0.4c0,0.2-0.1,0.3-0.2,0.5c0,0-0.1,0.1-0.1,0.2
		c0,0.2-0.1,0.3-0.1,0.5c0,0.3,0,0.6-0.1,0.8c0,0.4-0.1,0.7-0.2,1c-0.1,0.2-0.1,0.4-0.1,0.7c0,0.2,0,0.4,0,0.6c0,0.4-0.1,0.7,0,1.1
		c0,0.1,0,0.2,0,0.3c0,0.4,0,0.8,0.1,1.2c0.2,0.5,0.1,1,0.2,1.5c0,0.3,0,0.7,0.2,0.9c0.1,0.1,0.1,0.2,0.1,0.4c0,0.2,0,0.5,0.1,0.7
		c0,0.1,0.1,0.2,0.1,0.3c0.1,0.1,0.1,0.2,0.2,0.3c0,0.1,0.1,0.2,0.1,0.4c0,0.2,0.1,0.5,0.3,0.6c0,0,0.1,0.1,0.1,0.2
		c0.1,0.2,0.1,0.3,0.1,0.5c0,0.1,0,0.1,0.1,0.2c0.1,0.1,0.2,0.2,0.3,0.4c0,0.1,0.1,0.2,0.1,0.3c0,0.1,0.1,0.1,0.1,0.2
		c0.1,0.1,0.2,0.2,0.2,0.3c0.1,0.2,0.1,0.4,0.3,0.5c0.1,0.1,0.2,0.2,0.2,0.3c0,0.2,0.2,0.3,0.3,0.5c0.1,0.1,0.2,0.2,0.2,0.4
		c0.1,0.1,0.2,0.2,0.3,0.4c0,0,0,0.1,0,0.1c0,0.1,0.1,0.1,0.1,0.2c0.1,0.1,0.1,0.1,0.2,0.2c0.1,0.1,0.1,0.3,0.3,0.4
		c0.1,0.1,0.2,0.2,0.3,0.4c0,0.1,0.1,0.1,0.1,0.1c0.2,0,0.2,0.1,0.3,0.3c0,0.1,0.1,0.1,0.1,0.1c0.1,0,0.2,0.1,0.3,0.3
		c0,0,0.1,0.1,0.1,0.1c0.1,0.1,0.2,0.2,0.3,0.3c0,0.1,0.1,0.1,0.2,0.2c0.1,0,0.2,0.1,0.3,0.2c0,0.1,0.1,0.1,0.1,0.1
		c0.1,0.1,0.2,0.2,0.3,0.3c0.1,0.1,0.1,0.1,0.2,0.2c0.2,0.1,0.3,0.2,0.4,0.4c0,0.1,0.1,0.1,0.2,0.1c0.1,0,0.2,0.1,0.3,0.2
		c0,0.1,0.1,0.1,0.2,0.1c0.2,0,0.3,0.1,0.4,0.2c0.1,0.1,0.2,0.2,0.4,0.2c0.1,0,0.2,0.1,0.3,0.2c0.1,0.1,0.2,0.2,0.3,0.2
		c0.1,0,0.3,0.1,0.4,0.2c0.1,0.1,0.3,0.2,0.4,0.2c0.2,0,0.4,0.1,0.5,0.2c0.1,0.1,0.3,0.2,0.4,0.2c0.2,0,0.4,0.1,0.5,0.2
		c0.1,0.1,0.3,0.2,0.5,0.2c0.2,0,0.3,0,0.5,0.2c0.2,0.1,0.4,0.2,0.6,0.2c0.2,0,0.3,0.1,0.5,0.1c0.2,0,0.4,0.1,0.5,0.2
		c0.1,0.1,0.2,0.1,0.3,0.1c0.4,0.1,0.8,0.1,1.2,0.1c0.3,0,0.6,0.1,0.9,0.2c0.1,0,0.1,0,0.2,0.1c0.4,0,0.7,0.1,1.1,0.1
		C31.5,49.7,31.8,49.7,32.2,49.7z"/>
</g>
<image style="overflow:visible;" width="3264" height="3264" xlink:href="20260224_055528.png"  transform="matrix(9.475440e-05 0 0 8.097953e-05 125.0644 38.9961)">
</image>
<image style="overflow:visible;" width="3264" height="3264" xlink:href="20260224_061142.png"  transform="matrix(2.447822e-03 0 0 2.091971e-03 155.0129 21.2869)">
</image>
<image style="overflow:visible;" width="3264" height="3264" xlink:href="20260224_061209.png"  transform="matrix(2.242521e-03 0 0 1.916516e-03 155.0129 10.8904)">
</image>
</svg>
