<?xml version="1.0" encoding="utf-8"?>
<!-- Generator: Adobe Illustrator 28.2.0, SVG Export Plug-In . SVG Version: 6.00 Build 0)  -->
<svg version="1.1" id="Layer_1" xmlns="http://www.w3.org/2000/svg" xmlns:xlink="http://www.w3.org/1999/xlink" x="0px" y="0px"
	 viewBox="0 0 64 64" style="enable-background:new 0 0 64 64;" xml:space="preserve">
<style type="text/css">
	.st0{fill:#56BF92;}
</style>
<image style="overflow:visible;" width="3264" height="3264" xlink:href="20260224_050908.png"  transform="matrix(1.531863e-02 0 0 1.531863e-02 1632.4286 1607.4286)">
</image>
<g>
	<path class="st0" d="M55.7,51.2c-0.1,0-0.1,0-0.2,0c-0.3,0-0.6-0.1-0.9-0.3c-0.2-0.1-0.4-0.3-0.6-0.5c0-0.1-0.1-0.1-0.1-0.2
		c0,0,0-0.1,0-0.1c-0.1-0.1-0.1-0.3-0.2-0.4c0-0.1,0-0.2-0.1-0.2c0-0.1,0-0.1,0-0.2c0-0.5-0.1-1,0-1.6c0-0.2,0-0.3-0.1-0.4
		c-0.1-0.1-0.1-0.2-0.1-0.4c0-0.2,0-0.4-0.1-0.5c0,0,0-0.1,0-0.1c0-0.1-0.1-0.2-0.1-0.3c-0.1-0.2-0.2-0.4-0.3-0.5
		c-0.1-0.2-0.2-0.3-0.3-0.5c-0.3-0.5-0.8-0.9-1.2-1.3c-0.2-0.2-0.5-0.3-0.7-0.5c0,0,0,0,0,0c-0.3-0.1-0.6-0.3-0.9-0.4
		c-0.2-0.1-0.4-0.2-0.5-0.3c-0.2-0.1-0.4-0.2-0.6-0.2c0,0-0.1,0-0.1,0c-0.2-0.1-0.4-0.2-0.6-0.2c0,0-0.1,0-0.1,0
		c-0.2-0.1-0.3-0.1-0.5-0.1c-0.1,0-0.1,0-0.2-0.1c-0.1-0.1-0.3-0.1-0.4-0.1c-0.1,0-0.2,0-0.3-0.1c-0.2-0.1-0.4-0.1-0.6-0.1
		c-0.1,0-0.1,0-0.2,0c-0.2-0.1-0.5-0.1-0.8-0.1c-0.2,0-0.4,0-0.6-0.1C44.1,41,43.8,41,43.6,41c-0.3,0-0.6,0-0.9-0.1
		c-0.4-0.1-0.8-0.1-1.2-0.1c-0.6,0-1.1-0.1-1.7,0c0,0-0.1,0-0.1,0c-0.3-0.1-0.6,0-0.9-0.1c-0.8-0.1-1.7,0-2.5,0c-0.3,0-0.7,0-1,0
		c-0.8,0.1-1.6,0.1-2.5,0.1c-0.3,0-0.6,0.1-1,0.1c-0.3,0-0.6,0.1-0.9,0.1c-0.2,0-0.3,0-0.5,0.1c-0.2,0.1-0.4,0.1-0.6,0.1
		c-0.3,0-0.5,0-0.8,0.1c-0.1,0-0.2,0-0.3,0.1c-0.2,0-0.4,0.1-0.6,0.1c-0.4,0.1-0.7,0.2-1.1,0.3c-0.1,0-0.2,0-0.3,0.1
		c-0.1,0-0.2,0.1-0.3,0.1c-0.1,0-0.2,0-0.3,0.1c0,0-0.1,0-0.1,0c-0.2,0-0.4,0.2-0.6,0.2c0,0-0.1,0-0.1,0c-0.1,0.1-0.2,0.1-0.3,0.1
		c-0.1,0-0.1,0-0.2,0.1c0,0,0,0-0.1,0.1c-0.2,0-0.4,0.2-0.5,0.3c-0.2,0.1-0.4,0.2-0.5,0.3c-0.1,0.1-0.2,0.1-0.3,0.2
		c-0.1,0.1-0.3,0.2-0.4,0.3c-0.2,0.2-0.3,0.4-0.5,0.5c0,0-0.1,0.1-0.1,0.1c-0.1,0.2-0.2,0.3-0.4,0.4c-0.1,0.1-0.1,0.2-0.1,0.2
		c-0.2,0.3-0.3,0.5-0.5,0.9c0,0.1,0,0.1-0.1,0.2c0,0,0,0,0,0.1c0,0.3-0.2,0.6-0.2,0.9c0,0.1,0,0.2-0.1,0.3c-0.1,0.2-0.1,0.4-0.1,0.6
		c0,0.3,0,0.7-0.1,1c0,0,0,0,0,0.1c0,0.4-0.1,0.7-0.1,1.1c0,0,0,0.1,0,0.1c-0.2,0.3-0.3,0.5-0.6,0.7c-0.1,0.1-0.2,0.2-0.4,0.3
		c0,0-0.1,0-0.1,0c-0.2,0.1-0.3,0.1-0.5,0.1c-0.2,0-0.5,0-0.7,0c-0.1,0-0.3,0-0.4-0.1c0,0-0.1,0-0.1,0c-0.4-0.1-0.6-0.4-0.8-0.7
		C17,50.2,17,50.1,16.9,50c0,0,0-0.1,0-0.1c0-0.1,0-0.2-0.1-0.3c-0.1-0.3-0.1-0.6,0-1c0,0,0-0.1,0-0.1c0-0.2,0-0.4,0-0.5
		c0-0.3,0-0.5,0-0.8c0-0.1,0-0.2,0.1-0.3c0.1-0.2,0.1-0.3,0.1-0.5c0-0.2,0.1-0.3,0.1-0.5c0-0.1,0-0.2,0.1-0.3
		c0.1-0.3,0.2-0.5,0.3-0.8c0-0.1,0.1-0.1,0.1-0.2c0-0.1,0-0.2,0.1-0.3c0,0,0,0,0,0c0-0.2,0.1-0.3,0.2-0.4c0.1-0.2,0.2-0.4,0.3-0.6
		c0.1-0.2,0.2-0.3,0.3-0.4c0.1-0.2,0.3-0.4,0.4-0.6c0.1-0.1,0.2-0.2,0.3-0.4c0.1-0.1,0.2-0.3,0.4-0.4c0.2-0.2,0.5-0.5,0.7-0.7
		c0.4-0.3,0.7-0.6,1.1-0.9c0.2-0.1,0.4-0.3,0.6-0.4c0,0,0.1-0.1,0.1-0.1c0.2-0.1,0.4-0.2,0.6-0.3c0.1,0,0.1-0.1,0.2-0.1
		c0.1,0,0.1,0,0.2-0.1c0.1-0.1,0.2-0.1,0.3-0.1c0.1,0,0.2-0.1,0.2-0.1c0.1-0.1,0.3-0.1,0.4-0.2c0.2-0.1,0.4-0.1,0.6-0.2
		c0.1-0.1,0.3,0,0.4-0.2c0,0,0,0,0.1,0c0.3,0,0.6-0.2,0.9-0.2c0.2,0,0.3-0.1,0.5-0.1c0.2,0,0.3,0,0.4-0.1c0,0,0.1,0,0.1,0
		c0.2,0,0.5,0,0.7-0.1c0.2-0.1,0.4-0.1,0.6-0.1c0.1,0,0.2,0,0.2-0.1c0.1-0.1,0.3-0.1,0.4-0.1c0.2,0,0.4,0,0.7-0.1
		c0.2-0.1,0.4-0.1,0.5-0.1c0.4,0,0.7-0.1,1.1-0.1c0.3-0.1,0.5-0.1,0.8-0.1c0.5,0,1.1,0,1.6-0.1c0.6-0.1,1.1,0,1.7-0.1
		c1.2-0.1,2.4,0,3.5,0c0.5,0,1,0,1.4,0c0.4,0,0.9,0,1.3,0.1c0.2,0,0.4,0,0.7,0c0.5,0,1.1,0,1.6,0.1c0.2,0,0.5,0.1,0.7,0.1
		c0.3,0,0.5,0,0.7,0.1c0.1,0.1,0.3,0.1,0.4,0.1c0.2,0,0.5,0,0.7,0.1c0.1,0.1,0.2,0.1,0.4,0.1c0.2,0,0.3,0,0.5,0.1
		c0.1,0.1,0.2,0.1,0.4,0.1c0.1,0,0.2,0,0.2,0c0.2,0.1,0.5,0.1,0.7,0.2c0.2,0.1,0.5,0.2,0.7,0.2c0.3,0.1,0.5,0.2,0.8,0.3
		c0.2,0.1,0.4,0.2,0.6,0.2c0,0,0.1,0,0.1,0.1c0.2,0,0.4,0.2,0.6,0.3c0.2,0.1,0.4,0.2,0.5,0.3c0.2,0.1,0.3,0.2,0.5,0.3
		c0.2,0.1,0.3,0.2,0.5,0.3c0.2,0.1,0.4,0.3,0.6,0.4c0.2,0.2,0.5,0.3,0.6,0.5c0.1,0.2,0.3,0.3,0.5,0.4c0.3,0.3,0.6,0.6,0.8,0.9
		c0.1,0.1,0.1,0.2,0.2,0.2c0.2,0.2,0.4,0.5,0.5,0.7c0.1,0.3,0.3,0.5,0.5,0.7c0,0,0,0.1,0.1,0.1c0,0,0,0.1,0,0.1
		c0.1,0.2,0.2,0.4,0.3,0.6c0,0,0,0.1,0.1,0.2c0.1,0.3,0.2,0.6,0.3,0.9c0,0,0,0.1,0,0.1c0,0.2,0,0.4,0.1,0.5c0,0,0,0.1,0,0.1
		c0,0.3,0.1,0.6,0.2,0.9c0,0.1,0,0.2,0,0.4c0,0.4,0.1,0.7,0.1,1c0,0.3,0.1,0.7,0,1c0,0,0,0.1,0,0.1c0,0.5-0.3,0.9-0.7,1.2
		C57,50.8,56.8,51,56.6,51c0,0-0.1,0-0.1,0C56.4,51.2,56.1,51.2,55.7,51.2C55.8,51.2,55.8,51.2,55.7,51.2
		C55.7,51.2,55.7,51.2,55.7,51.2z"/>
	<path class="st0" d="M47.3,22.7c0,0.2,0,0.5-0.1,0.7c0,0.2,0,0.4,0,0.5c0,0.3-0.1,0.6-0.1,1c-0.1,0.3-0.1,0.6-0.2,0.8
		c0,0.2-0.1,0.3-0.2,0.4c0,0,0,0.1,0,0.1c0,0.1,0,0.2-0.1,0.3c0,0,0,0.1,0,0.1c-0.1,0.3-0.2,0.5-0.3,0.7c0,0,0,0.1,0,0.1
		c-0.1,0.3-0.3,0.6-0.5,0.8c0,0,0,0,0,0c-0.1,0.3-0.3,0.4-0.4,0.6c0,0,0,0-0.1,0.1c-0.3,0.4-0.6,0.7-1,1.1c-0.1,0.1-0.1,0.1-0.2,0.2
		c0,0.1-0.1,0.1-0.2,0.1c-0.1,0-0.1,0.1-0.2,0.1c-0.3,0.2-0.5,0.4-0.8,0.6c-0.1,0.1-0.2,0.2-0.3,0.2c-0.2,0.1-0.5,0.2-0.7,0.3
		c-0.1,0.1-0.2,0.1-0.4,0.2c-0.2,0.1-0.4,0.2-0.7,0.3c-0.3,0.1-0.5,0.2-0.8,0.2c-0.2,0-0.3,0-0.5,0.1c-0.1,0-0.2,0.1-0.3,0.1
		c-0.3,0-0.6,0.1-0.9,0.1c-0.3,0-0.7,0.1-1,0c-0.1,0-0.3,0-0.4,0c-0.2,0-0.4,0-0.6-0.1c-0.2,0-0.3-0.1-0.5-0.1c-0.2,0-0.4,0-0.6-0.1
		c-0.1,0-0.2-0.1-0.3-0.1c-0.1,0-0.2,0-0.2,0c-0.1-0.1-0.3-0.1-0.4-0.1c-0.2-0.1-0.5-0.1-0.7-0.3c0,0-0.1,0-0.2-0.1
		c-0.1,0-0.2,0-0.2-0.1c0,0,0,0-0.1,0c-0.2,0-0.3-0.2-0.5-0.2c-0.2-0.1-0.5-0.2-0.7-0.4c-0.1-0.1-0.3-0.2-0.4-0.3
		c-0.2-0.2-0.4-0.3-0.6-0.5c-0.2-0.2-0.4-0.4-0.6-0.6c-0.3-0.2-0.5-0.5-0.7-0.8c-0.1-0.1-0.2-0.2-0.3-0.3c0,0-0.1-0.1-0.1-0.2
		c-0.1-0.1-0.2-0.3-0.3-0.4c0,0-0.1-0.1-0.1-0.1c-0.1-0.2-0.2-0.4-0.3-0.6c-0.1-0.1-0.1-0.2-0.1-0.3c-0.1-0.2-0.3-0.4-0.3-0.7
		c0,0,0-0.1,0-0.1c-0.2-0.3-0.2-0.6-0.3-0.9c0,0,0,0,0-0.1c0-0.3-0.1-0.5-0.2-0.7c0-0.1,0-0.3,0-0.4c0-0.3,0-0.6-0.1-0.9
		c0-0.3-0.1-0.6,0-0.9c0,0,0-0.1,0-0.1c0-0.4,0.1-0.8,0.1-1.2c0,0,0-0.1,0-0.1c0.1-0.2,0.1-0.4,0.1-0.6c0-0.1,0-0.2,0.1-0.3
		c0,0,0-0.1,0-0.1c0-0.3,0.2-0.6,0.3-0.9c0-0.1,0-0.1,0.1-0.2c0-0.1,0-0.2,0.1-0.2c0-0.1,0.1-0.1,0.1-0.2c0-0.1,0-0.1,0.1-0.2
		c0,0,0.1-0.1,0.1-0.1c0.1-0.2,0.2-0.4,0.3-0.6c0.1-0.1,0.1-0.2,0.2-0.4c0.2-0.2,0.3-0.5,0.5-0.7c0.1-0.1,0.1-0.1,0.1-0.2
		c0.1-0.1,0.2-0.2,0.3-0.3c0.2-0.2,0.3-0.4,0.5-0.6c0.3-0.3,0.6-0.5,0.9-0.8c0.2-0.1,0.3-0.2,0.5-0.3c0,0,0.1,0,0.1-0.1
		c0,0,0.1,0,0.1,0c0.1-0.1,0.2-0.1,0.3-0.2c0.2-0.1,0.3-0.2,0.5-0.3c0.2-0.1,0.4-0.3,0.6-0.3c0,0,0.1,0,0.1,0
		c0.1-0.1,0.3-0.1,0.4-0.2c0.2-0.1,0.4-0.2,0.6-0.2c0,0,0,0,0,0C34.8,13,35,13,35.1,13c0.1,0,0.3,0,0.4-0.1c0.1,0,0.2-0.1,0.4-0.1
		c0.3,0,0.7,0,1,0c0.4,0,0.8,0,1.2,0c0.2,0,0.4,0,0.7,0c0,0,0.1,0,0.1,0C39,13,39.2,13,39.3,13c0.2,0,0.3,0,0.5,0.1
		c0.1,0,0.2,0.1,0.4,0.1c0.2,0,0.3,0,0.4,0.1c0,0,0,0,0,0c0.3,0,0.5,0.2,0.7,0.3c0.2,0.1,0.4,0.2,0.5,0.3c0.2,0.1,0.3,0.2,0.5,0.3
		c0.2,0.1,0.5,0.3,0.7,0.5c0.2,0.2,0.4,0.3,0.6,0.5c0.1,0.1,0.2,0.1,0.3,0.2c0.1,0.1,0.1,0.2,0.2,0.2c0.2,0.2,0.4,0.3,0.5,0.5
		c0.1,0.1,0.3,0.2,0.4,0.4c0.1,0.2,0.3,0.3,0.3,0.5c0,0.1,0.1,0.2,0.2,0.2c0.2,0.2,0.3,0.5,0.4,0.7c0.1,0.2,0.2,0.4,0.3,0.6
		c0.1,0.2,0.1,0.5,0.3,0.6c0,0,0,0.1,0,0.1c0,0,0,0.1,0,0.1c0.1,0.2,0.1,0.4,0.2,0.7c0.1,0.2,0.1,0.3,0.1,0.5c0,0.1,0,0.2,0.1,0.2
		c0,0,0,0.1,0,0.1c0,0.3,0.1,0.6,0.1,0.8c0,0.2,0,0.4,0.1,0.5C47.3,22.4,47.3,22.5,47.3,22.7z M31.4,22.8c0,0.4,0,0.8,0.1,1.2
		c0,0.2,0.1,0.5,0.2,0.7c0,0,0,0,0,0c0.1,0.1,0.1,0.2,0.1,0.3c0,0.1,0,0.1,0.1,0.2c0.1,0.2,0.2,0.3,0.3,0.5c0.1,0.2,0.3,0.5,0.5,0.7
		c0,0.1,0.1,0.1,0.1,0.2c0.1,0.2,0.3,0.3,0.4,0.5c0.1,0.1,0.2,0.2,0.4,0.3c0.2,0.2,0.4,0.3,0.6,0.4c0.3,0.2,0.6,0.4,1,0.5
		c0,0,0,0,0.1,0c0.1,0.1,0.2,0.1,0.3,0.1c0.1,0,0.1,0,0.2,0c0.2,0.1,0.3,0.1,0.5,0.1c0.2,0,0.4,0,0.6,0.1c0.3,0.1,0.7,0.1,1,0
		c0.1,0,0.1,0,0.2,0c0.2,0,0.4,0,0.6-0.1c0.1,0,0.2,0,0.2,0c0.1-0.1,0.3-0.1,0.4-0.1c0.1,0,0.1,0,0.2-0.1c0.2-0.1,0.4-0.1,0.5-0.3
		c0,0,0,0,0,0c0.2,0,0.3-0.2,0.5-0.3c0.2-0.1,0.4-0.3,0.6-0.5c0.3-0.2,0.6-0.5,0.7-0.8c0,0,0-0.1,0.1-0.1c0.1-0.1,0.2-0.2,0.3-0.3
		c0,0,0.1-0.1,0.1-0.1c0.1-0.2,0.3-0.3,0.3-0.5c0,0,0-0.1,0-0.1c0.1-0.1,0.1-0.2,0.1-0.3c0-0.1,0-0.1,0.1-0.2
		c0.1-0.3,0.2-0.6,0.3-0.8c0,0,0-0.1,0-0.2c0-0.1,0-0.1,0-0.2c0.1-0.3,0.1-0.7,0.1-1c0-0.1,0-0.1,0-0.2c0-0.2,0-0.4-0.1-0.7
		c0-0.1,0-0.3-0.1-0.4c0-0.1,0-0.1-0.1-0.2c0-0.1,0-0.2-0.1-0.3c-0.1-0.2-0.2-0.4-0.3-0.7c-0.1-0.2-0.2-0.3-0.3-0.5
		c0-0.1-0.1-0.2-0.1-0.3c-0.2-0.2-0.4-0.5-0.6-0.7c-0.3-0.3-0.6-0.5-0.9-0.7c-0.2-0.1-0.3-0.3-0.6-0.3c0,0-0.1,0-0.1-0.1
		c0,0-0.1-0.1-0.1-0.1c-0.2-0.1-0.4-0.2-0.6-0.2c0,0-0.1,0-0.1,0c-0.1-0.1-0.2-0.1-0.3-0.1c-0.1,0-0.3,0-0.4-0.1c0,0-0.1,0-0.1,0
		c-0.3-0.1-0.7,0-1-0.1c-0.1,0-0.2,0-0.3,0c-0.3,0-0.6,0-0.8,0c-0.1,0-0.2,0-0.3,0.1c0,0-0.1,0-0.2,0c-0.2,0-0.4,0.1-0.5,0.2
		c-0.2,0.1-0.4,0.1-0.6,0.2c-0.2,0.1-0.3,0.2-0.5,0.3c-0.2,0.2-0.5,0.3-0.7,0.5c-0.2,0.2-0.3,0.3-0.5,0.4c-0.1,0.1-0.2,0.2-0.3,0.3
		c-0.1,0.1-0.2,0.2-0.3,0.4c0,0,0,0-0.1,0.1c-0.2,0.2-0.3,0.4-0.4,0.7c-0.1,0.2-0.2,0.4-0.2,0.6c0,0,0,0,0,0.1
		c-0.1,0.1-0.1,0.2-0.1,0.3c0,0.2,0,0.3-0.1,0.5c0,0,0,0.1,0,0.1C31.5,22,31.5,22.4,31.4,22.8z"/>
	<path class="st0" d="M22.3,23c-0.2,0-0.3,0-0.5,0c-0.2,0-0.3,0-0.5,0.1c-0.1,0.1-0.2,0.1-0.3,0.1c-0.1,0-0.2,0-0.2,0.1
		c0,0,0,0-0.1,0c-0.3,0.1-0.5,0.3-0.7,0.4c-0.2,0.2-0.5,0.3-0.6,0.6c-0.1,0.1-0.2,0.2-0.3,0.3c0,0,0,0,0,0c0,0.2-0.2,0.3-0.2,0.5
		c-0.1,0.2-0.1,0.4-0.2,0.6c-0.1,0.3-0.1,0.5-0.1,0.8c0,0.3,0,0.5,0,0.8c0,0.2,0,0.4,0,0.5c0,0.1,0,0.1,0.1,0.2
		c0,0.1,0.1,0.1,0.1,0.2c0,0.1,0,0.2,0.1,0.3c0,0,0,0.1,0,0.1c0.1,0.2,0.2,0.4,0.3,0.6c0.1,0.1,0.1,0.2,0.2,0.3
		c0.2,0.2,0.4,0.4,0.6,0.6c0.3,0.2,0.6,0.4,1,0.5c0.1,0,0.2,0.1,0.3,0.1c0.1,0,0.1,0,0.2,0.1c0.1,0.1,0.2,0.1,0.3,0.1
		c0.4,0,0.7,0,1.1,0c0.1,0,0.1,0,0.2,0c0.2-0.1,0.4-0.1,0.6-0.2c0.3-0.1,0.5-0.2,0.8-0.4c0,0,0,0,0.1-0.1c0.2-0.1,0.4-0.2,0.6-0.2
		c0.3,0,0.6,0,0.8,0.1c0,0,0.1,0,0.1,0c0.3,0.1,0.6,0.3,0.8,0.5c0.2,0.2,0.3,0.5,0.5,0.7c0,0.1,0,0.1,0.1,0.2c0.1,0.4,0.1,0.8,0,1.2
		c0,0.1,0,0.1-0.1,0.2c0,0-0.1,0.1-0.1,0.1c-0.1,0.3-0.3,0.6-0.6,0.7c0,0-0.1,0.1-0.1,0.1c-0.3,0.2-0.5,0.3-0.8,0.5
		c0,0-0.1,0-0.1,0.1c0,0-0.1,0.1-0.1,0.1c-0.2,0-0.4,0.2-0.7,0.2c0,0-0.1,0-0.1,0c-0.1,0.1-0.3,0.1-0.4,0.1c-0.1,0-0.3,0-0.4,0.1
		c-0.2,0.1-0.3,0.1-0.5,0.1c-0.3,0-0.5,0-0.8,0.1c-0.1,0-0.2,0-0.3,0c-0.2,0-0.3,0-0.5,0c-0.1,0-0.1,0-0.2,0
		c-0.2-0.1-0.4-0.1-0.6-0.1c-0.1,0-0.3,0-0.4,0c0,0-0.1,0-0.1,0c-0.2-0.1-0.3-0.1-0.5-0.2c-0.2-0.1-0.4-0.1-0.7-0.2
		c-0.1,0-0.2-0.1-0.3-0.1c0,0-0.1,0-0.1,0c-0.2-0.1-0.3-0.2-0.5-0.3c-0.2-0.1-0.3-0.2-0.5-0.3c-0.1,0-0.1-0.1-0.2-0.1
		c-0.3-0.2-0.5-0.4-0.8-0.6c-0.2-0.1-0.3-0.3-0.4-0.4c-0.1-0.1-0.2-0.2-0.2-0.2c-0.3-0.4-0.7-0.8-0.9-1.2c-0.2-0.3-0.3-0.5-0.4-0.8
		c0,0,0-0.1,0-0.1c0-0.1,0-0.1-0.1-0.2c-0.1-0.1-0.1-0.3-0.2-0.5c0-0.1,0-0.1-0.1-0.2c0-0.1-0.1-0.1-0.1-0.2c0-0.2-0.1-0.3-0.1-0.4
		c-0.1-0.1-0.1-0.3-0.1-0.5c0-0.2,0-0.4-0.1-0.6c0,0,0-0.1,0-0.1c0-0.4-0.1-0.8,0-1.2c0.1-0.3,0.1-0.7,0.1-1c0,0,0-0.1,0-0.1
		c0.1-0.2,0.1-0.4,0.2-0.5c0.1-0.3,0.2-0.5,0.3-0.8c0.1-0.2,0.2-0.3,0.2-0.5c0-0.1,0-0.1,0.1-0.2c0,0,0.1-0.1,0.1-0.2
		c0-0.1,0.1-0.2,0.2-0.4c0.2-0.3,0.4-0.5,0.6-0.8c0-0.1,0.1-0.1,0.2-0.2c0.3-0.2,0.5-0.5,0.7-0.7c0.3-0.2,0.5-0.5,0.9-0.7
		c0.1-0.1,0.2-0.2,0.4-0.2c0.1-0.1,0.3-0.2,0.4-0.2c0.2-0.1,0.3-0.1,0.5-0.2c0.2-0.1,0.4-0.1,0.6-0.2c0.2-0.1,0.3-0.1,0.5-0.2
		c0,0,0,0,0.1,0c0.2-0.1,0.4-0.1,0.7-0.1c0.1,0,0.2,0,0.2-0.1c0.1,0,0.2-0.1,0.2-0.1c0.5,0,1-0.1,1.5,0c0.2,0,0.4,0,0.6,0
		c0.1,0,0.1,0,0.2,0.1c0,0,0.1,0.1,0.2,0.1c0.4,0.1,0.7,0.4,1,0.7c0.1,0.1,0.2,0.3,0.2,0.5c0,0,0,0,0,0.1c0.2,0.4,0.2,0.8,0.1,1.2
		c0,0.1-0.1,0.3-0.2,0.4c-0.1,0.3-0.4,0.5-0.7,0.8c-0.1,0.1-0.2,0.1-0.3,0.1c-0.1,0-0.1,0-0.2,0.1c-0.1,0.1-0.1,0.1-0.2,0.1
		C23,23,22.7,22.9,22.3,23z"/>
	<path class="st0" d="M16.7,39.4c-0.2,0-0.4,0-0.6,0c-0.2,0-0.4,0-0.6,0.1c-0.2,0-0.4,0-0.5,0.1c-0.1,0-0.1,0-0.2,0
		c-0.3,0-0.6,0.1-0.9,0.2c-0.2,0-0.3,0-0.5,0.1c-0.1,0-0.2,0-0.2,0.1c-0.1,0-0.2,0-0.2,0.1c0,0-0.1,0.1-0.1,0.1
		c-0.1,0-0.2,0.1-0.2,0.1c0,0,0,0-0.1,0c-0.4,0.2-0.7,0.5-1,0.8c0,0-0.1,0.1-0.1,0.2c-0.1,0.1-0.2,0.2-0.2,0.3
		c-0.1,0.2-0.2,0.4-0.3,0.6c0,0,0,0,0,0c0,0.3-0.2,0.5-0.2,0.7c0,0.1,0,0.1,0,0.2c-0.1,0.2-0.1,0.4-0.1,0.7c0,0.1,0,0.1,0,0.2
		c-0.1,0.2-0.1,0.4-0.1,0.6c0,0.5,0,1.1,0,1.6c0,0.4,0,0.7,0,1.1c0,0.3-0.1,0.5-0.1,0.8c0,0.1-0.1,0.2-0.2,0.3
		c-0.2,0.3-0.5,0.6-0.8,0.8c0,0-0.1,0-0.1,0.1c-0.1,0.1-0.1,0.1-0.2,0.1c0,0-0.1,0-0.1,0c-0.3,0.1-0.6,0.1-1,0c-0.1,0-0.2,0-0.3-0.1
		c0,0-0.1,0-0.1-0.1c-0.1,0-0.2-0.1-0.3-0.2c-0.2-0.2-0.4-0.4-0.5-0.7c0,0,0-0.1-0.1-0.1c0,0-0.1-0.1-0.1-0.1c0-0.3-0.2-0.5-0.2-0.8
		c0-0.2,0-0.5,0-0.7c0-0.1,0-0.2,0-0.3c0,0,0-0.1,0-0.1c0-0.5,0.1-0.9,0-1.4c0-0.4,0-0.7,0.1-1.1c0-0.1,0-0.2,0-0.3
		c0-0.2,0-0.5,0.1-0.7c0-0.1,0-0.1,0-0.2c0-0.2,0-0.3,0.1-0.5c0.1-0.2,0.1-0.3,0.1-0.5C6.9,41.2,7,41.1,7,40.9c0-0.1,0-0.1,0.1-0.2
		c0-0.1,0.1-0.1,0.1-0.2c0-0.1,0.1-0.2,0.1-0.3c0.1-0.2,0.2-0.4,0.3-0.5c0.1-0.1,0.1-0.3,0.2-0.4C7.9,39.2,8,39,8.1,38.8
		c0.2-0.2,0.4-0.5,0.6-0.7c0.3-0.3,0.7-0.6,1-0.9c0.2-0.1,0.4-0.2,0.5-0.3c0.1-0.1,0.3-0.2,0.5-0.3c0.2-0.1,0.4-0.2,0.6-0.3
		c0.2-0.1,0.4-0.2,0.6-0.3c0,0,0.1,0,0.1,0c0.3,0,0.5-0.2,0.8-0.2c0.1,0,0.2,0,0.3-0.1c0.1-0.1,0.2,0,0.3,0c0.3,0,0.5-0.1,0.8-0.2
		c0.1,0,0.3,0,0.4,0c0.2,0,0.5,0,0.7-0.1c0.2,0,0.4-0.1,0.5-0.1c0.2,0,0.5,0,0.7,0c0.4,0,0.9,0,1.3,0c0.2,0,0.3,0,0.4,0.1
		c0,0,0.1,0,0.1,0c0.3,0.1,0.5,0.3,0.7,0.5c0.2,0.2,0.3,0.4,0.5,0.6c0.1,0.2,0.1,0.4,0.1,0.6c0,0.3,0,0.5,0,0.8c0,0,0,0,0,0.1
		c-0.2,0.2-0.2,0.5-0.5,0.7c-0.1,0.1-0.3,0.3-0.4,0.4c-0.1,0.1-0.2,0.1-0.2,0.1c0,0,0,0-0.1,0c-0.4,0.2-0.8,0.2-1.2,0.2
		C17,39.3,16.8,39.3,16.7,39.4C16.7,39.3,16.7,39.3,16.7,39.4z"/>
</g>
<image style="overflow:visible;" width="3264" height="3264" xlink:href="20260224_055528.png"  transform="matrix(9.475440e-05 0 0 8.097953e-05 125.0644 38.9961)">
</image>
</svg>
