<?xml version="1.0" encoding="utf-8"?>
<!-- Generator: Adobe Illustrator 28.2.0, SVG Export Plug-In . SVG Version: 6.00 Build 0)  -->
<svg version="1.1" id="Layer_1" xmlns="http://www.w3.org/2000/svg" xmlns:xlink="http://www.w3.org/1999/xlink" x="0px" y="0px"
	 viewBox="0 0 64 64" style="enable-background:new 0 0 64 64;" xml:space="preserve">
<style type="text/css">
	.st0{fill:#56BF92;}
</style>
<image style="overflow:visible;" width="3264" height="3264" xlink:href="20260224_050908.png"  transform="matrix(1.531863e-02 0 0 1.531863e-02 1632.4286 1607.4286)">
</image>
<image style="overflow:visible;" width="3264" height="3264" xlink:href="20260224_050713.png"  transform="matrix(1.926673e-03 0 0 1.646584e-03 106.817 2.3442)">
</image>
<image style="overflow:visible;" width="3264" height="3264" xlink:href="20260224_050814.png"  transform="matrix(2.463614e-03 0 0 2.105468e-03 116.7139 1.375)">
</image>
<image style="overflow:visible;" width="3264" height="3264" xlink:href="20260224_050908.png"  transform="matrix(1.958258e-03 0 0 1.673577e-03 131.3531 1.375)">
</image>
<image style="overflow:visible;" width="3264" height="3264" xlink:href="20260224_050959.png"  transform="matrix(1.958258e-03 0 0 1.673577e-03 141.0438 1.9917)">
</image>
<image style="overflow:visible;" width="3264" height="3264" xlink:href="20260224_051042.png"  transform="matrix(2.463614e-03 0 0 2.105468e-03 149.4974 1.375)">
</image>
<image style="overflow:visible;" width="3264" height="3264" xlink:href="20260224_051146.png"  transform="matrix(2.147766e-03 0 0 1.835536e-03 158.7758 1.9917)">
</image>
<image style="overflow:visible;" width="3264" height="3264" xlink:href="20260224_051253.png"  transform="matrix(2.747878e-03 0 0 2.348406e-03 108.982 10.8904)">
</image>
<image style="overflow:visible;" width="3264" height="3264" xlink:href="20260224_051400.png"  transform="matrix(2.842632e-03 0 0 2.429386e-03 121.25 10.8904)">
</image>
<image style="overflow:visible;" width="3264" height="3264" xlink:href="20260224_051433.png"  transform="matrix(2.811047e-03 0 0 2.402393e-03 132.6933 10.8904)">
</image>
<image style="overflow:visible;" width="3264" height="3264" xlink:href="20260224_051527.png"  transform="matrix(2.368860e-03 0 0 2.024488e-03 145.1675 11.6834)">
</image>
<g>
	<path class="st0" d="M15,32c0-0.1,0-0.3,0-0.4c0-0.6,0-1.2,0.1-1.8c0.1-0.5,0.1-1,0.3-1.5c0.1-0.6,0.3-1.2,0.5-1.9
		c0.1-0.4,0.3-0.8,0.4-1.1c0.2-0.4,0.4-0.9,0.6-1.3c0.4-0.8,0.9-1.5,1.4-2.2c0.3-0.4,0.6-0.7,0.9-1.1c0.4-0.5,0.9-0.9,1.3-1.4
		c0.3-0.3,0.7-0.6,1.1-0.9c0.8-0.6,1.6-1.1,2.5-1.6c0.7-0.4,1.4-0.7,2.1-0.9c0.6-0.2,1.2-0.4,1.8-0.5c0.5-0.1,1-0.2,1.5-0.3
		c0.3,0,0.6-0.1,1-0.1c0.8-0.1,1.6,0,2.4,0c0.2,0,0.3,0,0.5,0c0.6,0.1,1.3,0.1,1.9,0.3c0.4,0.1,0.7,0.2,1.1,0.3
		c0.7,0.2,1.3,0.4,1.9,0.6c0.5,0.2,1,0.4,1.5,0.7c0.6,0.3,1.2,0.7,1.7,1c1.1,0.8,2.1,1.6,3,2.6c0.5,0.6,1,1.2,1.4,1.8
		c0.6,0.9,1.1,1.8,1.5,2.7c0.2,0.5,0.4,0.9,0.5,1.4c0.2,0.4,0.3,0.9,0.4,1.3c0.1,0.5,0.2,0.9,0.3,1.4c0.1,0.5,0.1,1,0.2,1.5
		c0,0.1,0,0.2,0,0.3c0,0.6,0,1.2,0,1.8c0,0.4-0.1,0.9-0.1,1.3c0,0.5-0.1,1-0.3,1.6c-0.1,0.6-0.3,1.3-0.5,1.9c-0.2,0.7-0.5,1.4-0.8,2
		c-0.3,0.6-0.6,1.2-1,1.8c-0.4,0.5-0.8,1.1-1.2,1.6c-0.1,0.1-0.2,0.3-0.4,0.4c-0.5,0.6-1,1.1-1.6,1.6c-0.5,0.4-1,0.8-1.6,1.2
		c-0.7,0.4-1.3,0.9-2.1,1.2c-0.7,0.3-1.4,0.6-2.1,0.9c-0.5,0.2-0.9,0.3-1.4,0.4c-0.3,0.1-0.5,0.1-0.8,0.2c-0.4,0.1-0.7,0.2-1.1,0.2
		c-0.1,0-0.2,0-0.3,0C33.5,49,33.3,49,33,49c-0.3,0-0.5,0-0.8,0c-0.7,0-1.4,0-2.1-0.1c-0.4,0-0.8-0.1-1.2-0.2
		c-0.1,0-0.3-0.1-0.4-0.1c-0.4-0.1-0.8-0.2-1.2-0.3c-0.6-0.2-1.2-0.4-1.8-0.6c-0.4-0.2-0.8-0.4-1.3-0.6c-0.6-0.3-1.1-0.6-1.6-1
		c-0.3-0.2-0.6-0.4-1-0.7c-0.2-0.2-0.5-0.4-0.7-0.6c-0.5-0.4-0.9-0.8-1.4-1.3c-0.4-0.5-0.8-0.9-1.2-1.4c-0.6-0.8-1.1-1.7-1.6-2.6
		c-0.3-0.6-0.5-1.2-0.8-1.8c-0.2-0.4-0.3-0.8-0.4-1.3c-0.1-0.4-0.2-0.8-0.3-1.3c-0.1-0.4-0.1-0.8-0.2-1.2C15,33.4,15,32.7,15,32z
		 M32,17c-4,0.1-7.6,1.5-10.5,4.4c-2.9,2.9-4.3,6.5-4.4,10.6c0.1,4.1,1.5,7.7,4.4,10.6C24.3,45.5,27.9,47,32,47
		c4.1,0,7.7-1.5,10.6-4.4c2.9-2.9,4.3-6.5,4.4-10.6c-0.1-4.1-1.5-7.7-4.5-10.6C39.6,18.5,36.1,17.1,32,17z"/>
	<path class="st0" d="M7.5,33c-1.4,0-2.9,0-4.3,0c-0.1,0-0.3,0-0.4,0c-0.3-0.1-0.5-0.3-0.7-0.6c-0.2-0.3-0.1-0.8,0.1-1.1
		c0.3-0.3,0.6-0.4,1-0.4c0.1,0,0.1,0,0.2,0c2.7,0,5.5,0,8.2,0c0.3,0,0.5,0,0.7,0.1c0.1,0,0.2,0.1,0.3,0.1c0.3,0.3,0.5,0.6,0.4,1
		c-0.1,0.4-0.3,0.7-0.7,0.8C12.2,33,12,33,11.8,33C10.4,33,8.9,33,7.5,33z"/>
	<path class="st0" d="M31,7.5c0-1.4,0-2.9,0-4.3c0-0.4,0.1-0.7,0.4-0.9c0.4-0.4,1-0.4,1.4,0c0.2,0.2,0.4,0.5,0.4,0.9
		c0,1.4,0,2.7,0,4.1c0,1.5,0,3,0,4.6c0,0.2,0,0.4-0.1,0.5c-0.2,0.7-1.1,1-1.7,0.5c-0.3-0.2-0.4-0.5-0.4-0.9C31,10.4,31,9,31,7.5z"/>
	<path class="st0" d="M56.5,33c-1.5,0-2.9,0-4.4,0c-0.3,0-0.7-0.1-0.9-0.4c-0.2-0.3-0.3-0.5-0.2-0.9c0.1-0.4,0.3-0.7,0.7-0.8
		c0.2-0.1,0.5-0.1,0.7-0.1c2.7,0,5.4,0,8.1,0c0.2,0,0.4,0,0.5,0.1c0.8,0.1,1.1,1,0.6,1.7C61.6,32.9,61.3,33,61,33
		c-0.1,0-0.2,0-0.2,0C59.3,33,57.9,33,56.5,33z"/>
	<path class="st0" d="M33.1,56.5c0,1.4,0,2.9,0,4.3c0,0.2,0,0.4-0.1,0.6c-0.1,0.3-0.5,0.6-0.9,0.6c-0.4,0-0.7-0.1-1-0.5
		C31,61.3,31,61.1,31,60.9c0-0.1,0-0.1,0-0.2c0-2.9,0-5.7,0-8.6c0-0.3,0-0.5,0.2-0.8c0.2-0.4,0.6-0.5,1-0.4c0.4,0.1,0.7,0.3,0.8,0.7
		c0,0.2,0.1,0.3,0.1,0.5C33,53.7,33.1,55.1,33.1,56.5z"/>
	<path class="st0" d="M18.9,46.1c0,0.3-0.1,0.5-0.3,0.7c-0.1,0.1-0.1,0.1-0.2,0.2c-1.6,1.6-3.2,3.2-4.8,4.8
		c-0.3,0.3-0.5,0.6-0.8,0.9c-0.2,0.2-0.4,0.4-0.6,0.6c-0.7,0.6-1.5,0-1.6-0.5c-0.1-0.4,0-0.7,0.2-1c0,0,0.1-0.1,0.1-0.1
		c2-2,4.1-4.1,6.1-6.1c0.1-0.1,0.3-0.3,0.5-0.3c0.5-0.2,1.1,0.1,1.3,0.5C18.9,45.9,18.9,46,18.9,46.1z"/>
	<path class="st0" d="M45.1,46.1c0-0.4,0.3-0.8,0.7-0.9c0.4-0.2,0.7,0,1.1,0.2c0.1,0,0.1,0.1,0.1,0.1c2,2,4.1,4.1,6.1,6.1
		c0.2,0.2,0.3,0.3,0.4,0.5c0.2,0.6-0.3,1.3-0.8,1.3c-0.3,0-0.6-0.1-0.8-0.2c-0.1-0.1-0.2-0.2-0.2-0.2c-1.8-1.8-3.7-3.7-5.5-5.5
		c-0.2-0.2-0.5-0.5-0.7-0.7C45.2,46.7,45.1,46.4,45.1,46.1z"/>
	<path class="st0" d="M17.8,18.9c-0.3,0-0.5-0.1-0.7-0.3c-0.2-0.2-0.5-0.5-0.7-0.7c-0.3-0.3-0.6-0.6-0.9-0.8
		c-1.6-1.6-3.2-3.2-4.8-4.8c-0.2-0.1-0.3-0.3-0.3-0.5c-0.1-0.3,0-0.6,0.2-0.9c0.4-0.5,1.1-0.4,1.5-0.1c0,0,0.1,0.1,0.1,0.1
		c2,2,4.1,4.1,6.1,6.1c0.1,0.1,0.2,0.3,0.3,0.4c0.3,0.6-0.1,1.2-0.6,1.4C18.1,18.9,18,18.9,17.8,18.9z"/>
	<path class="st0" d="M46.1,18.9c-0.6,0.1-1.2-0.6-1-1.2c0-0.2,0.2-0.4,0.3-0.5c0-0.1,0.1-0.1,0.2-0.2c2-2,4-4,6-6
		c0.1-0.1,0.2-0.2,0.3-0.3c0.3-0.2,0.9-0.2,1.2,0c0.3,0.2,0.5,0.7,0.4,1.1c-0.1,0.2-0.1,0.4-0.3,0.5c-2.1,2.1-4.2,4.2-6.3,6.3
		C46.7,18.7,46.5,18.9,46.1,18.9z"/>
	<path class="st0" d="M38.7,13.5c0-0.2,0.1-0.4,0.2-0.6c0.3-0.7,0.6-1.4,0.9-2.2c0.3-0.7,0.6-1.3,0.8-2c0.1-0.4,0.4-0.6,0.8-0.8
		c0.3-0.1,0.5,0,0.8,0.1c0.5,0.3,0.6,0.8,0.4,1.3c-0.3,0.6-0.5,1.3-0.8,1.9c-0.2,0.6-0.5,1.2-0.7,1.8c-0.1,0.3-0.3,0.6-0.4,0.9
		c-0.1,0.3-0.6,0.7-1,0.6c-0.4,0-0.8-0.3-0.9-0.7C38.6,13.8,38.7,13.7,38.7,13.5z"/>
	<path class="st0" d="M8.9,42.6c-0.5,0-1-0.4-1-0.9c0-0.4,0.3-0.8,0.6-1c0.4-0.2,0.9-0.4,1.4-0.6c0.7-0.3,1.4-0.6,2.1-0.9
		c0.4-0.2,0.8-0.3,1.2-0.5c0.8-0.3,1.5,0.4,1.4,1.1c0,0.3-0.2,0.6-0.6,0.8c-0.6,0.3-1.1,0.5-1.7,0.7c-0.4,0.2-0.8,0.3-1.2,0.5
		c-0.4,0.2-0.9,0.4-1.3,0.5c-0.1,0-0.2,0.1-0.3,0.1C9.3,42.6,9.1,42.6,8.9,42.6z"/>
	<path class="st0" d="M25.3,50.5c0,0.2-0.1,0.4-0.1,0.6c-0.3,0.7-0.5,1.3-0.8,2c-0.3,0.7-0.6,1.4-0.9,2.1c-0.1,0.2-0.1,0.3-0.2,0.5
		c-0.2,0.3-0.7,0.5-1.1,0.4c-0.5-0.1-0.8-0.5-0.8-0.9c0-0.3,0.1-0.5,0.2-0.8c0.4-0.9,0.8-1.8,1.1-2.7c0.2-0.5,0.4-1,0.6-1.5
		c0.1-0.3,0.3-0.5,0.6-0.7c0.4-0.2,1,0,1.2,0.4C25.3,50.1,25.4,50.3,25.3,50.5z"/>
	<path class="st0" d="M25.3,13.5c0.1,0.6-0.6,1.1-1.2,1c-0.3-0.1-0.6-0.3-0.7-0.6c-0.4-0.8-0.7-1.7-1-2.5c-0.2-0.6-0.5-1.2-0.7-1.7
		c0-0.1-0.1-0.2-0.2-0.3c-0.2-0.5,0-1,0.4-1.3c0.4-0.2,0.8-0.2,1.2,0.1c0.2,0.1,0.3,0.3,0.3,0.5c0.3,0.8,0.7,1.6,1,2.4
		c0.2,0.6,0.5,1.2,0.7,1.8C25.3,13,25.4,13.3,25.3,13.5z"/>
	<path class="st0" d="M49.4,24.4c0-0.3,0.2-0.6,0.5-0.8c0.2-0.1,0.4-0.2,0.6-0.3c0.6-0.2,1.2-0.5,1.8-0.8c0.8-0.3,1.5-0.7,2.3-1
		c0.5-0.2,1.1,0,1.3,0.6c0.2,0.5,0,0.9-0.4,1.2c-0.2,0.1-0.4,0.2-0.6,0.3c-0.7,0.3-1.4,0.6-2.2,0.9c-0.5,0.2-1.1,0.4-1.6,0.6
		c-0.2,0.1-0.4,0.2-0.7,0.2C49.9,25.5,49.4,24.8,49.4,24.4z"/>
	<path class="st0" d="M38.7,50.4c-0.1-0.5,0.4-1,1-1c0.4,0,0.8,0.2,1,0.6c0.1,0.3,0.2,0.5,0.3,0.8c0.4,1,0.8,1.9,1.2,2.9
		c0.1,0.3,0.3,0.7,0.4,1c0.3,0.7-0.2,1.5-1,1.4c-0.5,0-0.8-0.3-0.9-0.7c-0.3-0.7-0.6-1.4-0.9-2.1c-0.3-0.8-0.7-1.6-1-2.4
		C38.6,50.7,38.7,50.6,38.7,50.4z"/>
	<path class="st0" d="M55.1,42.6c-0.2,0-0.4,0-0.5-0.1c-0.9-0.4-1.9-0.8-2.8-1.2c-0.6-0.2-1.2-0.5-1.7-0.7c-0.4-0.2-0.6-0.5-0.6-0.9
		c0-0.4,0.2-0.7,0.5-0.9c0.3-0.2,0.6-0.2,0.9,0c0.8,0.3,1.6,0.7,2.4,1c0.5,0.2,1,0.4,1.5,0.6c0.2,0.1,0.4,0.2,0.6,0.3
		c0.4,0.2,0.6,0.5,0.6,0.9c0,0.4-0.2,0.7-0.5,0.9C55.4,42.6,55.3,42.6,55.1,42.6z"/>
	<path class="st0" d="M14.6,24.4c0,0.7-0.7,1.2-1.4,0.9c-0.5-0.2-1-0.4-1.5-0.6c-0.6-0.2-1.2-0.5-1.8-0.7c-0.5-0.2-0.9-0.4-1.4-0.6
		C8.2,23.2,8,23,7.9,22.7c-0.1-0.3,0-0.6,0.2-0.9c0.3-0.4,0.8-0.5,1.3-0.3c0.9,0.4,1.8,0.7,2.6,1.1c0.6,0.2,1.2,0.5,1.7,0.7
		c0.3,0.1,0.6,0.4,0.7,0.7C14.6,24.2,14.6,24.3,14.6,24.4z"/>
</g>
<image style="overflow:visible;" width="1280" height="1280" xlink:href="20260224_050539.png"  transform="matrix(8.537371e-03 0 0 7.296255e-03 143.5181 25.8684)">
</image>
<image style="overflow:visible;" width="3264" height="3264" xlink:href="20260224_055528.png"  transform="matrix(9.475440e-05 0 0 8.097953e-05 125.0644 38.9961)">
</image>
<image style="overflow:visible;" width="3264" height="3264" xlink:href="20260224_061116.png"  transform="matrix(3.379574e-03 0 0 2.888270e-03 149.4974 37.9389)">
</image>
<image style="overflow:visible;" width="3264" height="3264" xlink:href="20260224_061142.png"  transform="matrix(2.447822e-03 0 0 2.091971e-03 155.0129 21.2869)">
</image>
<image style="overflow:visible;" width="3264" height="3264" xlink:href="20260224_061209.png"  transform="matrix(2.242521e-03 0 0 1.916516e-03 155.0129 10.8904)">
</image>
<image style="overflow:visible;" width="3264" height="3264" xlink:href="20260224_061245.png"  transform="matrix(1.389731e-03 0 0 1.187700e-03 162.2809 37.5865)">
</image>
</svg>
