<?xml version="1.0" encoding="utf-8"?>
<!-- Generator: Adobe Illustrator 28.2.0, SVG Export Plug-In . SVG Version: 6.00 Build 0)  -->
<svg version="1.1" id="Layer_1" xmlns="http://www.w3.org/2000/svg" xmlns:xlink="http://www.w3.org/1999/xlink" x="0px" y="0px"
	 viewBox="0 0 64 64" style="enable-background:new 0 0 64 64;" xml:space="preserve">
<style type="text/css">
	.st0{fill:#34D399;}
</style>
<image style="overflow:visible;enable-background:new    ;" width="3264" height="3264" xlink:href="20260224_050908.png"  transform="matrix(1.531863e-02 0 0 1.531863e-02 1632.4286 1607.4286)">
</image>
<image style="overflow:visible;enable-background:new    ;" width="3264" height="3264" xlink:href="20260224_055528.png"  transform="matrix(9.475440e-05 0 0 8.097953e-05 125.0644 38.9961)">
</image>
<g>
	<path class="st0" d="M9.9,31.9c0-5,0-10,0-15.1c0-3.9,2.6-6.9,6.4-7.5c0.3-0.1,0.6-0.1,0.9-0.1c5.1,0,10.2,0,15.3,0
		c2.3,0,3.2,2.3,2.3,3.9c-0.5,0.9-1.4,1.2-2.4,1.2c-4.8,0-9.5,0-14.3,0c-0.2,0-0.5,0-0.7,0c-1.4,0.1-2.3,0.9-2.3,2.3
		c0,0.2,0,0.3,0,0.5c0,9.8,0,19.7,0,29.5c0,0.2,0,0.4,0,0.6c0.1,1.2,0.9,2,2.1,2.1c0.2,0,0.5,0,0.7,0c9.8,0,19.6,0,29.4,0
		c0.2,0,0.4,0,0.5,0c1.4-0.1,2.3-0.9,2.3-2.3c0-1.2,0-2.3,0-3.5c0-3.9,0-7.8,0-11.7c0-1.8,1.3-2.9,3.1-2.6c1.2,0.2,2,1.1,2,2.5
		c0,3.1,0,6.2,0,9.2c0,2,0,4,0,6.1c0,4-3.3,7.3-7.3,7.3c-10.2,0-20.4,0-30.6,0c-4,0-7.3-3.3-7.3-7.3C9.9,42.1,9.9,37,9.9,31.9z"/>
	<path class="st0" d="M46.5,14.5c-0.4-0.2-0.6-0.2-0.8-0.2c-1,0-2,0-3.1,0c-1.6,0-2.6-1-2.6-2.6c0-1.5,1-2.5,2.6-2.5
		c3.3,0,6.7,0,10,0c1.6,0,2.5,1,2.5,2.5c0,3.4,0,6.7,0,10.1c0,1.5-1,2.5-2.5,2.5c-1.6,0-2.6-1-2.6-2.5c0-1,0-2.1,0-3.1
		c0-0.2,0.1-0.4-0.1-0.6c-0.3,0.1-0.4,0.3-0.6,0.5c-5,5-9.9,9.9-14.9,14.9c-1.1,1.1-2.3,1.3-3.4,0.5c-1.2-0.8-1.5-2.4-0.7-3.6
		c0.2-0.3,0.4-0.5,0.6-0.7c4.9-4.9,9.8-9.8,14.7-14.7C46,14.8,46.2,14.7,46.5,14.5z"/>
</g>
</svg>
