<?xml version="1.0" encoding="utf-8"?>
<!-- Generator: Adobe Illustrator 28.2.0, SVG Export Plug-In . SVG Version: 6.00 Build 0)  -->
<svg version="1.1" id="Layer_1" xmlns="http://www.w3.org/2000/svg" xmlns:xlink="http://www.w3.org/1999/xlink" x="0px" y="0px"
	 viewBox="0 0 64 64" style="enable-background:new 0 0 64 64;" xml:space="preserve">
<style type="text/css">
	.st0{fill:#56BF92;}
</style>
<image style="overflow:visible;" width="3264" height="3264" xlink:href="20260224_050908.png"  transform="matrix(1.531863e-02 0 0 1.531863e-02 1632.4286 1607.4286)">
</image>
<image style="overflow:visible;" width="3264" height="3264" xlink:href="20260224_050713.png"  transform="matrix(1.926673e-03 0 0 1.646584e-03 106.817 2.3442)">
</image>
<image style="overflow:visible;" width="3264" height="3264" xlink:href="20260224_050814.png"  transform="matrix(2.463614e-03 0 0 2.105468e-03 116.7139 1.375)">
</image>
<image style="overflow:visible;" width="3264" height="3264" xlink:href="20260224_050908.png"  transform="matrix(1.958258e-03 0 0 1.673577e-03 131.3531 1.375)">
</image>
<image style="overflow:visible;" width="3264" height="3264" xlink:href="20260224_050959.png"  transform="matrix(1.958258e-03 0 0 1.673577e-03 141.0438 1.9917)">
</image>
<image style="overflow:visible;" width="3264" height="3264" xlink:href="20260224_051042.png"  transform="matrix(2.463614e-03 0 0 2.105468e-03 149.4974 1.375)">
</image>
<image style="overflow:visible;" width="3264" height="3264" xlink:href="20260224_051146.png"  transform="matrix(2.147766e-03 0 0 1.835536e-03 158.7758 1.9917)">
</image>
<image style="overflow:visible;" width="3264" height="3264" xlink:href="20260224_051253.png"  transform="matrix(2.747878e-03 0 0 2.348406e-03 108.982 10.8904)">
</image>
<image style="overflow:visible;" width="3264" height="3264" xlink:href="20260224_051400.png"  transform="matrix(2.842632e-03 0 0 2.429386e-03 121.25 10.8904)">
</image>
<image style="overflow:visible;" width="3264" height="3264" xlink:href="20260224_051433.png"  transform="matrix(2.811047e-03 0 0 2.402393e-03 132.6933 10.8904)">
</image>
<image style="overflow:visible;" width="3264" height="3264" xlink:href="20260224_051527.png"  transform="matrix(2.368860e-03 0 0 2.024488e-03 145.1675 11.6834)">
</image>
<image style="overflow:visible;" width="3264" height="3264" xlink:href="20260224_051749.png"  transform="matrix(3.442743e-03 0 0 2.942256e-03 125.8892 25.2517)">
</image>
<image style="overflow:visible;" width="1280" height="1280" xlink:href="20260224_050539.png"  transform="matrix(8.537371e-03 0 0 7.296255e-03 143.5181 25.8684)">
</image>
<image style="overflow:visible;" width="3264" height="3264" xlink:href="20260224_055528.png"  transform="matrix(9.475440e-05 0 0 8.097953e-05 125.0644 38.9961)">
</image>
<image style="overflow:visible;" width="3264" height="3264" xlink:href="20260224_055640.png"  transform="matrix(2.653123e-03 0 0 2.267427e-03 124.7552 38.9961)">
</image>
<image style="overflow:visible;" width="3264" height="3264" xlink:href="20260224_061042.png"  transform="matrix(3.111103e-03 0 0 2.658828e-03 137.2809 38.3794)">
</image>
<image style="overflow:visible;" width="3264" height="3264" xlink:href="20260224_061116.png"  transform="matrix(3.379574e-03 0 0 2.888270e-03 149.4974 37.9389)">
</image>
<image style="overflow:visible;" width="3264" height="3264" xlink:href="20260224_061142.png"  transform="matrix(2.447822e-03 0 0 2.091971e-03 155.0129 21.2869)">
</image>
<image style="overflow:visible;" width="3264" height="3264" xlink:href="20260224_061209.png"  transform="matrix(2.242521e-03 0 0 1.916516e-03 155.0129 10.8904)">
</image>
<image style="overflow:visible;" width="3264" height="3264" xlink:href="20260224_061245.png"  transform="matrix(1.389731e-03 0 0 1.187700e-03 162.2809 37.5865)">
</image>
<g>
	<path class="st0" d="M36.8,50.3c-3.4,0-6.8,0-10.2,0c-0.4,0-0.7,0-1.1-0.1c-0.3,0-0.7,0-1-0.1c-0.5,0-0.9,0-1.4-0.1
		c-0.2,0-0.4,0-0.6-0.1c-0.2,0-0.3-0.1-0.4-0.2c-0.2-0.1-0.3-0.1-0.5-0.2c-0.3-0.1-0.6-0.1-0.8-0.1c-0.3,0-0.5-0.1-0.7-0.3
		c-0.2-0.1-0.4-0.2-0.7-0.2C19.2,49,19.1,49,19,49c-0.2-0.1-0.4-0.1-0.5-0.3c-0.1-0.1-0.2-0.1-0.3-0.2c-0.1,0-0.3-0.1-0.4-0.1
		c-0.2,0-0.3-0.1-0.4-0.3C17.2,48,17.1,48,17,47.9c-0.1,0-0.2-0.1-0.3-0.1c-0.2-0.1-0.3-0.1-0.4-0.3c-0.1-0.1-0.3-0.3-0.5-0.3
		c-0.1-0.1-0.2-0.2-0.3-0.3c-0.1-0.1-0.2-0.2-0.3-0.2c-0.2-0.1-0.3-0.2-0.4-0.3c0-0.1-0.1-0.1-0.2-0.2c-0.3-0.1-0.5-0.3-0.7-0.5
		c-0.1-0.1-0.2-0.2-0.4-0.3c-0.1-0.1-0.2-0.2-0.3-0.3c-0.1-0.1-0.2-0.2-0.3-0.3c-0.2-0.2-0.3-0.4-0.5-0.6c-0.1-0.2-0.2-0.3-0.4-0.4
		c-0.1-0.1-0.2-0.2-0.2-0.3c0-0.1-0.1-0.2-0.2-0.2c-0.1-0.1-0.3-0.2-0.3-0.4c-0.1-0.1-0.1-0.2-0.2-0.3c-0.1-0.1-0.2-0.2-0.3-0.4
		c-0.1-0.2-0.2-0.4-0.4-0.6c-0.1-0.1-0.2-0.3-0.2-0.4c0-0.2-0.1-0.3-0.2-0.4c-0.2-0.2-0.3-0.4-0.4-0.7c-0.1-0.2-0.1-0.3-0.3-0.4
		c-0.1-0.1-0.2-0.3-0.2-0.4c0-0.1-0.1-0.3-0.1-0.4c0-0.2-0.1-0.4-0.3-0.5c-0.1-0.1-0.2-0.3-0.2-0.5c-0.1-0.3-0.1-0.6-0.3-0.8
		c-0.1-0.1-0.1-0.2-0.2-0.4c-0.1-0.2-0.1-0.5-0.1-0.7c0-0.5-0.1-1-0.2-1.5c0-0.2-0.1-0.4-0.2-0.6c-0.1-0.3-0.2-0.6-0.2-0.9
		c0-0.9-0.1-1.9,0-2.8c0-0.4,0-0.7,0.1-1.1c0.1-0.2,0.2-0.4,0.2-0.6C7.9,28.1,8,27.7,8,27.3c0-0.4,0-0.7,0.2-1.1
		c0-0.1,0.1-0.2,0.2-0.3c0.1-0.2,0.1-0.4,0.2-0.6c0.1-0.3,0.2-0.7,0.4-0.9C9,24.4,9,24.2,9.1,24.1c0.1-0.2,0.1-0.5,0.2-0.7
		c0-0.1,0.1-0.1,0.1-0.2c0.2-0.2,0.3-0.4,0.4-0.6c0.1-0.2,0.2-0.4,0.4-0.6c0.1-0.1,0.2-0.2,0.2-0.3c0-0.2,0.2-0.4,0.3-0.6
		c0.1-0.2,0.2-0.3,0.3-0.5c0.1-0.1,0.1-0.3,0.3-0.4c0.1-0.1,0.2-0.2,0.2-0.3c0.1-0.1,0.2-0.3,0.3-0.4c0.1-0.1,0.2-0.2,0.2-0.3
		c0-0.1,0.1-0.2,0.2-0.3c0.2-0.2,0.4-0.4,0.5-0.6c0.1-0.1,0.1-0.1,0.2-0.2c0.2-0.2,0.3-0.3,0.4-0.5c0.1-0.1,0.2-0.2,0.3-0.3
		c0.1-0.1,0.2-0.2,0.3-0.3c0.1-0.1,0.1-0.2,0.2-0.2c0.3-0.2,0.5-0.4,0.8-0.6c0.1,0,0.1-0.1,0.2-0.1c0.2-0.1,0.3-0.2,0.4-0.4
		c0.1-0.1,0.2-0.2,0.3-0.2c0.2-0.1,0.3-0.1,0.5-0.3c0.2-0.2,0.4-0.3,0.7-0.3c0.2,0,0.4-0.1,0.5-0.3c0.2-0.2,0.4-0.2,0.6-0.3
		c0.2-0.1,0.5-0.2,0.6-0.3c0.2-0.1,0.4-0.2,0.6-0.3c0.2,0,0.3-0.1,0.5-0.1c0.2,0,0.3-0.1,0.4-0.2c0.2-0.1,0.5-0.2,0.8-0.2
		c0.3-0.1,0.6-0.1,0.9-0.2c0.1,0,0.1,0,0.2-0.1c0.3-0.2,0.6-0.3,1-0.3c0.6,0,1.2,0,1.9-0.1c0.5,0,0.9,0,1.4-0.1c0.2,0,0.5,0,0.7,0
		c0,0,0.1,0,0.1,0c0.4,0,0.8,0,1.2,0c0.5,0,1,0,1.5,0.1c0.2,0.1,0.5,0.1,0.7,0.2c0.2,0.1,0.5,0.2,0.7,0.2c0.3,0.1,0.6,0.1,0.9,0.2
		c0.1,0,0.2,0.1,0.2,0.1c0.2,0.1,0.4,0.2,0.6,0.3c0.2,0,0.4,0.1,0.6,0.1c0.1,0,0.3,0.1,0.4,0.2c0.2,0.2,0.5,0.3,0.7,0.3
		c0.2,0.1,0.4,0.1,0.6,0.3c0.1,0.1,0.3,0.2,0.4,0.2c0.1,0,0.2,0.1,0.3,0.1c0.1,0.1,0.3,0.1,0.4,0.2c0.1,0.2,0.3,0.3,0.5,0.4
		c0.1,0,0.2,0.1,0.2,0.2c0.1,0.1,0.2,0.2,0.4,0.3c0.1,0,0.2,0.1,0.3,0.2c0.2,0.2,0.4,0.3,0.7,0.5c0.1,0.1,0.2,0.1,0.3,0.2
		c0.1,0.2,0.3,0.3,0.5,0.4c0.1,0,0.2,0.1,0.2,0.2c0.1,0.2,0.2,0.3,0.4,0.4c0,0,0.1,0.1,0.1,0.1c0.1,0.2,0.3,0.4,0.5,0.5
		c0,0,0.1,0.1,0.1,0.1c0.1,0.1,0.2,0.2,0.3,0.3c0.2,0.2,0.4,0.5,0.5,0.7c0,0.1,0.1,0.1,0.1,0.2c0.1,0.1,0.2,0.2,0.3,0.4
		c0.1,0.2,0.2,0.4,0.4,0.6c0.1,0.1,0.2,0.2,0.2,0.4c0.1,0.2,0.2,0.4,0.4,0.6c0.1,0.1,0.1,0.2,0.2,0.3c0.1,0.3,0.2,0.5,0.4,0.7
		c0.1,0.1,0.1,0.3,0.2,0.4c0,0.2,0.1,0.4,0.1,0.5c0,0.2,0.1,0.3,0.3,0.4c0.3,0.1,0.7,0.2,1,0.2c0.5,0,1.1,0,1.6,0c0.3,0,0.7,0,1,0.1
		c0.3,0.1,0.6,0.1,0.9,0.1c0.6,0.1,1.1,0.1,1.7,0.2c0.3,0,0.5,0.1,0.7,0.3c0.2,0.1,0.5,0.2,0.8,0.2c0.1,0,0.2,0,0.3,0.1
		c0.1,0,0.2,0.1,0.3,0.2c0.2,0.2,0.5,0.3,0.7,0.4c0.2,0.1,0.3,0.2,0.5,0.3c0.1,0.1,0.2,0.2,0.3,0.2c0.2,0,0.3,0.1,0.4,0.3
		c0.2,0.2,0.4,0.3,0.6,0.5c0.1,0,0.1,0.1,0.2,0.2c0.1,0.2,0.3,0.3,0.5,0.4c0.1,0.1,0.2,0.1,0.3,0.2c0.1,0.1,0.2,0.2,0.3,0.3
		c0.1,0.1,0.2,0.2,0.3,0.3c0.1,0.2,0.2,0.3,0.3,0.4c0.1,0,0.1,0.1,0.1,0.2c0.2,0.2,0.3,0.5,0.5,0.7c0.1,0.1,0.2,0.2,0.2,0.3
		c0,0.2,0.1,0.3,0.3,0.4c0.1,0.1,0.2,0.2,0.3,0.4c0,0.1,0.1,0.3,0.2,0.4c0,0.1,0.1,0.2,0.2,0.2c0.2,0.2,0.3,0.3,0.3,0.6
		c0.1,0.3,0.2,0.6,0.3,0.8c0.1,0.2,0.2,0.4,0.2,0.6c0.1,0.5,0.2,1,0.3,1.4c0.1,0.2,0.1,0.5,0.1,0.8c0,0.4,0.1,0.7,0.1,1.1
		c0,0.3,0,0.6,0,1c0,0.3,0,0.6-0.1,0.9c0,0.3-0.1,0.7-0.2,1c-0.1,0.3-0.2,0.6-0.2,0.9c0,0.3-0.1,0.6-0.3,0.9
		c-0.1,0.2-0.2,0.5-0.3,0.7c0,0.1,0,0.1,0,0.2c-0.1,0.2-0.1,0.4-0.3,0.5c-0.2,0.1-0.2,0.3-0.3,0.5c-0.1,0.2-0.2,0.4-0.4,0.6
		c-0.1,0.1-0.1,0.1-0.1,0.2c-0.1,0.3-0.2,0.5-0.4,0.7c-0.1,0.1-0.2,0.2-0.3,0.3c-0.1,0.1-0.2,0.2-0.3,0.3c-0.1,0.1-0.2,0.2-0.3,0.4
		c-0.1,0.1-0.1,0.2-0.2,0.2c-0.1,0.1-0.3,0.2-0.4,0.3c-0.1,0.1-0.2,0.2-0.3,0.2c-0.1,0.1-0.2,0.1-0.3,0.3c-0.2,0.2-0.4,0.4-0.6,0.5
		c-0.1,0.1-0.2,0.1-0.2,0.2c-0.1,0.1-0.3,0.2-0.5,0.3c-0.1,0.1-0.3,0.1-0.4,0.2C53.2,48.9,53,49,52.8,49c-0.2,0.1-0.4,0.1-0.6,0.3
		c-0.1,0.1-0.2,0.2-0.4,0.2c-0.1,0-0.3,0.1-0.4,0.1c-0.3,0.1-0.5,0.1-0.8,0.3c-0.3,0.2-0.5,0.2-0.8,0.2c-0.4,0.1-0.8,0.1-1.2,0.1
		c-0.4,0-0.8,0-1.2,0.1c-0.1,0-0.2,0-0.3,0C43.7,50.3,40.2,50.3,36.8,50.3C36.8,50.3,36.8,50.3,36.8,50.3z M36.7,46.6
		c2.7,0,5.3,0,8,0c1.1,0,2.3,0,3.4-0.1c0.3,0,0.5-0.1,0.8-0.1c0.1,0,0.2,0,0.3-0.1c0.2-0.1,0.4-0.2,0.7-0.2c0.3,0,0.6-0.1,0.9-0.2
		c0.1,0,0.2-0.1,0.2-0.1c0.1-0.2,0.3-0.2,0.5-0.3c0.2-0.1,0.3-0.2,0.5-0.3c0.1-0.2,0.3-0.3,0.5-0.4c0.1-0.1,0.2-0.1,0.3-0.2
		c0.1-0.2,0.2-0.3,0.4-0.3c0.1-0.1,0.2-0.1,0.3-0.3c0.1-0.1,0.2-0.2,0.3-0.3c0.1-0.1,0.2-0.2,0.3-0.3c0.1-0.2,0.2-0.3,0.3-0.4
		c0,0,0.1-0.1,0.1-0.1c0.1-0.2,0.2-0.3,0.2-0.5c0.1-0.2,0.1-0.3,0.3-0.4c0.1-0.1,0.2-0.2,0.2-0.3c0-0.1,0.1-0.3,0.1-0.4
		c0.1-0.2,0.1-0.4,0.3-0.5c0.1-0.1,0.1-0.1,0.1-0.2c0.2-0.5,0.2-0.9,0.2-1.4c0-0.2,0-0.5,0.1-0.7c0-0.3,0.1-0.6,0-0.9
		c-0.1-0.5-0.1-1-0.1-1.5c0-0.4-0.1-0.8-0.2-1.2c0-0.1,0-0.2-0.1-0.3c-0.2-0.3-0.3-0.6-0.3-0.9c-0.1-0.2-0.1-0.5-0.3-0.6
		c-0.1-0.2-0.3-0.3-0.3-0.5c0-0.1-0.1-0.2-0.2-0.3c-0.1-0.1-0.2-0.2-0.3-0.3c-0.1-0.1-0.2-0.3-0.3-0.4c-0.1-0.1-0.2-0.1-0.2-0.2
		c-0.1-0.1-0.2-0.2-0.3-0.3c-0.1-0.1-0.3-0.2-0.4-0.3c-0.1-0.1-0.2-0.2-0.3-0.2c-0.1,0-0.2-0.1-0.3-0.2c-0.2-0.2-0.4-0.3-0.6-0.4
		c-0.1,0-0.1,0-0.2-0.1c-0.1,0-0.3-0.1-0.4-0.2c-0.2-0.2-0.4-0.2-0.6-0.3c-0.1,0-0.2-0.1-0.3-0.1c-0.3-0.1-0.5-0.1-0.7-0.3
		c-0.1-0.1-0.3-0.1-0.5-0.2c-0.3-0.1-0.6-0.1-0.9-0.1c-0.6,0-1.1-0.1-1.7-0.1c-1.2,0-2.3,0-3.5,0c-0.2,0-0.4-0.1-0.7-0.1
		c-0.1,0-0.1,0-0.2-0.1c-0.1-0.1-0.2-0.1-0.3-0.2c-0.2-0.1-0.4-0.2-0.5-0.5c-0.1-0.1-0.1-0.3-0.2-0.4c-0.2-0.2-0.3-0.4-0.3-0.7
		c-0.1-0.3-0.1-0.6-0.4-0.8c-0.1-0.1-0.1-0.1-0.1-0.2c-0.1-0.2-0.1-0.5-0.2-0.7c0-0.1-0.1-0.3-0.2-0.4c-0.1-0.1-0.2-0.2-0.2-0.3
		c-0.1-0.1-0.1-0.2-0.2-0.4c-0.1-0.1-0.1-0.3-0.2-0.4c-0.1-0.1-0.2-0.2-0.3-0.4c0-0.1-0.1-0.2-0.2-0.3c-0.2-0.2-0.4-0.5-0.5-0.8
		c-0.1-0.1-0.1-0.2-0.2-0.2c-0.2-0.1-0.3-0.3-0.4-0.4c0-0.1-0.1-0.1-0.2-0.2c-0.2-0.1-0.3-0.2-0.3-0.3c-0.1-0.2-0.2-0.3-0.4-0.3
		c-0.1,0-0.2-0.1-0.2-0.2c-0.1-0.1-0.2-0.2-0.4-0.3c-0.2-0.1-0.4-0.2-0.6-0.4c-0.1-0.1-0.3-0.3-0.5-0.3c-0.1-0.1-0.2-0.1-0.3-0.3
		c-0.1-0.1-0.2-0.2-0.4-0.3c-0.2-0.1-0.4-0.2-0.6-0.4c-0.1-0.1-0.3-0.2-0.5-0.2c-0.2-0.1-0.5-0.1-0.7-0.3c-0.2-0.1-0.3-0.2-0.6-0.3
		c-0.2,0-0.3-0.1-0.5-0.1c-0.1,0-0.3-0.1-0.4-0.2c-0.2-0.2-0.5-0.2-0.7-0.3c-0.3,0-0.5-0.1-0.8-0.1c-0.3,0-0.6-0.1-0.8-0.3
		c-0.1,0-0.1-0.1-0.2-0.1c-0.5-0.1-0.9-0.1-1.4-0.1c-0.1,0-0.3,0-0.4,0c-0.2,0-0.5,0-0.7,0c-0.4,0-0.7,0.1-1.1,0.1
		c-0.4,0-0.7,0.1-1.1,0.2c-0.5,0.1-1.1,0.3-1.7,0.3c-0.3,0-0.7,0.1-1,0.3c-0.1,0-0.1,0.1-0.2,0.1c-0.1,0.1-0.3,0.1-0.5,0.1
		c-0.2,0-0.4,0.1-0.6,0.3c-0.2,0.2-0.4,0.3-0.7,0.4c-0.2,0.1-0.4,0.2-0.6,0.3c-0.1,0.1-0.3,0.2-0.4,0.2c-0.2,0-0.3,0.2-0.4,0.3
		c-0.1,0.1-0.2,0.2-0.3,0.3c-0.1,0.1-0.3,0.2-0.4,0.3c-0.1,0.2-0.3,0.3-0.5,0.4c-0.1,0.1-0.3,0.2-0.4,0.3c-0.1,0.1-0.2,0.2-0.4,0.3
		c-0.1,0.1-0.2,0.1-0.2,0.2c-0.1,0.2-0.2,0.3-0.3,0.4c-0.1,0.1-0.2,0.2-0.2,0.3c-0.1,0.2-0.2,0.4-0.4,0.5c-0.1,0.1-0.2,0.2-0.2,0.3
		c-0.1,0.2-0.3,0.4-0.4,0.6C14,22.9,14,23,13.9,23.1c-0.1,0.2-0.2,0.4-0.3,0.5c-0.1,0.1-0.1,0.1-0.2,0.2c-0.1,0.1-0.1,0.3-0.2,0.4
		c0,0.1-0.1,0.2-0.2,0.3c-0.2,0.1-0.3,0.3-0.3,0.5c-0.1,0.3-0.2,0.6-0.4,0.8c-0.1,0.1-0.1,0.2-0.1,0.3c0,0.2-0.1,0.3-0.1,0.5
		c-0.1,0.3-0.1,0.6-0.3,0.8c-0.1,0.1-0.1,0.3-0.1,0.4c-0.1,0.3-0.1,0.6-0.1,0.9c0,0.3-0.1,0.6-0.1,0.9c-0.1,0.5-0.1,0.9-0.1,1.4
		c0,0.3,0,0.6,0,0.9c0,0.4,0,0.7,0.1,1.1c0,0.2,0.1,0.4,0.1,0.6c0,0.5,0.1,0.9,0.2,1.3c0,0.2,0.1,0.4,0.2,0.5c0,0,0,0.1,0.1,0.1
		c0.1,0.2,0.2,0.5,0.2,0.7c0.1,0.3,0.1,0.6,0.3,0.8c0.1,0.1,0.1,0.1,0.1,0.2c0.1,0.2,0.1,0.4,0.1,0.6c0,0.2,0.1,0.3,0.2,0.5
		c0.2,0.2,0.3,0.3,0.3,0.6c0.1,0.2,0.2,0.4,0.4,0.6c0.1,0.1,0.1,0.2,0.2,0.3c0,0.1,0.1,0.2,0.2,0.3c0.2,0.2,0.3,0.4,0.5,0.6
		c0.1,0.1,0.2,0.3,0.3,0.4c0.1,0.1,0.2,0.2,0.3,0.3c0.1,0.1,0.1,0.2,0.3,0.3c0.2,0.1,0.3,0.2,0.4,0.4c0,0.1,0.1,0.1,0.2,0.2
		c0.1,0.1,0.3,0.2,0.4,0.3c0.1,0.2,0.3,0.3,0.5,0.4c0.2,0.1,0.3,0.2,0.5,0.4c0.1,0.1,0.2,0.2,0.3,0.2c0.2,0.1,0.3,0.2,0.4,0.3
		c0.1,0.1,0.2,0.2,0.3,0.2c0.2,0.1,0.5,0.2,0.6,0.3c0.2,0.2,0.4,0.2,0.6,0.3c0.2,0,0.4,0.1,0.5,0.3c0.2,0.2,0.4,0.3,0.7,0.3
		c0.4,0.1,0.7,0.1,1,0.3c0.1,0.1,0.3,0.1,0.5,0.2c0.6,0.1,1.1,0.2,1.7,0.3c0.2,0,0.3,0.1,0.5,0.1c0.4,0,0.7,0.1,1.1,0.1
		c0.3,0,0.7,0.1,1,0.1C29.9,46.6,33.3,46.6,36.7,46.6z"/>
</g>
<image style="overflow:visible;" width="3264" height="3264" xlink:href="20260224_061701.png"  transform="matrix(2.803151e-03 0 0 1.822039e-03 144.9227 50.2737)">
</image>
<image style="overflow:visible;" width="3264" height="3264" xlink:href="20260224_061723.png"  transform="matrix(4.406080e-03 0 0 2.996243e-03 133.4149 51.5953)">
</image>
<image style="overflow:visible;" width="3264" height="3264" xlink:href="iconPetal004.png"  transform="matrix(1.831918e-03 0 0 1.565604e-03 119.8067 50.2737)">
</image>
</svg>
