<?xml version="1.0" encoding="utf-8"?>
<!-- Generator: Adobe Illustrator 28.2.0, SVG Export Plug-In . SVG Version: 6.00 Build 0)  -->
<svg version="1.1" id="Layer_1" xmlns="http://www.w3.org/2000/svg" xmlns:xlink="http://www.w3.org/1999/xlink" x="0px" y="0px"
	 viewBox="0 0 64 64" style="enable-background:new 0 0 64 64;" xml:space="preserve">
<style type="text/css">
	.st0{fill:#56BF92;}
</style>
<image style="overflow:visible;" width="3264" height="3264" xlink:href="20260224_050908.png"  transform="matrix(1.531863e-02 0 0 1.531863e-02 1632.4286 1607.4286)">
</image>
<g>
	<path class="st0" d="M7.5,19.4c0-2.9,0-5.8,0-8.7c0-0.2,0-0.5,0.1-0.7c0-0.1,0-0.2,0-0.3c0-0.2,0-0.3,0.1-0.5c0,0,0,0,0-0.1
		c0-0.4,0.2-0.7,0.4-1c0.2-0.3,0.4-0.6,0.7-0.9c0.4-0.4,0.8-0.7,1.2-0.9c0.3-0.2,0.7-0.3,1-0.4c0.1,0,0.3,0,0.4,0
		c0.3,0,0.5-0.1,0.8-0.1c4.1,0,8.2,0,12.4,0c0.3,0,0.5,0,0.7,0.1c0.1,0,0.1,0,0.2,0c0.2,0,0.4,0,0.5,0.1c0.1,0,0.2,0,0.3,0.1
		c0.3,0,0.5,0.2,0.7,0.3c0.1,0.1,0.2,0.1,0.3,0.1c0.1,0,0.1,0.1,0.2,0.1c0.3,0.3,0.6,0.5,0.9,0.8c0.3,0.3,0.5,0.7,0.7,1.1
		c0.1,0.2,0.2,0.4,0.2,0.6c0,0,0,0.1,0,0.1c0.1,0.2,0.1,0.4,0.1,0.6c0,0.2,0,0.3,0.1,0.5c0,0.1,0,0.2,0,0.3c0,5.9,0,11.7,0,17.6
		c0,0.1,0,0.2,0,0.3c0,0.2-0.1,0.4,0,0.7c0,0.2,0,0.3-0.1,0.5c0,0,0,0.1,0,0.1c-0.1,0.6-0.4,1-0.7,1.5c-0.2,0.3-0.5,0.6-0.8,0.8
		c-0.3,0.3-0.7,0.5-1.1,0.7c-0.1,0-0.1,0.1-0.2,0.1c-0.1,0-0.1,0-0.2,0c-0.3,0.1-0.7,0.2-1,0.2c-0.2,0-0.3,0-0.5,0
		c-4.2,0-8.4,0-12.6,0c-0.1,0-0.3,0-0.4,0c-0.2,0-0.4,0-0.7-0.1c-0.5-0.1-0.9-0.2-1.3-0.5c-0.3-0.2-0.6-0.4-0.9-0.6
		c-0.1,0-0.1-0.1-0.1-0.1c-0.2-0.2-0.4-0.5-0.6-0.7c0-0.1-0.1-0.2-0.1-0.2c-0.1-0.2-0.2-0.3-0.3-0.5c0-0.1-0.1-0.2-0.1-0.2
		c0-0.1,0-0.2-0.1-0.3c0-0.1-0.1-0.2-0.1-0.3c0-0.2,0-0.5-0.1-0.7c0-0.1,0-0.3,0-0.4C7.5,25.2,7.5,22.3,7.5,19.4
		C7.5,19.4,7.5,19.4,7.5,19.4z M11.5,19.3c0,2.2,0,4.4,0,6.6c0,0.8,0,1.5,0,2.3c0,0.3,0.2,0.5,0.5,0.6c0.1,0,0.2,0,0.3,0
		c4.1,0,8.3,0,12.4,0c0.1,0,0.2,0,0.4,0c0.2,0,0.3-0.1,0.3-0.2c0.1-0.2,0.1-0.4,0.1-0.6c0-4.2,0-8.4,0-12.6c0-1.5,0-3,0-4.5
		c0-0.3,0-0.5-0.1-0.7c0,0,0-0.1-0.1-0.1c-0.1-0.1-0.3-0.2-0.4-0.1c-0.5,0-0.9,0-1.4,0c-0.5,0-0.9,0-1.4,0c-0.3,0-0.6,0-0.9,0
		c-0.1,0-0.1,0-0.2,0c-0.4,0-0.9,0-1.3,0c-0.5,0-1,0-1.5,0c-1.9,0-3.8,0-5.7,0c-0.2,0-0.3,0-0.5,0c-0.3,0-0.5,0.3-0.5,0.5
		c0,0.1,0,0.1,0,0.2C11.5,13.5,11.5,16.4,11.5,19.3z"/>
	<path class="st0" d="M57.7,42.5c0,2.9,0,5.9,0,8.8c0,0.2,0,0.3-0.1,0.5c0,0.2,0,0.3-0.1,0.5c0,0.1,0,0.2-0.1,0.4
		c-0.1,0.2-0.1,0.3-0.2,0.5c0,0.1-0.1,0.2-0.2,0.3c-0.1,0.2-0.2,0.4-0.3,0.5c-0.2,0.2-0.4,0.4-0.5,0.6c-0.1,0.1-0.1,0.1-0.2,0.2
		c-0.3,0.3-0.7,0.5-1,0.7c-0.2,0.1-0.5,0.2-0.7,0.3c-0.3,0.1-0.7,0.1-1,0.2c-0.3,0.1-0.7,0-1,0c-3.9,0-7.8,0-11.7,0
		c-0.4,0-0.8,0-1.2-0.1c-0.3,0-0.6-0.2-0.9-0.3c-0.2-0.1-0.4-0.2-0.5-0.3c-0.1-0.1-0.3-0.1-0.4-0.3c-0.1-0.1-0.3-0.2-0.4-0.3
		c-0.2-0.2-0.4-0.5-0.7-0.7c-0.1-0.1-0.2-0.3-0.3-0.4c-0.2-0.3-0.2-0.6-0.4-0.9c-0.1-0.3-0.1-0.7-0.1-1c-0.1-0.3,0-0.7,0-1
		c0-5.7,0-11.3,0-17c0-0.2,0-0.4,0.1-0.5c0-0.2,0-0.3,0-0.5c0-0.1,0-0.3,0.1-0.4c0.1-0.2,0.1-0.3,0.2-0.5c0-0.1,0.1-0.2,0.2-0.4
		c0.2-0.4,0.5-0.8,0.8-1.1c0.3-0.3,0.6-0.6,1-0.8c0.1-0.1,0.3-0.2,0.4-0.2c0.1-0.1,0.2-0.1,0.3-0.1c0.2,0,0.3-0.1,0.5-0.1
		c0,0,0.1,0,0.1,0c0.4,0,0.7-0.1,1.1-0.1c2.9,0,5.7,0,8.6,0c1.3,0,2.7,0,4,0c0.2,0,0.3,0,0.5,0c0.1,0,0.3,0,0.4,0
		c0.3,0,0.6,0.2,0.8,0.3c0.3,0.1,0.6,0.3,0.9,0.5c0.1,0,0.1,0.1,0.2,0.1c0.1,0.1,0.2,0.2,0.3,0.3c0.2,0.1,0.3,0.3,0.4,0.4
		c0.2,0.2,0.4,0.4,0.5,0.7c0.1,0.3,0.3,0.6,0.4,0.9c0.1,0.3,0.1,0.6,0.2,0.9c0.1,0.3,0.1,0.6,0.1,0.9C57.7,36.7,57.7,39.6,57.7,42.5
		C57.7,42.5,57.7,42.5,57.7,42.5z M53.7,42.5C53.7,42.5,53.7,42.5,53.7,42.5c0-2.9,0-5.8,0-8.7c0-0.1,0-0.2,0-0.3
		c-0.1-0.2-0.3-0.5-0.6-0.5c0,0-0.1,0-0.1,0c-4.2,0-8.3,0-12.5,0c-0.1,0-0.2,0-0.3,0c-0.2,0-0.3,0.1-0.4,0.3
		c-0.1,0.1-0.1,0.3-0.1,0.4c0,5.8,0,11.6,0,17.5c0,0.2,0,0.3,0.1,0.5c0.1,0.2,0.3,0.3,0.5,0.3c4.2,0,8.5,0,12.7,0
		c0.3,0,0.5-0.1,0.6-0.3c0.1-0.1,0.1-0.2,0.1-0.3C53.7,48.3,53.7,45.4,53.7,42.5z"/>
	<path class="st0" d="M18.5,39.1c2.1,0,4.1,0,6.2,0c0.5,0,1,0.1,1.4,0.2c0.3,0.1,0.6,0.2,0.8,0.3c0.2,0.1,0.3,0.2,0.5,0.3
		c0.3,0.2,0.6,0.5,0.9,0.8c0.2,0.3,0.4,0.5,0.6,0.8c0.1,0.2,0.2,0.5,0.3,0.7c0,0,0,0.1,0,0.1c0,0.1,0,0.3,0.1,0.4c0,0.1,0,0.2,0,0.3
		c0,0.2,0,0.5,0.1,0.7c0,0.1,0,0.1,0,0.2c0,2.4,0,4.9,0,7.3c0,0.1,0,0.2,0,0.3c0,0.2-0.1,0.4-0.1,0.6c0,0.2,0,0.3-0.1,0.5
		c0,0,0,0.1,0,0.1c0,0.2-0.1,0.4-0.2,0.6c0,0.1-0.1,0.2-0.2,0.3c-0.2,0.4-0.4,0.7-0.7,1c-0.3,0.3-0.5,0.5-0.8,0.7
		c-0.3,0.2-0.6,0.4-1,0.5c-0.3,0.1-0.6,0.1-0.9,0.2c-0.7,0.1-1.4,0.1-2.1,0.1c-3.4,0-6.7,0-10.1,0c-0.4,0-0.8,0-1.2,0
		c-0.3,0-0.6,0-0.9-0.1c-0.4-0.1-0.8-0.2-1.2-0.4c-0.1-0.1-0.2-0.1-0.3-0.2c-0.4-0.3-0.9-0.6-1.2-1.1c0,0,0-0.1-0.1-0.1
		C8.2,54,8.1,53.7,8,53.5c-0.1-0.2-0.2-0.3-0.2-0.5c-0.1-0.3-0.2-0.5-0.2-0.8c0-0.2,0-0.4-0.1-0.6c0-0.1,0-0.2,0-0.3
		c0-2.5,0-5,0-7.5c0-0.2,0-0.3,0.1-0.5c0-0.2,0.1-0.3,0.1-0.5c0-0.2,0-0.3,0.1-0.5c0,0,0-0.1,0-0.1c0-0.2,0.1-0.3,0.2-0.5
		c0.1-0.2,0.2-0.5,0.4-0.7c0.2-0.3,0.4-0.6,0.7-0.8c0.2-0.2,0.5-0.4,0.8-0.6c0.3-0.1,0.5-0.3,0.8-0.4c0.2-0.1,0.5-0.1,0.7-0.2
		c0.3-0.1,0.6-0.1,0.9-0.1C14.4,39.1,16.4,39.1,18.5,39.1C18.5,39.1,18.5,39.1,18.5,39.1z M18.5,52C18.5,52,18.5,52,18.5,52
		c1.6,0,3.2,0,4.8,0c0.5,0,1.1,0,1.6,0c0.2,0,0.4-0.1,0.5-0.3c0.1-0.2,0.1-0.3,0.1-0.5c0-2.3,0-4.7,0-7c0-0.1,0-0.3,0-0.4
		c-0.1-0.2-0.1-0.4-0.4-0.4c-0.2,0-0.4-0.1-0.6,0c-0.1,0-0.1,0-0.2,0c-0.3-0.1-0.6,0-0.9,0c0,0,0,0-0.1,0c-0.1,0-0.3,0-0.4,0
		c-3.6,0-7.1,0-10.7,0c-0.1,0-0.2,0-0.3,0c-0.2,0-0.3,0.1-0.4,0.2c-0.1,0.1-0.1,0.3-0.1,0.4c0,2.5,0,5,0,7.4c0,0,0,0.1,0,0.1
		c0,0.1,0,0.2,0.1,0.2c0.1,0.2,0.3,0.3,0.6,0.3C14.3,51.9,16.4,52,18.5,52z"/>
	<path class="st0" d="M46.7,22.7c-2.1,0-4.1,0-6.2,0c-0.4,0-0.9,0-1.3-0.2c-0.5-0.1-0.9-0.3-1.3-0.5c-0.2-0.1-0.3-0.3-0.5-0.4
		c-0.3-0.2-0.5-0.6-0.8-0.8c-0.1-0.1-0.2-0.2-0.2-0.4c0-0.1-0.1-0.2-0.1-0.2c-0.1-0.2-0.1-0.3-0.2-0.5c0,0,0-0.1,0-0.1
		c0,0,0-0.1,0-0.1c-0.2-0.6-0.2-1.3-0.2-1.9c0-2.3,0-4.6,0-6.9c0-0.1,0-0.3,0-0.4c0.1-0.2,0-0.4,0-0.6c0-0.1,0-0.3,0.1-0.4
		c0,0,0-0.1,0-0.1c0.1-0.6,0.4-1.1,0.8-1.5c0.1-0.1,0.1-0.1,0.2-0.2c0.1-0.2,0.3-0.3,0.5-0.5c0.1-0.1,0.2-0.2,0.4-0.3
		c0.2-0.2,0.5-0.3,0.7-0.4C38.6,6.1,38.8,6,39,6c0.3-0.1,0.5-0.1,0.8-0.1c0.7-0.1,1.4,0,2.1,0c3.6,0,7.3,0,10.9,0
		c0.4,0,0.8,0.1,1.2,0.1c0,0,0,0,0.1,0C54.3,6,54.6,6,54.9,6.1c0.1,0,0.2,0.1,0.3,0.2c0.1,0.1,0.2,0.1,0.3,0.2
		c0.2,0.1,0.4,0.3,0.6,0.5c0.3,0.3,0.6,0.7,0.9,1c0.1,0.1,0.1,0.2,0.2,0.3c0.1,0.2,0.2,0.3,0.2,0.4c0,0.1,0.1,0.2,0.1,0.3
		c0,0.1,0,0.2,0.1,0.3c0,0.1,0,0.2,0,0.3c0,0.2,0,0.5,0.1,0.7c0,0.1,0,0.2,0,0.3c0,2.6,0,5.1,0,7.7c0,0.1,0,0.2,0,0.3
		c-0.1,0.2,0,0.4-0.1,0.5c0,0.1,0,0.2-0.1,0.3c0,0,0,0.1,0,0.1c0,0.3-0.2,0.6-0.3,0.9c-0.1,0.2-0.2,0.4-0.4,0.6
		c-0.3,0.4-0.7,0.8-1.1,1.1c-0.3,0.2-0.5,0.3-0.8,0.4c-0.2,0.1-0.4,0.2-0.7,0.2c0,0,0,0-0.1,0c-0.4,0.2-0.8,0.1-1.2,0.1
		C50.8,22.7,48.8,22.7,46.7,22.7z M46.7,18.6c2.1,0,4.2,0,6.3,0c0.1,0,0.1,0,0.2,0c0.1,0,0.2,0,0.3-0.1c0.1-0.2,0.2-0.3,0.2-0.5
		c0-2.4,0-4.9,0-7.3c0,0,0-0.1,0-0.1c0-0.3-0.1-0.5-0.4-0.6c-0.1,0-0.2,0-0.3,0c-2.4,0-4.8,0-7.2,0c-1.8,0-3.6,0-5.4,0
		c-0.2,0-0.4,0.1-0.5,0.3c-0.1,0.1-0.1,0.3-0.1,0.4c0,2.4,0,4.9,0,7.3c0,0,0,0.1,0,0.1c0,0.4,0.2,0.6,0.6,0.6c0.1,0,0.1,0,0.2,0
		C42.6,18.6,44.7,18.6,46.7,18.6z"/>
</g>
<image style="overflow:visible;" width="3264" height="3264" xlink:href="20260224_051042.png"  transform="matrix(2.463614e-03 0 0 2.105468e-03 149.4974 1.375)">
</image>
<image style="overflow:visible;" width="3264" height="3264" xlink:href="20260224_051146.png"  transform="matrix(2.147766e-03 0 0 1.835536e-03 158.7758 1.9917)">
</image>
<image style="overflow:visible;" width="3264" height="3264" xlink:href="20260224_051527.png"  transform="matrix(2.368860e-03 0 0 2.024488e-03 145.1675 11.6834)">
</image>
<image style="overflow:visible;" width="3264" height="3264" xlink:href="20260224_055528.png"  transform="matrix(9.475440e-05 0 0 8.097953e-05 125.0644 38.9961)">
</image>
<image style="overflow:visible;" width="3264" height="3264" xlink:href="20260224_061142.png"  transform="matrix(2.447822e-03 0 0 2.091971e-03 155.0129 21.2869)">
</image>
<image style="overflow:visible;" width="3264" height="3264" xlink:href="20260224_061209.png"  transform="matrix(2.242521e-03 0 0 1.916516e-03 155.0129 10.8904)">
</image>
<image style="overflow:visible;" width="3264" height="3264" xlink:href="20260224_061245.png"  transform="matrix(1.389731e-03 0 0 1.187700e-03 162.2809 37.5865)">
</image>
</svg>
