<svg>
<g>
	<path fill="currentColor" d="M26.96,77.73c0.03-0.41,0.07-0.94,0.12-1.46c0.08-0.9-0.14-1.72-0.68-2.44c-0.65-0.88-1.55-1.29-2.63-1.37
		c-0.34-0.02-0.67,0.05-1,0.06c-0.28,0.01-0.55,0.05-0.83,0.07c-0.52,0.04-1.02-0.03-1.47-0.3c-0.78-0.47-1.23-1.14-1.27-2.07
		c-0.02-0.49,0.13-0.93,0.32-1.37c0.17-0.4,0.36-0.79,0.49-1.2c0.37-1.14,0.19-2.2-0.53-3.16c-0.48-0.65-1.14-1.06-1.94-1.25
		c-0.48-0.12-0.97-0.22-1.46-0.34c-0.38-0.09-0.75-0.23-1.06-0.48c-0.84-0.66-1.28-1.92-0.66-3.09c0.17-0.31,0.41-0.57,0.64-0.83
		c0.28-0.33,0.58-0.64,0.84-0.99c1.03-1.42,0.83-3.24-0.31-4.4c-0.24-0.25-0.52-0.44-0.82-0.62c-0.42-0.26-0.86-0.51-1.27-0.79
		c-1.22-0.82-1.4-2.61-0.39-3.67c0.28-0.29,0.61-0.49,0.94-0.69c0.46-0.28,0.94-0.54,1.35-0.89c0.6-0.51,0.97-1.17,1.1-1.94
		c0.2-1.16-0.13-2.16-0.93-3.02c-0.33-0.36-0.66-0.72-0.96-1.11c-0.4-0.54-0.58-1.15-0.46-1.82c0.19-1.09,0.84-1.76,1.9-2.04
		c0.55-0.14,1.1-0.26,1.64-0.4c0.67-0.17,1.24-0.52,1.69-1.04c0.58-0.66,0.86-1.44,0.85-2.32c0-0.41-0.08-0.81-0.24-1.19
		c-0.19-0.45-0.38-0.91-0.56-1.36c-0.59-1.44,0.24-3.13,1.93-3.4c0.44-0.07,0.86,0.01,1.29,0.03c0.55,0.03,1.1,0.13,1.66,0.02
		c1.45-0.28,2.57-1.4,2.79-2.89c0.07-0.44,0-0.88-0.02-1.32c-0.02-0.38-0.09-0.76-0.08-1.15c0.03-0.95,0.49-1.65,1.31-2.12
		c0.35-0.2,0.73-0.28,1.12-0.31c0.31-0.02,0.6,0.05,0.89,0.16c0.5,0.19,1,0.41,1.5,0.6c1.42,0.55,2.95,0.15,3.92-0.97
		c0.39-0.45,0.62-0.98,0.76-1.55c0.1-0.43,0.2-0.86,0.31-1.29c0.3-1.13,1.34-1.94,2.49-1.91c0.65,0.01,1.2,0.27,1.69,0.69
		c0.38,0.32,0.76,0.64,1.15,0.95c0.63,0.49,1.36,0.73,2.15,0.7c1.19-0.04,2.16-0.53,2.83-1.54c0.26-0.39,0.5-0.78,0.74-1.18
		c0.27-0.44,0.6-0.82,1.06-1.06c1.11-0.59,2.44-0.29,3.17,0.67c0.37,0.48,0.65,1.02,0.98,1.52c0.58,0.87,1.38,1.39,2.42,1.55
		c0.92,0.14,1.76-0.08,2.51-0.59c0.36-0.24,0.67-0.54,1.01-0.82c0.34-0.28,0.67-0.57,1.1-0.72c0.78-0.29,1.51-0.19,2.21,0.23
		c0.58,0.35,0.94,0.87,1.11,1.53c0.14,0.53,0.26,1.06,0.41,1.59c0.38,1.32,1.54,2.27,2.91,2.43c0.67,0.08,1.3-0.06,1.91-0.31
		c0.37-0.15,0.74-0.31,1.11-0.46c0.88-0.37,1.72-0.26,2.48,0.3c0.56,0.41,0.88,0.97,0.97,1.67c0.05,0.4-0.01,0.8-0.03,1.2
		c-0.02,0.35-0.07,0.7-0.07,1.05c0.01,1.72,1.23,3.09,2.88,3.37c0.35,0.06,0.7,0.05,1.05,0.01c0.48-0.05,0.96-0.11,1.44-0.1
		c1.18,0.01,2.17,0.75,2.45,1.88c0.13,0.53,0.09,1.04-0.11,1.54c-0.18,0.44-0.37,0.87-0.54,1.31c-0.57,1.42-0.18,3,1,3.97
		c0.4,0.32,0.85,0.55,1.35,0.66c0.55,0.12,1.1,0.25,1.64,0.4c0.97,0.27,1.58,0.91,1.79,1.88c0.17,0.78-0.03,1.49-0.55,2.1
		c-0.35,0.4-0.71,0.79-1.04,1.2c-0.48,0.6-0.76,1.28-0.78,2.07c-0.02,0.85,0.24,1.59,0.75,2.25c0.2,0.26,0.45,0.48,0.72,0.65
		c0.4,0.25,0.8,0.5,1.21,0.75c0.39,0.24,0.74,0.5,1,0.88c0.66,0.99,0.55,2.49-0.58,3.33c-0.45,0.33-0.94,0.6-1.41,0.88
		c-0.9,0.55-1.48,1.33-1.65,2.37c-0.16,0.99,0.05,1.9,0.69,2.69c0.32,0.4,0.66,0.79,1.01,1.16c0.75,0.81,0.86,1.95,0.41,2.82
		c-0.37,0.71-0.96,1.12-1.72,1.3c-0.5,0.12-1,0.23-1.5,0.36c-1.39,0.35-2.37,1.41-2.58,2.83c-0.09,0.65-0.02,1.29,0.26,1.89
		c0.17,0.36,0.31,0.74,0.47,1.1c0.35,0.83,0.3,1.63-0.17,2.39c-0.45,0.73-1.14,1.08-1.98,1.13c-0.39,0.02-0.78-0.04-1.17-0.08
		c-0.71-0.08-1.42-0.11-2.1,0.16c-1.21,0.47-1.93,1.36-2.19,2.62c-0.08,0.37-0.06,0.75-0.02,1.12c0.04,0.35,0.05,0.7,0.07,1.05
		c0.02,0.27,0.04,0.53,0.01,0.8c-0.13,0.94-0.85,1.77-1.77,2.02c-0.61,0.17-1.18,0.08-1.74-0.16c-0.48-0.2-0.96-0.43-1.45-0.6
		c-0.89-0.32-1.77-0.29-2.64,0.14c-0.82,0.41-1.4,1.03-1.72,1.89c-0.04,0.11-0.07,0.22-0.1,0.33c-0.13,0.51-0.25,1.03-0.38,1.55
		c-0.26,1.02-0.91,1.65-1.93,1.87c-0.83,0.18-1.56-0.06-2.2-0.62c-0.41-0.35-0.79-0.73-1.23-1.04c-1.2-0.85-2.46-0.94-3.76-0.27
		c-0.49,0.25-0.9,0.63-1.2,1.1c-0.3,0.48-0.59,0.96-0.91,1.43c-0.51,0.75-1.25,1.13-2.15,1.11c-0.82-0.02-1.5-0.38-1.97-1.06
		c-0.29-0.42-0.55-0.85-0.81-1.28c-0.46-0.74-1.08-1.29-1.92-1.55c-1.19-0.36-2.3-0.16-3.27,0.62c-0.43,0.34-0.84,0.7-1.25,1.06
		c-0.91,0.79-2.41,0.74-3.28-0.09c-0.38-0.36-0.61-0.8-0.74-1.3c-0.12-0.48-0.22-0.95-0.35-1.43c-0.31-1.18-1.03-2.01-2.18-2.44
		c-0.89-0.33-1.78-0.24-2.64,0.14c-0.41,0.18-0.82,0.36-1.24,0.52c-1.17,0.47-2.39,0.06-3.05-1C27.06,78.81,26.96,78.39,26.96,77.73
		z"/>
</g>
</svg>
