<?xml version="1.0" encoding="utf-8"?>
<!-- Generator: nafis 28.2.0, SVG Export Plug-In . SVG Version: 6.00 Build 0)  -->
<svg version="1.1" id="Layer_1" xmlns="http://www.w3.org/2000/svg" xmlns:xlink="http://www.w3.org/1999/xlink" x="0px" y="0px"
	 viewBox="0 0 100 100" style="enable-background:new 0 0 100 100;" xml:space="preserve">
<style type="text/css">
	.st0{fill:#34D399;}
</style>
<g>
	<path class="st0" d="M59.17,76.34c0.04,1.1-0.06,2.46,0.05,3.82c0.01,0.12,0,0.23-0.12,0.29c-0.11,0.06-0.22,0.03-0.31-0.05
		c-0.1-0.09-0.21-0.18-0.29-0.29c-1.38-1.83-2.75-3.66-4.12-5.49c-1.51-2.01-3.01-4.02-4.52-6.02c-1.07-1.42-2.15-2.82-3.2-4.25
		c-0.72-0.98-1.52-1.91-2.23-2.89c-0.83-1.15-1.69-2.27-2.54-3.4c-0.75-1-1.5-1.99-2.26-2.98c-1.24-1.62-2.43-3.27-3.64-4.9
		c-0.65-0.87-1.31-1.72-1.97-2.58c-0.9-1.19-1.81-2.38-2.71-3.57c-1.34-1.77-2.67-3.55-4-5.32c-0.68-0.91-1.33-1.85-2.04-2.73
		c-1.78-2.22-3.43-4.54-5.17-6.79c-0.23-0.3-0.35-0.62-0.34-1c0.01-1.29-0.05-2.59,0.02-3.87c0.06-1.19,0.05-2.39,0.07-3.58
		c0-0.15-0.02-0.33,0.15-0.4c0.2-0.07,0.3,0.1,0.4,0.23c1.08,1.44,2.18,2.87,3.26,4.32c1.15,1.55,2.3,3.09,3.49,4.61
		c0.67,0.85,1.29,1.74,1.94,2.6c0.77,1.02,1.5,2.06,2.31,3.05c0.6,0.74,1.15,1.53,1.72,2.29c0.71,0.94,1.42,1.88,2.13,2.82
		c1.11,1.47,2.22,2.94,3.33,4.42c0.82,1.09,1.59,2.2,2.44,3.26c1.28,1.6,2.48,3.27,3.72,4.9c1.16,1.53,2.34,3.05,3.48,4.61
		c0.96,1.32,1.99,2.6,2.98,3.9c0.97,1.28,1.91,2.59,2.87,3.87c0.77,1.03,1.57,2.05,2.35,3.08c0.85,1.13,1.7,2.26,2.54,3.4
		c0.18,0.24,0.23,0.52,0.23,0.82C59.17,73.69,59.17,74.89,59.17,76.34z"/>
	<path class="st0" d="M79.25,6.88c0,1.25-0.01,2.5,0,3.75c0.01,0.59-0.18,1.07-0.59,1.51c-0.44,0.46-0.78,1.01-1.16,1.52
		c-1.15,1.57-2.33,3.11-3.51,4.65c-1.07,1.4-2.16,2.78-3.2,4.2c-0.9,1.24-1.88,2.43-2.76,3.69c-0.65,0.93-1.39,1.8-2.07,2.71
		c-0.97,1.3-1.9,2.63-2.9,3.9c-0.62,0.8-1.23,1.61-1.84,2.41c-1,1.33-2,2.65-3,3.98c-0.66,0.88-1.31,1.75-1.96,2.63
		c-0.73,0.98-1.45,1.96-2.18,2.94c-0.98,1.31-1.98,2.6-2.97,3.9c-0.79,1.04-1.57,2.08-2.35,3.12c-0.22,0.3-0.41,0.19-0.61-0.02
		c-0.5-0.49-0.83-1.11-1.27-1.64c-0.57-0.7-1.07-1.45-1.63-2.15c-0.23-0.29-0.25-0.55-0.02-0.82c0.51-0.6,0.92-1.28,1.43-1.89
		c0.5-0.59,0.93-1.24,1.4-1.86c0.99-1.3,1.98-2.6,2.96-3.91c0.64-0.85,1.25-1.73,1.89-2.58c0.77-1.03,1.57-2.04,2.35-3.07
		c0.75-0.99,1.52-1.98,2.26-2.98c0.94-1.27,1.9-2.53,2.84-3.8c1.2-1.61,2.45-3.19,3.63-4.81c0.66-0.91,1.36-1.79,2.01-2.7
		c1.23-1.71,2.56-3.35,3.83-5.03c1.2-1.59,2.36-3.22,3.58-4.8c0.76-0.99,1.51-1.98,2.27-2.97c0.97-1.26,1.92-2.55,2.87-3.82
		c0.05-0.07,0.09-0.14,0.15-0.2c0.11-0.12,0.22-0.29,0.42-0.2c0.17,0.08,0.12,0.26,0.12,0.41C79.25,4.27,79.25,5.58,79.25,6.88
		C79.25,6.88,79.25,6.88,79.25,6.88z"/>
	<path class="st0" d="M67.41,69.79c0,7.3,0,14.61,0,21.91c0,0.18,0.1,0.46-0.1,0.53c-0.21,0.07-0.29-0.21-0.4-0.36
		c-1.48-1.95-2.93-3.91-4.42-5.84c-0.49-0.63-0.29-1.32-0.3-2c0-0.26,0.05-0.52,0.05-0.79c0-6.32,0.05-12.64-0.02-18.95
		c-0.04-3.23-0.02-6.47-0.06-9.7c0-0.37,0.1-0.66,0.32-0.96c1.51-1.99,3.01-3.99,4.51-5.98c0.06-0.08,0.11-0.16,0.18-0.23
		c0.14-0.15,0.22-0.09,0.24,0.08c0.01,0.14,0.01,0.28,0.01,0.42C67.42,55.21,67.42,62.5,67.41,69.79
		C67.42,69.79,67.42,69.79,67.41,69.79z"/>
	<path class="st0" d="M19.67,85.11c0-1.29,0.01-2.58,0-3.87c0-0.34,0.09-0.62,0.29-0.89c0.86-1.14,1.72-2.28,2.58-3.42
		c1.58-2.1,3.16-4.21,4.74-6.31c1.36-1.81,2.72-3.61,4.08-5.41c0.91-1.2,1.84-2.39,2.75-3.6c0.98-1.29,1.94-2.59,2.9-3.89
		c0.29-0.39,0.48-0.39,0.77-0.01c0.94,1.25,1.87,2.51,2.83,3.75c0.25,0.33,0.22,0.58-0.02,0.89c-0.78,0.97-1.52,1.97-2.27,2.97
		c-0.96,1.3-1.98,2.56-2.96,3.86c-1.15,1.53-2.27,3.08-3.41,4.61c-0.47,0.63-0.98,1.24-1.46,1.87c-0.58,0.76-1.15,1.52-1.72,2.29
		c-0.54,0.74-1.13,1.44-1.67,2.18c-0.57,0.77-1.14,1.53-1.72,2.29c-1.06,1.4-2.11,2.82-3.16,4.23c-0.65,0.88-1.31,1.75-1.96,2.63
		c-0.1,0.14-0.19,0.34-0.42,0.26c-0.22-0.08-0.17-0.29-0.17-0.47C19.67,87.75,19.67,86.43,19.67,85.11z"/>
	<path class="st0" d="M62.16,45.98c0-1.1,0.01-2.19,0-3.29c0-0.32,0.08-0.59,0.28-0.85c1.48-1.95,2.96-3.91,4.43-5.87
		c0.08-0.11,0.14-0.28,0.3-0.24c0.2,0.05,0.15,0.24,0.15,0.38c0,2.23,0,4.47,0,6.7c0,0.23-0.08,0.43-0.22,0.61
		c-1.5,1.98-2.99,3.97-4.48,5.95c-0.01,0.01-0.02,0.02-0.03,0.03c-0.12,0.11-0.19,0.34-0.37,0.27c-0.15-0.06-0.07-0.28-0.07-0.42
		C62.16,48.18,62.16,47.08,62.16,45.98z"/>
</g>
</svg>
